<?xml version="1.0" encoding="UTF-8"?>
<svg width="96px" height="97px" viewBox="0 0 96 97" version="1.1" xmlns="http://www.w3.org/2000/svg" xmlns:xlink="http://www.w3.org/1999/xlink">
    <!-- Generator: Sketch 50.2 (55047) - http://www.bohemiancoding.com/sketch -->
    <title>Group 11</title>
    <desc>Created with Sketch.</desc>
    <defs>
        <linearGradient x1="50%" y1="100%" x2="50%" y2="0%" id="linearGradient-1">
            <stop stop-color="#EB0029" offset="0%"></stop>
            <stop stop-color="#FF0055" offset="100%"></stop>
        </linearGradient>
    </defs>
    <g id="Page-1" stroke="none" stroke-width="1" fill="none" fill-rule="evenodd">
        <g id="T.-Hunter---LandingPage" transform="translate(-162.000000, -1157.000000)">
            <g id="2-/-Services" transform="translate(130.000000, 1112.000000)">
                <g id="2">
                    <g id="Group-11" transform="translate(32.000000, 45.000000)">
                        <circle id="Oval-2" fill="url(#linearGradient-1)" cx="62.5" cy="33.5" r="26.5"></circle>
                        <circle id="Oval-3" fill="#FFFFFF" cx="70.5" cy="41.5" r="4.5"></circle>
                        <path d="M9.73247269,82.5662642 C7.88625081,84.4130858 6.01943984,86.2804964 4.30734691,87.9929891 C5.52929952,89.2509227 6.83820606,90.5988086 8.05036387,91.8463476 C9.86180417,90.0341078 11.711824,88.1834882 13.5222649,86.3722478 C12.2775243,85.12231 10.9696173,83.808606 9.73247269,82.5662642 M15.9347867,83.8194003 C24.1508339,75.6155467 32.3794744,67.3990997 40.4731864,59.3171815 C39.2414389,58.0802368 37.9285345,56.7613356 36.5266772,55.3532815 C28.4001826,63.449792 20.1553507,71.6642401 11.9097192,79.8794876 C13.3873364,81.3259213 14.7140335,82.6242335 15.9347867,83.8194003 M62.4145619,3.25428343 C45.6160617,3.30245791 32.0336576,16.9200434 32.0398543,33.708349 C32.0458511,50.4128989 45.82695,64.0932511 62.5668812,64.0116943 C79.1822784,63.9305373 92.8138564,50.2639778 92.7980648,33.7027519 C92.7820733,16.9026526 79.1155138,3.20670863 62.4145619,3.25428343 M43.3856433,61.3946808 C43.1355758,61.6325548 42.8695168,61.8752262 42.6152515,62.1296914 C31.6380672,73.1012787 20.6620822,84.0740654 9.68569747,95.0464522 C8.33401359,96.3975364 7.71853967,96.3899405 6.3594597,95.0226648 C4.52802999,93.1806407 2.69340197,91.3414151 0.859573525,89.5015899 C-0.29121679,88.3474014 -0.290417213,87.6381771 0.885559758,86.4629997 C11.8163686,75.5391871 22.748177,64.616374 33.682584,53.6961595 C34.0108101,53.3685331 34.3714191,53.0728897 34.7446213,52.7372675 C28.87693,43.6850633 27.2527905,34.0433715 30.3255625,23.7798091 C32.6549284,15.9987315 37.3542388,9.88297157 44.1520373,5.4395257 C57.8321896,-3.50173725 75.9024161,-1.22094561 87.1184738,10.8158773 C98.1194456,22.6222224 98.9613995,40.9575084 89.3059149,53.8528765 C79.805948,66.5409544 60.0538126,72.4742109 43.3856433,61.3946808 Z M86.6016676,33.6060232 C86.5922726,20.2273112 75.7999903,9.44542338 62.4172804,9.44522349 C49.0301729,9.4450236 38.2778694,20.2283106 38.2179012,33.6008259 C38.1581329,46.9601482 49.3186201,58.1846015 63.0673361,57.8293897 C76.0462599,57.4937675 86.7024143,46.7168771 86.6016676,33.6060232 Z M83.3969655,33.6414044 C83.3128101,45.2946306 73.8238373,54.684256 62.2045931,54.6116944 C50.8056323,54.5405321 41.3706309,44.959808 41.4347969,33.5208683 C41.4993627,22.0009715 51.1096712,12.5369855 62.6281687,12.6497258 C74.0251306,12.7614666 83.4787222,22.3164044 83.3969655,33.6414044 Z M46.4265123,32.9480318 C46.4261125,33.0479788 46.4259126,33.1479259 46.4261125,33.247673 C46.4277117,34.5489836 46.953633,35.2120323 47.9958809,35.2272243 C49.0425263,35.2424162 49.5218724,34.6081522 49.6422086,33.3026439 C49.7421557,32.2164194 49.8772841,31.111005 50.1855208,30.0699566 C51.8004652,24.6124479 56.4691917,21.0667265 62.2419333,20.8374479 C63.3785312,20.7922719 64.0041997,20.2331681 64.0127951,19.2546865 C64.0213906,18.2272308 63.3671372,17.5931667 62.1785669,17.6579324 C60.9895968,17.7224982 59.7800377,17.8104516 58.6284478,18.0903034 C51.6681353,19.7810076 46.4994737,26.1106542 46.4265123,32.9480318 Z" id="Combined-Shape" fill="#291956"></path>
                    </g>
                </g>
            </g>
        </g>
    </g>
</svg>