<?xml version="1.0" encoding="UTF-8"?>
<svg width="91px" height="107px" viewBox="0 0 91 107" version="1.1" xmlns="http://www.w3.org/2000/svg" xmlns:xlink="http://www.w3.org/1999/xlink">
    <!-- Generator: Sketch 50.2 (55047) - http://www.bohemiancoding.com/sketch -->
    <title>Group 6</title>
    <desc>Created with Sketch.</desc>
    <defs>
        <linearGradient x1="50%" y1="100%" x2="50%" y2="0%" id="linearGradient-1">
            <stop stop-color="#EB0029" offset="0%"></stop>
            <stop stop-color="#FF0055" offset="100%"></stop>
        </linearGradient>
    </defs>
    <g id="Page-1" stroke="none" stroke-width="1" fill="none" fill-rule="evenodd">
        <g id="T.-Hunter---LandingPage" transform="translate(-563.000000, -1147.000000)">
            <g id="2-/-Services" transform="translate(130.000000, 1112.000000)">
                <g id="1" transform="translate(400.000000, 0.000000)">
                    <g id="Group-6" transform="translate(32.000000, 35.000000)">
                        <rect id="Rectangle-11" fill="#FFFFFF" x="21" y="28" width="45" height="31"></rect>
                        <circle id="Oval-7" fill="url(#linearGradient-1)" cx="23.5" cy="85.5" r="11.5"></circle>
                        <circle id="Oval-7-Copy" fill="url(#linearGradient-1)" cx="84" cy="37" r="2"></circle>
                        <path d="M44.082946,39.9642965 C43.5992937,40.152425 42.9232768,40.1952835 42.4510866,40.0118893 C29.7589852,35.0793034 17.0811446,30.1099777 4.40185288,25.1448584 C3.83573692,24.8250435 4.01630061,24.1256174 4.41074761,23.9708785 C17.0141141,19.0309469 29.6147397,14.0857826 42.2298176,9.17699807 C42.7483546,8.9751648 43.472961,8.92956543 43.9792884,9.12616599 C56.7525936,14.0842875 69.5097022,19.0840216 82.268306,24.0795197 C82.5558561,24.1921476 82.6556383,24.8730443 82.3133437,25.0079689 C79.7218873,26.0294606 54.8867571,35.7664136 44.082946,39.9642965 Z" id="Fill-1" fill="url(#linearGradient-1)"></path>
                        <path d="M20.4925854,100.002348 C20.582544,100.061583 20.6727236,100.120598 20.7629033,100.179834 C21.3552597,99.5304518 21.9219769,98.8549886 22.5463825,98.237656 C23.5385796,97.2562893 24.4293245,97.2569524 25.424616,98.2232891 C26.0697983,98.8494629 26.6749744,99.5171901 27.4746556,100.350026 L27.4746556,93.3933737 C25.137942,94.2799191 22.8175845,94.2423443 20.4925854,93.4086246 L20.4925854,100.002348 Z M23.9554394,90.4793335 C26.7817312,90.5040887 29.2526091,88.0763114 29.2939414,85.2334424 C29.3350527,82.4073716 26.9209791,79.9256633 24.0778892,79.8710693 C21.194793,79.8158121 18.7020333,82.2656924 18.6858982,85.1704493 C18.6699841,87.9940888 21.1119073,90.4541363 23.9554394,90.4793335 Z M73.4260448,72.7985984 C70.5623992,72.8310896 68.1710915,75.2575408 68.1912051,78.110356 C68.2115398,81.0323532 70.661199,83.4497422 73.5564517,83.4053155 C76.3891533,83.3622149 78.8153835,80.9003991 78.8074264,78.0776438 C78.7992484,75.1764233 76.3418532,72.7652231 73.4260448,72.7985984 Z M66.3093682,72.8023559 L65.083544,72.8023559 C53.6313928,72.8008087 42.1790206,72.7985984 30.7268694,72.7972722 C25.0190286,72.7963881 19.3114089,72.7806951 13.6037892,72.8045662 C11.4542868,72.8136283 9.74330492,73.7116672 8.72347928,75.6529608 C7.72929296,77.544965 7.86323625,79.4363062 9.10519555,81.1700539 C10.6477537,83.3226508 12.8803628,83.6115351 15.2818378,83.3376807 C16.484454,79.1788079 19.6387522,76.4442429 23.3089309,76.3383703 C28.0442461,76.2013326 31.0159747,78.4029978 32.746186,83.3447536 L66.2649415,83.3447536 C64.0356478,79.8266425 64.0334375,76.3715246 66.3093682,72.8023559 Z M32.8825606,86.9486238 C32.3255687,88.0939937 31.8076989,89.0981263 31.351275,90.1292244 C31.180862,90.513814 31.0756524,90.9616178 31.0736632,91.3811299 C31.0537706,95.6527273 31.0478028,99.9247667 31.072116,104.196806 C31.0776417,105.123358 30.8897674,105.896295 29.9634369,106.265633 C29.0519152,106.629004 28.3472762,106.249719 27.7060725,105.581771 C26.5134025,104.339812 25.2838208,103.133438 23.9961086,101.838211 C22.7033127,103.138301 21.473289,104.344011 20.2817242,105.586855 C19.6414045,106.254361 18.932124,106.64536 18.0245808,106.289946 C17.103776,105.929449 16.8964512,105.152312 16.902419,104.223772 C16.9271742,100.172761 16.9002087,96.1217498 16.9302686,92.07096 C16.9371205,91.1284943 16.7983146,90.2952168 16.2731508,89.4710014 C15.8083278,88.7409442 15.5590076,87.8736282 15.2013834,87.0363721 C14.0060611,86.9446453 12.6984564,86.9903982 11.4582653,86.7231747 C6.93535848,85.748881 4.06066142,81.6125531 4.56438544,76.9610077 C5.03009256,72.6600135 8.91069045,69.2652363 13.3845289,69.2639101 C33.4181128,69.2586055 53.4519177,69.2583844 73.4855015,69.2561741 C78.4104592,69.2557321 82.3483035,73.1648427 82.3465353,78.0542148 C82.344767,83.0496806 78.4741154,86.942656 73.4693664,86.9459715 C60.2485449,86.9543706 47.0279445,86.9486238 33.806902,86.9486238 L32.8825606,86.9486238 Z M87.6371183,37.4722053 C87.6713778,35.6049563 86.0344405,33.9275708 84.1490671,33.898395 C82.2871228,33.8696613 80.6044326,35.5152187 80.5750358,37.3930771 C80.5460811,39.2623154 82.188323,40.9390378 84.0692758,40.9604775 C85.9577436,40.9823594 87.6021958,39.3743768 87.6371183,37.4722053 Z M79.0883979,18.0090961 C78.6061137,17.7854152 78.3627612,17.6565556 78.1079154,17.5566507 C66.7905916,13.1254707 55.4743729,8.69031224 44.1442295,4.29250758 C43.6948785,4.11811607 43.0521275,4.15834327 42.5921671,4.33737638 C31.4021558,8.69163841 20.224964,13.0783916 9.04556206,17.4600612 C8.69545287,17.5973199 8.34888013,17.744967 7.80183452,17.9693109 C8.20410644,18.1545328 8.35860539,18.2356503 8.52017724,18.2988645 C19.9396162,22.7704927 31.357508,27.2465414 42.7884405,31.6889938 C43.2072895,31.8516708 43.8069399,31.8136539 44.2361773,31.6469984 C53.8193113,27.9233308 63.3907307,24.1689402 72.9636974,20.4191912 C74.928862,19.6493488 76.8918164,18.8735386 79.0883979,18.0090961 Z M18.7146761,62.1157812 L68.1536745,62.1157812 L68.1536745,26.2114648 C67.6453089,26.3933713 67.1992733,26.5405763 66.762963,26.7114313 C59.4150906,29.5867915 52.0780485,32.4893381 44.7076312,35.3050206 C43.9696169,35.587053 42.9380768,35.5903684 42.2007256,35.3092201 C34.8298662,32.495969 27.4923821,29.5956326 20.1449517,26.7215986 C19.6920643,26.5445548 19.2334301,26.3812147 18.7146761,26.1882568 L18.7146761,62.1157812 Z M85.8764051,30.4947767 C90.7065415,32.286876 91.6065697,36.0775153 91.08229,38.7809152 C90.4413073,42.087281 87.6209833,44.4606853 84.442814,44.5225733 C80.8347443,44.5930814 78.0075684,42.4415897 77.1844582,38.9990704 C76.3346035,35.4444896 78.0453643,32.5907902 82.3158565,30.4702425 L82.3158565,20.619664 C80.4497126,21.3472899 78.6538558,22.0475083 76.857999,22.7479477 C75.455794,23.2947723 74.0681769,23.8853606 72.6449742,24.3711813 C71.9359147,24.6127654 71.7102446,24.9560228 71.7122338,25.7128244 C71.7411886,37.7546798 71.7354418,49.7967561 71.736989,61.8383904 C71.73721,62.4645642 71.7378731,63.090517 71.7294741,63.7164698 C71.7106866,65.1071813 71.1039633,65.7183252 69.6982219,65.7207565 C64.7268482,65.7295976 59.7552535,65.7300397 54.7838798,65.7298187 C42.3737909,65.7289346 29.9634811,65.7260612 17.5533922,65.7231878 C15.6346435,65.7227458 15.1508121,65.2382512 15.15037,63.3166292 C15.1477177,50.795805 15.1360032,38.2752019 15.1667262,25.7545988 C15.1687154,24.9365722 14.8855779,24.6260272 14.1698875,24.3528359 C10.2603349,22.8600092 6.37531639,21.3035263 2.47283667,19.7919122 C1.60861512,19.457054 0.995481983,18.9798534 0.999239468,17.9724053 C1.00343901,16.962968 1.6355806,16.4952717 2.49118204,16.1610765 C15.8262753,10.9523182 29.1520853,5.72035189 42.5048609,0.556683379 C43.1597684,0.303384684 44.1101911,0.444842943 44.8026734,0.712950549 C56.2694125,5.15562399 67.7167011,9.64802885 79.1684102,14.1298243 C80.8774028,14.7986567 82.5713655,15.5094844 84.2987034,16.1272592 C85.4277172,16.5310783 85.9097804,17.2111831 85.8947504,18.4328078 C85.8459031,22.4446966 85.8764051,26.4572485 85.8764051,30.4947767 Z" id="Fill-4" fill="#291956"></path>
                    </g>
                </g>
            </g>
        </g>
    </g>
</svg>