<?xml version="1.0" encoding="UTF-8"?>
<svg width="162px" height="162px" viewBox="0 0 162 162" version="1.1" xmlns="http://www.w3.org/2000/svg" xmlns:xlink="http://www.w3.org/1999/xlink">
    <!-- Generator: Sketch 50.2 (55047) - http://www.bohemiancoding.com/sketch -->
    <title>Group 13</title>
    <desc>Created with Sketch.</desc>
    <defs></defs>
    <g id="Page-1" stroke="none" stroke-width="1" fill="none" fill-rule="evenodd">
        <g id="T.-Hunter---LandingPage" transform="translate(-639.000000, -3842.000000)">
            <g id="Group-13" transform="translate(640.000000, 3843.000000)">
                <circle id="Oval-5" stroke="#E6E6E6" fill="#FFFFFF" cx="80" cy="80" r="80"></circle>
                <g id="logo" transform="translate(28.816692, 31.144679)">
                    <path d="M16.8028747,16.3920228 C16.5351063,16.1335633 16.398758,15.8165125 16.3932822,15.4430605 C16.3872588,15.0701561 16.5142982,14.7503673 16.77221,14.4842417 C17.031217,14.2153782 17.3477203,14.076292 17.7200771,14.0708161 C18.0940767,14.06315 18.4149606,14.1890942 18.6832766,14.4475536 C18.9521401,14.7082034 19.0901311,15.0258018 19.0950594,15.3998014 C19.1027255,15.7738009 18.9756862,16.0963276 18.7166791,16.364096 C18.4587673,16.6307692 18.142264,16.7671175 17.7682645,16.7720457 C17.3942649,16.7791643 17.0722858,16.6526725 16.8028747,16.3920228 Z M31.5942012,10.1583317 C31.2037742,10.3549142 30.8505828,10.3965306 30.5313416,10.284276 C30.212648,10.1725689 29.9498079,9.91191915 29.7433689,9.50287425 L28.223277,6.48240345 L27.6291488,6.78138406 C27.5771284,6.80766807 27.5256555,6.81314391 27.4736351,6.8000019 C27.4227098,6.78795506 27.3810935,6.7501718 27.3487861,6.68446178 L27.1746545,6.33948415 L27.9314149,5.82968387 L27.3641184,4.20445593 C27.3487861,4.15134032 27.351524,4.0987723 27.3701418,4.05058495 C27.3882121,4.00294519 27.4249002,3.96625709 27.4802061,3.93833033 L27.9188205,3.71765416 L28.774146,5.41735347 L30.2016963,4.69892386 L30.517652,5.32754977 L29.0906493,6.04543179 L30.5811717,9.00785873 C30.6857601,9.21594048 30.8138947,9.34462261 30.9650277,9.39445271 C31.1167084,9.44428281 31.2716745,9.42949806 31.4310213,9.34955086 C31.5219202,9.30355384 31.5947488,9.25043824 31.6489596,9.19294197 C31.7031704,9.13489811 31.7475246,9.07959217 31.7809272,9.02647657 C31.815425,8.97281338 31.8433517,8.92353087 31.8652551,8.88191452 C31.8871584,8.84084575 31.9107045,8.81456174 31.9364409,8.80141974 C31.9818904,8.77896881 32.0361011,8.78553981 32.1001684,8.82332308 L32.5617813,9.10970927 C32.4829293,9.3249096 32.3575327,9.52423001 32.186139,9.70986083 C32.015293,9.89549165 31.8181629,10.0455295 31.5942012,10.1583317 Z M36.1303833,8.05451579 L33.6098562,0.427772261 L34.5363676,0.121125479 L35.5570633,3.2073063 C35.7021729,2.89518369 35.8878038,2.62139192 36.1128606,2.38812133 C36.338465,2.15485074 36.6292319,1.98017159 36.9846136,1.86244113 C37.2709998,1.76770918 37.5398633,1.73102108 37.7906566,1.75347201 C38.0414498,1.77592293 38.268697,1.84929913 38.4734932,1.97579092 C38.6771943,2.10118756 38.8573493,2.27531912 39.0145058,2.4954477 C39.1716622,2.7150287 39.2992492,2.97348813 39.3972667,3.27082599 L40.5011951,6.610538 L39.5741361,6.9166372 L38.4702077,3.57692519 C38.3393353,3.17992713 38.1471334,2.90011194 37.8936023,2.74131271 C37.6400711,2.5819659 37.3279485,2.56444323 36.9583296,2.68655436 C36.6823475,2.77854839 36.4485293,2.9280387 36.2552323,3.13721561 C36.0619353,3.34694011 35.9036837,3.5966382 35.781025,3.88576231 L37.0574422,7.74841659 L36.1303833,8.05451579 Z M46.2990096,0.0203701076 C46.6270121,-0.0190559072 46.9391347,-0.00098565037 47.2315444,0.0751284615 C47.5245015,0.151790157 47.7856989,0.281567456 48.0145888,0.464460358 C48.2434787,0.64735326 48.4329426,0.885004515 48.5851709,1.17577137 C48.7373991,1.46708582 48.8365117,1.80877795 48.8836039,2.19865743 C48.9016741,2.34979048 48.8972935,2.45273619 48.8710095,2.50749454 C48.8447255,2.56225289 48.7866816,2.59510791 48.6963303,2.60496441 L45.0302585,3.04522158 C45.079541,3.39074679 45.1622262,3.6864419 45.2799566,3.93285449 C45.3971395,4.17817192 45.5417015,4.37749233 45.7136428,4.53081572 C45.8861316,4.68359152 46.0821665,4.79037031 46.3017475,4.85005692 C46.5207809,4.90919594 46.7606225,4.92452828 47.0212723,4.89331602 C47.2627566,4.86429409 47.468648,4.81063091 47.6373038,4.73396921 C47.8054119,4.65621235 47.9477836,4.57900307 48.0666092,4.49850829 C48.1848873,4.41910868 48.2845475,4.34463731 48.3623044,4.27892729 C48.4406088,4.21266968 48.5096043,4.17652917 48.5709337,4.16941058 C48.6503333,4.15955408 48.7154957,4.18310017 48.7658734,4.23950127 L49.0785436,4.55874248 C48.9772407,4.7175417 48.8496537,4.85881826 48.6963303,4.98531005 C48.5430069,5.11180185 48.3765415,5.22186614 48.1952914,5.31276501 C48.0140412,5.40421146 47.8234822,5.47813524 47.6252569,5.53672668 C47.4270317,5.59531812 47.229354,5.63748205 47.0305812,5.66102814 C46.6511058,5.70647757 46.2951765,5.68347907 45.9611505,5.59367537 C45.6254818,5.50387167 45.3270488,5.34945311 45.0647563,5.13041969 C44.8019162,4.91029111 44.5828828,4.627738 44.4098464,4.27837971 C44.2357148,3.92956899 44.1207223,3.51833375 44.0643212,3.04576916 C44.0183241,2.66355585 44.0347517,2.29886521 44.1125085,1.95224483 C44.1897178,1.60617204 44.3227806,1.2978825 44.5138872,1.02737624 C44.7049939,0.756869967 44.9508589,0.534003467 45.2514823,0.3565864 C45.5526532,0.179716917 45.9014639,0.067462292 46.2990096,0.0203701076 Z M46.4057884,0.727300456 C45.9397948,0.782606394 45.5893413,0.96002346 45.3549756,1.26119441 C45.1195146,1.56236535 44.9984987,1.95607792 44.9908325,2.44014177 L47.9910427,2.08037938 C47.9636635,1.85641771 47.9083576,1.65490697 47.8229346,1.47639474 C47.7375115,1.29843009 47.6263521,1.1483922 47.4889086,1.02737624 C47.3514651,0.906907857 47.1910232,0.819842074 47.0092254,0.766178888 C46.8268801,0.713063284 46.6253694,0.701016446 46.4057884,0.727300456 Z M59.7936583,6.08595297 L61.3405818,0.78205881 L61.9007598,0.945786288 C62.033275,0.984117136 62.0967947,1.07282567 62.0907713,1.21081672 L61.9998724,1.77592293 C62.2654504,1.59193486 62.5425277,1.45887206 62.8316518,1.37618695 C63.1207759,1.29404942 63.4263275,1.29952525 63.7472115,1.39316204 C64.1031408,1.49720291 64.3637905,1.68173856 64.527518,1.94457866 C64.6912455,2.20851393 64.7711927,2.52337446 64.7700975,2.89080302 C64.9031603,2.72050454 65.0515555,2.58360865 65.212545,2.47956778 C65.3735346,2.37497932 65.5410951,2.2994128 65.7179646,2.25232061 C65.8942865,2.20522843 66.0744415,2.186063 66.2556917,2.19318159 C66.4369418,2.20084776 66.6143589,2.22986969 66.789038,2.28024737 C67.067758,2.36183732 67.3048617,2.47847261 67.4976111,2.63124842 C67.6887178,2.78292906 67.8365653,2.9680123 67.9378683,3.18376021 C68.0402664,3.39841296 68.0939296,3.64208763 68.1015958,3.91478424 C68.1092619,4.18802842 68.0660028,4.48591387 67.9723661,4.80679782 L66.9872633,8.1837455 L66.0503478,7.91050132 L67.034903,4.53410122 C67.155919,4.11793773 67.1575617,3.7762456 67.0387361,3.50847725 C66.9199105,3.2407089 66.6888302,3.057816 66.3471381,2.95815579 C66.1932671,2.91325394 66.0404913,2.89737402 65.8871679,2.91161119 C65.733297,2.92530078 65.5876397,2.96965505 65.4523866,3.04357883 C65.3176811,3.11805019 65.1972127,3.22537656 65.0898863,3.36610553 C64.9825599,3.50738208 64.8976845,3.6831564 64.8358075,3.89233331 L63.8512523,7.26873341 L62.9137893,6.99603681 L63.8988921,3.61908912 C64.0231936,3.19306913 64.0303122,2.85082942 63.9202479,2.59127482 C63.8101836,2.33172023 63.5911502,2.15485074 63.2631476,2.05902362 C63.0326149,1.99167085 62.8020823,1.99057568 62.571002,2.05738087 C62.3393742,2.12418606 62.1099367,2.24136894 61.8843323,2.40619159 L60.7311213,6.35919715 L59.7936583,6.08595297 Z M75.7119118,6.3411269 C76.0596273,6.54482797 76.3399901,6.78631231 76.5513574,7.06557992 C76.7632722,7.34484752 76.9050963,7.64930397 76.9784725,7.97840168 C77.0513011,8.3069518 77.0529439,8.65357218 76.9812104,9.01771523 C76.909477,9.38240587 76.7632722,9.75147718 76.5447864,10.1249291 C76.3252054,10.5016666 76.0749597,10.8105037 75.7935017,11.0503453 C75.5125914,11.2901869 75.2097777,11.4582951 74.887251,11.5563125 C74.5647243,11.6548776 74.2306983,11.6784236 73.8846255,11.6296887 C73.5380051,11.5809538 73.1902896,11.4555571 72.8414789,11.2518561 C72.4904778,11.0465122 72.2084723,10.8044803 71.9949147,10.5252127 C71.7808096,10.2464927 71.6356999,9.94313141 71.5628713,9.61403371 C71.4900427,9.284936 71.4900427,8.93995837 71.5612286,8.57691049 C71.6313193,8.2138626 71.7764289,7.84424371 71.9960099,7.46695865 C72.2144957,7.09405426 72.4663842,6.78576473 72.7478421,6.54482797 C73.0303952,6.30279605 73.3315661,6.13359274 73.6540929,6.03557528 C73.9766196,5.93755783 74.3128358,5.91346415 74.6621941,5.96110392 C75.0104573,6.00983886 75.3603632,6.13578307 75.7119118,6.3411269 Z M73.2242398,10.5974937 C73.6951616,10.8729283 74.1392519,10.9200204 74.5559629,10.7398655 C74.972674,10.5602581 75.3455784,10.1889964 75.6752237,9.62389021 C76.0076069,9.0554985 76.1499786,8.54460306 76.1028864,8.09229905 C76.0557943,7.63944747 75.7973348,7.275852 75.3258654,7.00041748 C75.0882141,6.86078367 74.8565863,6.78028889 74.6320771,6.75838555 C74.4064726,6.73648221 74.1901771,6.76824206 73.982643,6.85311751 C73.7751088,6.93799295 73.5768836,7.07488884 73.3879673,7.26544791 C73.1990509,7.45600698 73.0205387,7.69256307 72.8551685,7.97566376 C72.5249756,8.54022239 72.3858894,9.0489275 72.4351719,9.50068392 C72.4855496,9.95298792 72.7472945,10.3182261 73.2242398,10.5974937 Z M81.3898055,17.534282 C81.2857646,17.4428356 81.2649565,17.3349616 81.3262858,17.2101126 L81.7035709,16.6488394 C81.3361423,16.708526 80.9834985,16.7025026 80.6407112,16.6318643 C80.2990191,16.5617736 79.9792303,16.3964034 79.6840828,16.1373964 C79.4464315,15.9282195 79.2717524,15.6927586 79.1584026,15.4304661 C79.0450528,15.1687211 78.997413,14.8894535 79.0165784,14.5921157 C79.0362915,14.2947778 79.125,13.98156 79.2843468,13.6513671 C79.443146,13.3217218 79.6736787,12.984958 79.9764924,12.6405279 C80.2453559,12.3349763 80.5366703,12.0858258 80.8504357,11.8941716 C81.1642011,11.7025173 81.4817995,11.5771207 81.8054214,11.5185293 C82.1284957,11.4582951 82.4510224,11.4714371 82.7708112,11.5563125 C83.0911476,11.641188 83.3884854,11.8060106 83.6672054,12.0507805 C83.9212842,12.2741945 84.1025344,12.5085603 84.208218,12.7538777 C84.3149968,12.9997427 84.36866,13.2625828 84.3741358,13.5429456 L86.397457,11.2409044 L87.1262907,11.8821247 L81.8240392,17.9159477 L81.3898055,17.534282 Z M80.4397481,15.7562783 C80.6806848,15.9676455 80.9385967,16.0974228 81.2134836,16.1456102 C81.4883705,16.1937975 81.7878987,16.1833934 82.1131634,16.1154931 L83.8736444,14.1124325 C83.8955478,13.8123567 83.8594073,13.55554 83.7663181,13.3430776 C83.6726813,13.1300676 83.5275716,12.9367706 83.3309891,12.7642818 C82.9460379,12.4264228 82.5282317,12.3032165 82.0786656,12.3968533 C81.6285519,12.49049 81.1789858,12.7927562 80.7305149,13.303104 C80.4928637,13.5736103 80.3127087,13.8249511 80.19005,14.0576741 C80.0673913,14.2909447 79.9962054,14.5094305 79.9775876,14.7131316 C79.9578745,14.9168327 79.9885392,15.1046539 80.069034,15.2776903 C80.1500764,15.4501791 80.2738303,15.6100735 80.4397481,15.7562783 Z M90.5328079,19.50394 C90.7348662,19.7656849 90.8805234,20.041667 90.9653988,20.3324339 C91.0497267,20.6232008 91.0721776,20.9139676 91.0327516,21.2041869 C90.9938732,21.4944062 90.8870944,21.7791496 90.7162483,22.0589648 C90.5443071,22.33878 90.3022752,22.6005249 89.9923429,22.8403665 C89.8713269,22.9340033 89.7809757,22.9832858 89.7207415,22.9887616 C89.6599597,22.9942375 89.6024634,22.9608349 89.5466099,22.8891014 L87.2856375,19.9699336 C87.014036,20.1900622 86.8032164,20.4129287 86.6526309,20.6401758 C86.502593,20.8668754 86.4062183,21.0930274 86.3629592,21.319727 C86.3202477,21.545879 86.329009,21.7681979 86.390886,21.9877789 C86.4522153,22.2068124 86.5628272,22.4203699 86.7232692,22.6273565 C86.8722119,22.8201059 87.0238925,22.9690486 87.1766683,23.0736371 C87.3288966,23.1787731 87.469078,23.2614582 87.5988553,23.3216924 C87.7286325,23.3824742 87.8430775,23.4295664 87.9399998,23.4618738 C88.0363745,23.4952764 88.1026321,23.5363452 88.1404154,23.5845325 C88.1896979,23.6480522 88.2028399,23.7159526 88.1809366,23.7882336 L88.0675868,24.2208246 C87.879218,24.2153488 87.6919445,24.1786607 87.5046709,24.1118555 C87.3179449,24.0455979 87.1383375,23.9590797 86.9663963,23.8501106 C86.7955502,23.741689 86.6334655,23.6162924 86.4817848,23.4766586 C86.3295566,23.3364772 86.1915656,23.1886296 86.0694544,23.0298304 C85.8356363,22.7281119 85.6724564,22.4105134 85.5771768,22.0775826 C85.4818973,21.7441043 85.4610891,21.4084356 85.5147523,21.0705765 C85.5684155,20.733265 85.6987404,20.3992391 85.9090124,20.0712365 C86.1187369,19.7426864 86.4122417,19.4333017 86.7884316,19.1414397 C87.0934356,18.9054312 87.4148672,18.7318472 87.7516311,18.6206878 C88.0878474,18.5095283 88.4218733,18.465174 88.7515186,18.4898153 C89.0817115,18.5150041 89.3998575,18.6113788 89.7059567,18.7778442 C90.0131511,18.9454048 90.288038,19.1874367 90.5328079,19.50394 Z M89.9808436,19.9589819 C89.6939099,19.5877203 89.3615267,19.3785434 88.9831464,19.3314512 C88.6042186,19.2849066 88.2039351,19.382924 87.7844861,19.624956 L89.6342233,22.0140629 C89.8127355,21.8760719 89.9572976,21.7243913 90.0662667,21.5601162 C90.1757834,21.394746 90.2475168,21.2217096 90.2798243,21.0421022 C90.3137744,20.8624948 90.3050131,20.6801494 90.2579209,20.496709 C90.209186,20.3127209 90.1166444,20.1342087 89.9808436,19.9589819 Z M89.4808999,28.2335168 L94.4162703,25.7496778 L94.666516,26.2468837 C94.7136082,26.3410681 94.7278453,26.4149918 94.7103227,26.4681074 C94.6928,26.5223182 94.6435175,26.5776242 94.5619275,26.6345728 L93.8391173,27.0655211 C94.2552807,27.0518315 94.6166859,27.1115181 94.9227851,27.2445809 C95.2272415,27.3781913 95.4616073,27.6081764 95.6264299,27.9367265 C95.6784504,28.0402198 95.7178764,28.1469986 95.7436128,28.254325 C95.7688016,28.3611037 95.7753727,28.4640494 95.7649686,28.5631621 L95.0848698,28.8254546 C94.9939709,28.8468103 94.9288085,28.8188836 94.8893825,28.7411267 C94.8669316,28.6956773 94.8428379,28.6239438 94.8181966,28.526474 C94.7935554,28.4290041 94.7535818,28.3255108 94.6977282,28.2148989 C94.6194238,28.0588376 94.5268822,27.9307031 94.4173655,27.8310429 C94.3083964,27.7308351 94.1851901,27.6563637 94.0477466,27.605986 C93.9103031,27.5550608 93.7564321,27.5243961 93.588324,27.5150872 C93.421311,27.5057783 93.2373229,27.5128968 93.037455,27.5364429 L89.9200619,29.1052698 L89.4808999,28.2335168 Z M92.2998599,34.386713 L97.6245623,32.915356 L97.7795284,33.4777243 C97.8167641,33.6107871 97.7746002,33.7115425 97.6535842,33.7788953 L97.0955966,34.0121659 C97.4153854,34.1726078 97.6941054,34.3746662 97.931209,34.6183408 C98.1677651,34.8620155 98.3386112,35.1719478 98.4421045,35.5464949 C98.5231468,35.8378094 98.5461454,36.1083157 98.5111,36.3574662 C98.4766022,36.6066167 98.3917268,36.8300308 98.2559261,37.028256 C98.1195778,37.2259337 97.9366849,37.3967797 97.7088901,37.5424369 C97.481643,37.6886417 97.2177077,37.8030867 96.9159892,37.8863194 L93.5258995,38.8237824 L93.2657973,37.8824863 L96.6564346,36.9455709 C97.0594561,36.8344114 97.347485,36.6564468 97.5194262,36.4111293 C97.6902723,36.1652643 97.7236749,35.8542369 97.619634,35.4796897 C97.5429723,35.199327 97.4044337,34.9583902 97.2051133,34.7552367 C97.0052453,34.5520832 96.7637609,34.3812372 96.4806603,34.2443413 L92.5599621,35.3274615 L92.2998599,34.386713 Z M94.5170257,51.2676183 C94.5318104,50.8322894 94.6637781,50.501549 94.9151189,50.275397 C95.1659122,50.0486974 95.5201987,49.9424662 95.9779786,49.9567033 L99.3576642,50.0656725 L99.3790199,49.4009061 C99.3812103,49.3428622 99.4003757,49.2946748 99.4370638,49.2557964 C99.4726567,49.2163704 99.5263199,49.1983001 99.5986009,49.2010381 L99.9857425,49.2130849 L100.071166,50.1220736 L101.76977,50.400246 C101.823433,50.413388 101.868335,50.4402196 101.901737,50.479098 C101.934592,50.5185241 101.949925,50.5683542 101.947734,50.6296835 L101.931854,51.120866 L100.029549,51.058989 L99.9780763,52.6562902 L99.274979,52.6338393 L99.3264519,51.0365381 L96.0124763,50.9292117 C95.7797533,50.9220931 95.6056218,50.9719232 95.489534,51.0814399 C95.3728988,51.1898615 95.312117,51.3338759 95.3060936,51.5118406 C95.3028081,51.6136911 95.3143073,51.7029473 95.3394962,51.7785138 C95.3635898,51.8540803 95.390969,51.9186952 95.4221813,51.9734535 C95.4528459,52.029307 95.4824155,52.0774944 95.5086995,52.1169204 C95.5344359,52.1563464 95.5459351,52.1892014 95.5453876,52.2182234 C95.5431972,52.2691486 95.5114374,52.3135029 95.4479177,52.3512862 L94.9759007,52.6196021 C94.8247676,52.4476609 94.7092275,52.2417695 94.6281851,52.003023 C94.5465952,51.763729 94.5093595,51.5184116 94.5170257,51.2676183 Z M99.0586836,59.7622818 C98.9825694,60.0842609 98.858268,60.3700995 98.6852316,60.6187024 C98.5111,60.8667578 98.2997328,61.0666258 98.0489395,61.2177588 C97.7981462,61.369987 97.5090221,61.4652666 97.1837575,61.5074305 C96.8579453,61.5495944 96.5031112,61.5249532 96.1208979,61.4335067 C95.9730503,61.3979138 95.8777708,61.3590354 95.8356068,61.3152287 C95.7934429,61.271422 95.7830388,61.205712 95.8043946,61.1170035 L96.6597201,57.525403 C96.3185755,57.4520268 96.0124763,57.4273856 95.7408749,57.4520268 C95.469821,57.4772157 95.2332649,57.5445684 95.0295639,57.65299 C94.8264104,57.7619591 94.6588498,57.9081639 94.5268822,58.0937947 C94.3949146,58.278878 94.2974447,58.4990066 94.2372105,58.7536329 C94.1802618,58.9907366 94.1600012,59.2026514 94.1736908,59.3871871 C94.187928,59.5711751 94.2114741,59.7321647 94.2454242,59.8712509 C94.2793744,60.0097895 94.3144198,60.1291627 94.3500127,60.2249899 C94.385058,60.3213646 94.3949146,60.3980263 94.3801298,60.4582605 C94.361512,60.5360173 94.3177053,60.5891329 94.247067,60.6170597 L93.8391173,60.8005002 C93.7252199,60.6499147 93.6370589,60.481259 93.5713489,60.2934378 C93.5056389,60.1061642 93.4601894,59.9123197 93.4371909,59.7102613 C93.41474,59.5087506 93.4103593,59.3039544 93.4240489,59.0980629 C93.4382861,58.8921715 93.4662129,58.691756 93.5133051,58.4973638 C93.601466,58.1261022 93.7465756,57.7997424 93.9464436,57.5171893 C94.1468592,57.2329934 94.3954621,57.0068414 94.6922524,56.8359953 C94.9884951,56.6656969 95.3296397,56.5589181 95.7173288,56.5162066 C96.1050179,56.4740426 96.5299428,56.5085404 96.993746,56.6186047 C97.3682932,56.7078608 97.7045095,56.8496849 98.0029425,57.0418868 C98.3008279,57.2340886 98.5445026,57.466264 98.7317762,57.7389606 C98.9190497,58.0116572 99.0438988,58.3193992 99.1057757,58.6632816 C99.1682003,59.0071641 99.1512252,59.3729499 99.0586836,59.7622818 Z M98.3594194,59.6177197 C98.4672933,59.1615826 98.4223915,58.7717032 98.2208807,58.4469861 C98.0204652,58.1222691 97.6924626,57.872571 97.2407062,57.6978918 L96.541442,60.6367727 C96.7599279,60.6893407 96.9691048,60.7068634 97.1656873,60.6887931 C97.3628173,60.6696277 97.5413296,60.6176073 97.7028667,60.5299939 C97.8638563,60.4434757 98.0002046,60.3230073 98.1135544,60.1702315 C98.2263566,60.0174557 98.3073989,59.8334676 98.3594194,59.6177197 Z M94.3752015,69.8996958 C94.3505603,69.8564367 94.3341328,69.8164631 94.3270142,69.7814178 C94.319348,69.7463724 94.3264666,69.7053037 94.3478224,69.6587591 C94.3702733,69.6094766 94.4168179,69.5645747 94.4852658,69.5240535 C94.5542614,69.4840799 94.6320182,69.4315119 94.7218219,69.366897 C94.8116256,69.3022822 94.9074527,69.2163116 95.0076605,69.1084376 C95.1073207,69.0000161 95.1993148,68.8527161 95.2847378,68.6676329 C95.3986352,68.4201251 95.4555839,68.1819263 95.4550363,67.9535839 C95.4539411,67.724694 95.3997303,67.5094937 95.2929516,67.3063402 C95.1861728,67.1031867 95.030659,66.9153655 94.8264104,66.7428767 C94.6210666,66.5709355 94.3741064,66.4170645 94.0827919,66.2829066 C93.7794307,66.1427252 93.4941396,66.0534691 93.2263713,66.0145906 C92.9586029,65.9751646 92.7143807,65.9828308 92.4953473,66.0359464 C92.2768614,66.0896096 92.084112,66.1870794 91.9165515,66.3278084 C91.7495385,66.469085 91.6142853,66.6508827 91.5107921,66.8748444 C91.4116794,67.0900447 91.3569211,67.278961 91.3437791,67.4410457 C91.3317322,67.6031305 91.3344702,67.744407 91.3552783,67.8648754 C91.3760865,67.9842486 91.399085,68.0866467 91.4220835,68.1715222 C91.445082,68.2563976 91.4423441,68.3270359 91.4149649,68.3861749 C91.3821099,68.4590035 91.3273516,68.5022626 91.2534278,68.5159522 L90.8175513,68.6156124 C90.7321283,68.4442188 90.6735368,68.2668017 90.641777,68.0839088 C90.6100171,67.9010159 90.5985179,67.7164803 90.6083744,67.5270164 C90.6171357,67.3364573 90.6478004,67.1464458 90.6987257,66.9575295 C90.7491033,66.7691607 90.8164561,66.5835299 90.9002364,66.4022798 C91.0447985,66.0885144 91.2359051,65.8240316 91.4757467,65.6082836 C91.7150407,65.3925357 91.9915704,65.2353792 92.3020503,65.138457 C92.6136253,65.0420823 92.9542223,65.01087 93.3265791,65.0464629 C93.6983883,65.0809607 94.0888154,65.1926677 94.4984078,65.3815841 C94.8713122,65.5529777 95.1921962,65.7648925 95.4610597,66.0145906 C95.7304708,66.2648363 95.9341719,66.5435563 96.0716153,66.8491079 C96.2090588,67.1535644 96.2742213,67.4826621 96.269293,67.8336631 C96.262722,68.1857594 96.1729183,68.55045 95.9976916,68.9299254 C95.8356068,69.2836644 95.6351913,69.569503 95.3980876,69.786346 C95.1593412,70.0026415 94.8882873,70.1658214 94.5843785,70.2780761 L94.3752015,69.8996958 Z M88.3276889,71.6952223 L94.8406476,76.3967745 L94.2689703,77.1880327 L91.6339983,75.2862751 C91.6991608,75.6241341 91.7090173,75.954327 91.6635679,76.2757586 C91.6175708,76.5971901 91.484508,76.9093127 91.2654746,77.212674 C91.0891527,77.4574438 90.8925702,77.645265 90.6768223,77.7744947 C90.4599792,77.9026293 90.2321845,77.9760054 89.9934381,77.9935281 C89.7541441,78.0115984 89.5060887,77.9760054 89.2498196,77.8900348 C88.9935505,77.8035166 88.7389242,77.6688111 88.485393,77.4859182 L85.6335779,75.4275517 L86.2047076,74.6357459 L89.0570702,76.69466 C89.3960244,76.9394298 89.7152656,77.0527796 90.0142462,77.0330666 C90.3126793,77.0133536 90.5755194,76.8446979 90.8033141,76.5292897 C90.9741602,76.2938288 91.0749156,76.0348218 91.1088657,75.7522687 C91.1422683,75.4697156 91.1247457,75.1745681 91.054655,74.8679213 L87.7560117,72.4864805 L88.3276889,71.6952223 Z M82.8978506,78.7212666 L86.6811052,82.7465532 L86.2561804,83.1457416 C86.155425,83.2404736 86.0475511,83.2503301 85.9314634,83.1747636 L85.4643746,82.7898123 C85.4714932,83.1468368 85.4227583,83.4879813 85.3176222,83.8110556 C85.2119386,84.1346775 85.018094,84.429825 84.7344458,84.6959506 C84.5148648,84.9029372 84.2865224,85.0502372 84.0488712,85.1356602 C83.8128627,85.2199881 83.5752114,85.24901 83.336465,85.2210832 C83.0988137,85.1931565 82.8617101,85.111019 82.6267967,84.9779562 C82.3918834,84.8448934 82.1673741,84.6641908 81.9527214,84.436396 L79.544449,81.8731575 L80.2552124,81.204558 L82.66458,83.7677965 C82.9504186,84.0728006 83.2422806,84.2447418 83.5396185,84.2819775 C83.8364088,84.3197607 84.1271756,84.2042206 84.4102763,83.938095 C84.6227387,83.7376794 84.7716814,83.5038613 84.8581996,83.2322598 C84.9447178,82.961206 84.9830487,82.6677012 84.9731922,82.3539358 L82.1865396,79.3898661 L82.8978506,78.7212666 Z M77.1969583,90.4965031 C76.8558138,90.712251 76.5124789,90.8491469 76.1675013,90.9082859 C75.8219761,90.9668773 75.4863074,90.9531877 75.1610427,90.866122 C74.8352305,90.7796038 74.526941,90.6218997 74.2367217,90.3902719 C73.9465025,90.1580964 73.6858527,89.8580207 73.4547724,89.4922349 C73.222597,89.1231635 73.0632502,88.7595681 72.9800175,88.3987105 C72.8967848,88.0389481 72.8863807,87.6928753 72.9488053,87.3615873 C73.0101346,87.0302993 73.1431974,86.7225573 73.3458033,86.4378139 C73.5484092,86.1525228 73.8200107,85.9017296 74.1617028,85.6865293 C74.5055853,85.4691386 74.8505629,85.3306 75.1966357,85.2692706 C75.5427085,85.2084888 75.8783772,85.2194405 76.2041894,85.3065063 C76.5305492,85.3935721 76.8366484,85.5523713 77.1263201,85.7823564 C77.4154442,86.012889 77.6771891,86.3118697 77.9099121,86.6798458 C78.1409924,87.0461792 78.2981488,87.4114174 78.3824767,87.7728225 C78.4673522,88.1353228 78.4783038,88.4797529 78.4164269,88.8115885 C78.3550975,89.142329 78.2220347,89.4528088 78.0183337,89.7402902 C77.8146326,90.0277716 77.5413884,90.27966 77.1969583,90.4965031 Z M74.566367,86.3277496 C74.1047541,86.619064 73.8588891,86.9914208 73.8260341,87.4442724 C73.7937267,87.8965764 73.9514307,88.3987105 74.3002414,88.9523175 C74.6517901,89.5081148 75.0394792,89.8706151 75.4627613,90.0370805 C75.8860434,90.2040935 76.3290384,90.1422165 76.7901038,89.8509021 C77.0233744,89.7036021 77.2007914,89.535494 77.3245453,89.34603 C77.4477516,89.1565661 77.5194851,88.9495796 77.5391981,88.7267131 C77.5600062,88.503299 77.5298891,88.264005 77.4477516,88.008831 C77.3661617,87.7525619 77.2380271,87.4853412 77.063348,87.2082639 C76.7139897,86.6552045 76.3273957,86.2976325 75.9030184,86.1328098 C75.4791888,85.9690824 75.0334558,86.0326021 74.566367,86.3277496 Z M70.6599061,96.5817989 L67.4023316,89.2392513 L68.2894169,88.8455387 L71.5469914,96.1886339 L70.6599061,96.5817989 Z M62.2402616,96.6956963 C61.8460014,96.7838573 61.4763825,96.7975468 61.1319525,96.7367651 C60.7864273,96.6759833 60.4748522,96.5494915 60.1983226,96.3583848 C59.9206977,96.1672782 59.6830464,95.9153898 59.4881067,95.5983389 C59.2926194,95.2823832 59.1486049,94.9127643 59.0544205,94.4905774 C58.959141,94.065105 58.9317618,93.6686545 58.9744733,93.3012259 C59.0171849,92.934345 59.1245112,92.6046997 59.2942621,92.3128377 C59.464013,92.0220708 59.6923554,91.7778485 59.9792891,91.577433 C60.2662229,91.377565 60.6057247,91.2324553 60.9999849,91.1442944 C61.3969829,91.0561334 61.7687921,91.0413487 62.1154125,91.1004877 C62.4614853,91.1585316 62.7741555,91.282833 63.0512328,91.4733921 C63.3288576,91.6655939 63.5648661,91.9180299 63.7587107,92.2323429 C63.954198,92.5461082 64.1004028,92.9162747 64.1951348,93.3417471 C64.2893192,93.763934 64.3150556,94.1603845 64.2728917,94.5294558 C64.2301801,94.8985271 64.1244965,95.2281724 63.9552932,95.5189393 C63.7855423,95.8102537 63.5555572,96.0566663 63.2675283,96.2592722 C62.9794993,96.4618781 62.6378072,96.6069878 62.2402616,96.6956963 Z M61.1653551,91.8840798 C60.6325563,92.003453 60.2755318,92.2706737 60.0926389,92.6862896 C59.909746,93.101358 59.8894854,93.6275857 60.0324047,94.2666157 C60.1758716,94.9089312 60.4189987,95.3793055 60.761786,95.6793813 C61.1040257,95.9789095 61.541545,96.0692607 62.0732486,95.9504351 C62.3437549,95.8902009 62.5677165,95.7916359 62.7473239,95.65474 C62.9274789,95.5178441 63.0638272,95.3475456 63.1580116,95.143297 C63.2527435,94.9401435 63.3042164,94.7052301 63.3129777,94.4369142 C63.3222866,94.1685983 63.291622,93.8734507 63.2204361,93.553662 C63.0775168,92.9151796 62.8338421,92.4486384 62.4894121,92.1513005 C62.144982,91.8534151 61.7047249,91.764159 61.1653551,91.8840798 Z M52.6318132,97.9299496 C52.3919716,97.9343303 52.16801,97.9129745 51.9599282,97.8642396 C51.7518465,97.8155046 51.5612874,97.7410333 51.3887986,97.6424682 L49.8889673,97.6698474 L49.8823963,97.3095375 C49.8802059,97.1901642 49.9552249,97.1118598 50.1074531,97.0768144 L50.7327935,96.9777018 C50.6046589,96.7438837 50.5384013,96.4815911 50.5334731,96.1908243 C50.5279973,95.9219608 50.5745419,95.6771909 50.6736545,95.4554196 C50.7738623,95.2331007 50.9134961,95.041994 51.0925559,94.8820996 C51.2716157,94.7227528 51.4873636,94.5984514 51.7403472,94.5102904 C51.9933308,94.4221295 52.2687653,94.3750373 52.5671984,94.3695614 C52.8289433,94.3651808 53.0748083,94.3914648 53.305341,94.448961 C53.4197859,94.3739421 53.5057565,94.2945425 53.5632528,94.209667 C53.6223918,94.1247916 53.6514138,94.0432016 53.6503186,93.9627069 C53.6481283,93.8318344 53.5917272,93.7343645 53.4833056,93.6697497 C53.3754317,93.6040396 53.2341551,93.557495 53.0589284,93.5317586 C52.8837016,93.5060222 52.6838336,93.4912374 52.4604196,93.4879519 C52.2359103,93.4846664 52.0070204,93.4780954 51.7726546,93.4660486 C51.5371937,93.4540018 51.3083038,93.4293605 51.0837945,93.39322 C50.8592853,93.3576271 50.6599649,93.2957501 50.483643,93.2075892 C50.3078687,93.1205234 50.1638542,92.9973171 50.0537899,92.8390654 C49.943178,92.6813614 49.8867769,92.4749224 49.8823963,92.2208436 C49.8780156,91.9848351 49.9316788,91.75485 50.0461237,91.5308884 C50.1600211,91.3069267 50.3275817,91.1070587 50.5460675,90.9301892 C50.7645533,90.7538673 51.0323217,90.610948 51.3521105,90.5014313 C51.6724469,90.3919146 52.0349472,90.332228 52.4385162,90.325657 C52.8420853,90.3179908 53.1952767,90.3513934 53.498638,90.4258648 C53.8014516,90.5003361 54.0538877,90.6021867 54.2570412,90.7336067 C54.4590995,90.8644792 54.6107801,91.0178026 54.7142734,91.1924817 C54.8172191,91.3671609 54.8714299,91.5495062 54.875263,91.7422556 C54.8801912,92.0149522 54.7986013,92.2471276 54.6315883,92.4393295 C54.4645753,92.6315313 54.2340426,92.787045 53.941633,92.905323 C54.1070033,92.9743186 54.2378757,93.0701457 54.334798,93.1900665 C54.4306251,93.3105349 54.4810028,93.4731672 54.4853835,93.6801538 C54.4864787,93.760101 54.4733367,93.8438812 54.4459575,93.9298519 C54.4191259,94.0158225 54.3747716,94.1001503 54.3161802,94.1850258 C54.2575887,94.2699012 54.1864029,94.3509436 54.1009798,94.429248 C54.0150092,94.5070049 53.9142539,94.5760004 53.7992613,94.6367822 C54.0746958,94.7840822 54.2904437,94.9834026 54.4486954,95.2347434 C54.6058519,95.4866319 54.6868942,95.7801366 54.6934652,96.1147102 C54.6983935,96.3835737 54.6502061,96.6294387 54.5505459,96.8517576 C54.4508857,97.0735289 54.3107043,97.2629929 54.128359,97.4212445 C53.9454661,97.5789486 53.7258851,97.7010597 53.4707112,97.7892206 C53.2166324,97.8779292 52.9373648,97.9250214 52.6318132,97.9299496 Z M50.7738623,92.0461645 C50.7760526,92.18087 50.8165738,92.2892916 50.8937831,92.3714291 C50.9720875,92.4535666 51.0744856,92.5176339 51.2048105,92.5625358 C51.3351354,92.60689 51.4862684,92.6386499 51.6571145,92.655625 C51.8285082,92.6726 52.0086631,92.6835517 52.1997698,92.6912179 C52.3908765,92.6988841 52.5852686,92.7060026 52.7823987,92.7131212 C52.9784336,92.7207874 53.1678975,92.7350246 53.3502428,92.7569279 C53.5517536,92.6589105 53.715481,92.5378945 53.8414252,92.39388 C53.967917,92.249318 54.0308892,92.0801147 54.0270561,91.8829846 C54.0248657,91.7597783 53.9898204,91.6458809 53.9246579,91.5396497 C53.8584003,91.4334185 53.7609305,91.3425196 53.6278677,91.2669531 C53.4959,91.1913866 53.3299822,91.1322476 53.1301142,91.0906312 C52.9313414,91.0490149 52.6980708,91.0293018 52.4297549,91.0342301 C52.1674624,91.0391583 51.9336442,91.0670851 51.7272052,91.1180104 C51.5213138,91.1694832 51.3460871,91.2395739 51.2037153,91.3299252 C51.0618912,91.4191813 50.9551124,91.5248649 50.8806411,91.6464285 C50.8067173,91.7674445 50.7705768,91.9010548 50.7738623,92.0461645 Z M52.57815,95.0129721 C52.3821151,95.0168052 52.2101739,95.0474699 52.0623263,95.1044185 C51.9144788,95.1619148 51.7901773,95.2402193 51.6899695,95.340427 C51.5897617,95.4400873 51.515838,95.560008 51.4676506,95.6969039 C51.4189157,95.8343474 51.3964647,95.9843853 51.3992027,96.1475652 C51.4052261,96.4859718 51.5125525,96.752645 51.7211818,96.9486799 C51.9303587,97.1452624 52.2304345,97.2394468 52.6192188,97.2323282 C53.0118362,97.2252096 53.3080789,97.1200735 53.5101372,96.9163725 C53.7116479,96.7126714 53.810213,96.4416175 53.8041896,96.1032109 C53.8009041,95.940031 53.770787,95.7910883 53.7160286,95.6558352 C53.6607227,95.520582 53.5824182,95.4039467 53.4783774,95.307572 C53.3754317,95.2111973 53.2483923,95.1372736 53.0983544,95.0852531 C52.9483165,95.0332327 52.7752801,95.0096866 52.57815,95.0129721 Z M44.2521423,97.3675813 L44.987547,91.8922935 L45.9496513,92.0209756 L45.2142466,97.4962634 L44.2521423,97.3675813 Z M43.8162658,99.0585193 C43.8288602,98.9648825 43.8584298,98.8811022 43.9071647,98.8049881 C43.9558996,98.7283264 44.0161338,98.6637115 44.0878673,98.6095008 C44.1590531,98.5547424 44.2395479,98.5142212 44.3293516,98.4890324 C44.4186077,98.4643911 44.5116969,98.4583677 44.6047861,98.4715097 C44.6984229,98.4841041 44.7827508,98.5131261 44.8588649,98.5602183 C44.9355266,98.6073104 45.000689,98.666997 45.053257,98.7387305 C45.1063726,98.8099163 45.1452511,98.8882208 45.1698923,98.9741914 C45.1956288,99.060162 45.2016522,99.1494181 45.1890578,99.2430549 C45.1764633,99.3366917 45.1463462,99.4243051 45.0987065,99.5042523 C45.0516143,99.5841995 44.9930228,99.6515522 44.9234797,99.705763 C44.8539366,99.7605214 44.7750846,99.7999474 44.689114,99.8251362 C44.6031434,99.8503251 44.5144348,99.8563485 44.420798,99.8437541 C44.3271613,99.8311596 44.2390003,99.8010426 44.1596007,99.7534028 C44.0796535,99.7068582 44.0123007,99.6477192 43.9575424,99.5759857 C43.902784,99.5047999 43.8628104,99.4243051 43.8359788,99.335049 C43.8096948,99.2452453 43.8036714,99.1527036 43.8162658,99.0585193 Z M35.7153149,94.3712042 C35.7541934,94.3410871 35.7908815,94.3197313 35.8248317,94.3065893 C35.8593294,94.2939949 35.9003982,94.2945425 35.9496807,94.3087797 C36.0017011,94.3235644 36.0526264,94.363538 36.1030041,94.425415 C36.1528342,94.4872919 36.2158063,94.556835 36.2935632,94.6362346 C36.3707724,94.7150866 36.4698851,94.7977718 36.5914486,94.8804569 C36.7130122,94.9625944 36.8729065,95.0321375 37.0683939,95.0890862 C37.3295912,95.1657479 37.5732659,95.1871037 37.7988703,95.1531535 C38.0255699,95.1186557 38.2298186,95.0326851 38.4154494,94.897432 C38.6010802,94.7616312 38.7637125,94.5803811 38.9038939,94.3525863 C39.0440753,94.1247916 39.160163,93.8570232 39.2494191,93.5492813 C39.3430559,93.2283973 39.3896005,92.9332498 39.3890529,92.6627435 C39.3885053,92.3922373 39.3452462,92.1518481 39.2598232,91.9437664 C39.1744002,91.735137 39.0500987,91.5588151 38.8858236,91.4137055 C38.7215486,91.2691434 38.5222282,91.1618171 38.2845769,91.0928215 C38.0578773,91.0265639 37.8629376,91.0002799 37.7003053,91.0117792 C37.5382205,91.0227308 37.3985867,91.0462769 37.2830466,91.0846078 C37.1680541,91.1234862 37.0700366,91.1607219 36.9895418,91.1957672 C36.9090471,91.2313602 36.8389564,91.2395739 36.7759843,91.2209561 C36.6993226,91.1985052 36.6489449,91.1519606 36.623756,91.0802271 L36.4611237,90.663516 C36.6188278,90.5539993 36.7847456,90.4696715 36.9610675,90.4116276 C37.1373894,90.3530362 37.3186395,90.3147053 37.5075559,90.2960875 C37.6964722,90.2774696 37.8897692,90.2791124 38.0836138,90.3021109 C38.2774583,90.3240142 38.4707553,90.3628927 38.6629571,90.4187462 C38.9947928,90.5156685 39.2839169,90.6668015 39.5325198,90.8721454 C39.7811227,91.0769416 39.9771576,91.3271873 40.1189818,91.6201445 C40.2608059,91.9131017 40.3418483,92.2454849 40.3621089,92.6189369 C40.3818219,92.9923888 40.3287063,93.3948627 40.2022145,93.8274537 C40.0872219,94.2222615 39.9251372,94.5710722 39.717603,94.8733383 C39.5100689,95.1766996 39.265299,95.4192791 38.9827459,95.5999816 C38.701288,95.7812318 38.3858799,95.894034 38.0370692,95.940031 C37.688806,95.986028 37.3142589,95.9509827 36.9134277,95.8337998 C36.5399758,95.7248307 36.2273056,95.5698645 35.9787026,95.3661635 C35.7290045,95.16301 35.5274938,94.9182401 35.3719801,94.6345919 L35.7153149,94.3712042 Z M30.0063732,86.8479539 C30.0901535,86.8917606 30.1471022,86.9394004 30.1777669,86.9908732 C30.2089792,87.0417985 30.2160977,87.113532 30.2002178,87.2071687 L30.0578461,87.7175166 C30.2467624,87.6682341 30.4263698,87.6309984 30.5988586,87.6030716 C30.7707999,87.5762401 30.9400032,87.5663835 31.1064686,87.5729545 C31.272934,87.5795256 31.4421373,87.6069047 31.6124358,87.6523542 C31.7832818,87.6983512 31.9634368,87.769537 32.1507104,87.8664593 C32.3407219,87.9661195 32.5049969,88.0865879 32.6451783,88.2278645 C32.7853597,88.3674983 32.888853,88.5224644 32.9578485,88.6938581 C33.0262965,88.8647041 33.0542232,89.0508825 33.0416288,89.2518457 C33.029582,89.4528088 32.9666099,89.6641761 32.8505221,89.886495 C32.7497668,90.0792444 32.5991813,90.2385912 32.3998609,90.3623451 C32.1999929,90.486099 31.9453666,90.5539993 31.6343391,90.5682365 C31.3238592,90.5824737 30.9531452,90.5348339 30.5227445,90.4236745 C30.0928914,90.3119674 29.5962332,90.1170277 29.0316745,89.8388552 L28.8329017,90.2210685 C28.6346765,90.6016391 28.5667761,90.9329271 28.6286531,91.2138375 C28.6916252,91.4942003 28.8810891,91.7170668 29.1975924,91.8807942 C29.4106024,91.9925013 29.6011614,92.0587589 29.7720075,92.0806622 C29.9439487,92.102018 30.0983673,92.1069463 30.2380011,92.095447 C30.3770873,92.0839477 30.4986508,92.0713533 30.6015966,92.0576637 C30.7050898,92.0434266 30.7954411,92.056021 30.8699125,92.0948994 C30.9274088,92.1250165 30.9695727,92.1671804 30.9953091,92.2197485 C31.0215931,92.2717689 31.037473,92.3276224 31.0429489,92.3878566 L31.0539006,92.7443335 C30.647046,92.8642543 30.2533334,92.9064182 29.873858,92.8730156 C29.4932875,92.8390654 29.1132645,92.7229777 28.7326939,92.5242049 C28.4589022,92.3812856 28.2387736,92.209892 28.0734034,92.0089288 C27.9074855,91.8074181 27.7941357,91.5883846 27.733354,91.3518286 C27.6720246,91.1147249 27.6643584,90.8628365 27.7092603,90.5950681 C27.7541621,90.3272997 27.8483465,90.0567935 27.9912658,89.7824541 L29.6247075,86.6491811 L30.0063732,86.8479539 Z M31.5790332,88.3379288 C31.4273525,88.2585291 31.2806001,88.2032232 31.138776,88.1681779 C30.9969519,88.1331325 30.8551277,88.1145147 30.7143988,88.1128719 C30.5736698,88.1117768 30.4312981,88.1249188 30.286736,88.1544883 C30.1427215,88.1835102 29.9959692,88.224579 29.8459313,88.2765994 L29.316418,89.2929144 C29.7199871,89.486759 30.0731784,89.6313211 30.3776349,89.7266006 C30.6826389,89.8224277 30.9443838,89.8744482 31.1617745,89.8853998 C31.3797128,89.8958039 31.5565822,89.8678772 31.6929305,89.7994292 C31.8287313,89.7309813 31.9333197,89.6291307 32.0034104,89.4938776 C32.0707632,89.3651955 32.1079989,89.2430843 32.1145699,89.1275442 C32.1211409,89.0120041 32.1030706,88.9063205 32.0614543,88.808303 C32.0198379,88.7108331 31.9574134,88.6232198 31.8730855,88.5443677 C31.7887577,88.4655157 31.6918354,88.3970678 31.5790332,88.3379288 Z M20.5287974,90.2479001 L25.2303496,83.7343939 L26.0177747,84.3027857 L21.3151273,90.8157443 L20.5287974,90.2479001 Z M17.2980545,76.2407132 L10.7188383,80.8497239 L10.1586603,80.0502519 L12.8210115,78.1857299 C12.4798669,78.1358998 12.1644588,78.0367872 11.8764299,77.8889397 C11.5878533,77.7394494 11.3370601,77.511107 11.1218597,77.2050078 C10.9488233,76.9575001 10.8360211,76.7105399 10.7850959,76.4641273 C10.7347182,76.2177147 10.7407416,75.9784207 10.802071,75.7467929 C10.8634003,75.515165 10.9783929,75.2917509 11.1443107,75.0787409 C11.3096809,74.8646358 11.5205006,74.6686009 11.7762221,74.4895411 L14.6576067,72.4711481 L15.217237,73.2706201 L12.3364,75.289013 C11.9941603,75.5288546 11.7816979,75.7927899 11.7022983,76.081914 C11.6228987,76.3704905 11.6962749,76.6738518 11.9191414,76.9925454 C12.0856068,77.2312918 12.296974,77.4119944 12.5526955,77.5362959 C12.8089646,77.6611449 13.0937081,77.7410921 13.4058307,77.7755899 L16.7384241,75.4417888 L17.2980545,76.2407132 Z M7.05057613,70.1921054 L10.2709149,68.7640076 C10.6531282,68.5942567 10.9099449,68.3752233 11.0419125,68.1080025 C11.1738802,67.8402341 11.1601906,67.5281115 11.0013914,67.1688967 C10.8863988,66.9098897 10.7166479,66.6930466 10.4921387,66.5183675 C10.2676294,66.3436883 10.002599,66.2084352 9.69759496,66.1131557 L5.97402689,67.76412 L5.58031433,66.8770347 L10.6301297,64.637418 L10.8644955,65.1658361 C10.9208966,65.2923279 10.8946126,65.3991067 10.786191,65.4872677 L10.2736528,65.7977475 C10.6137022,65.9094546 10.9170635,66.069349 11.185927,66.2763356 C11.4547905,66.4827746 11.6683481,66.7620422 11.8244094,67.114686 C11.9465206,67.3901205 12.0078499,67.6535082 12.0100402,67.904849 C12.0122306,68.1567374 11.9629481,68.3911032 11.8605499,68.6073987 C11.7570566,68.8242418 11.6037333,69.0197291 11.3994846,69.196051 C11.1946884,69.3723729 10.9504661,69.5246011 10.6646275,69.6510929 L7.44374111,71.0797384 L7.05057613,70.1921054 Z M9.25459987,60.5267084 L3.86254477,61.7308446 L3.73550539,61.1613577 C3.70538829,61.0261046 3.75248047,60.9280871 3.87678194,60.8667578 L4.44572124,60.6619615 C4.1341462,60.485092 3.86583027,60.2698917 3.6418686,60.0141702 C3.41681177,59.7589963 3.26239321,59.4413978 3.17751776,59.0619224 C3.11126015,58.7673225 3.10140365,58.4962686 3.14849583,58.2482133 C3.1961356,58.0012531 3.2925103,57.7827673 3.43761994,57.5916606 C3.58327716,57.4011016 3.77438382,57.2395644 4.00874957,57.1048589 C4.24311533,56.9701533 4.51307401,56.8693979 4.81807804,56.80095 L8.25142683,56.0348806 L8.46388924,56.9871284 L5.03108804,57.7537454 C4.6231383,57.8446442 4.32580044,58.0083717 4.14235995,58.2449278 C3.95837189,58.4814839 3.91018453,58.790321 3.99505998,59.1697964 C4.05803209,59.4539922 4.18452389,59.7009524 4.37344021,59.9134148 C4.56290411,60.1269724 4.79507953,60.3098653 5.07106164,60.4609984 L9.04104229,59.5733655 L9.25459987,60.5267084 Z M7.83471576,50.1582141 C7.84292951,50.5940906 7.72738938,50.9303069 7.48754779,51.1696009 C7.24880137,51.4088949 6.89999066,51.5331964 6.44221082,51.5414101 L3.06143005,51.6038346 L3.07347689,52.2691486 C3.07457205,52.3266449 3.05759696,52.3759274 3.02364678,52.4164486 C2.99024419,52.4569698 2.93712859,52.477778 2.86484756,52.4794207 L2.477706,52.4865393 L2.34628595,51.5841216 L0.635634972,51.3913722 C0.581424202,51.3809681 0.534879601,51.357422 0.499834254,51.3196388 C0.464788908,51.2818555 0.447813818,51.2331206 0.446171067,51.1712436 L0.437409731,50.6800612 L2.34026253,50.646111 L2.31069302,49.0482623 L3.01433786,49.0351203 L3.04335979,50.6324214 L6.35843054,50.5721872 C6.59170112,50.5678066 6.76309477,50.5086676 6.87370665,50.393675 C6.98431852,50.2792301 7.03798171,50.1324777 7.03469621,49.9539654 C7.03305346,49.8521149 7.01662595,49.7639539 6.98815161,49.6905777 C6.95912968,49.6161064 6.92901258,49.5531343 6.89560999,49.4989235 C6.86165981,49.4447127 6.82989996,49.3976206 6.8019732,49.3609325 C6.77404644,49.3231492 6.76035685,49.2902942 6.75980927,49.2612723 C6.7587141,49.210347 6.78937878,49.1648976 6.85016055,49.1227336 L7.30848798,48.8314192 C7.46783479,48.9956942 7.593779,49.1950146 7.6868682,49.429928 C7.7799574,49.6648413 7.82978751,49.9074208 7.83471576,50.1582141 Z M2.46730191,43.6792057 L7.97270681,44.1369855 L7.89221203,45.1045656 L2.38680713,44.6473334 L2.46730191,43.6792057 Z M0.75610335,43.3287522 C0.850835303,43.3369659 0.935710751,43.3627024 1.0140152,43.4076042 C1.09231964,43.4519585 1.16076759,43.5089072 1.21881144,43.5773551 C1.27740288,43.6458031 1.32175715,43.7246551 1.35077907,43.8122685 C1.379801,43.900977 1.39075267,43.992971 1.38253892,44.0871554 C1.37487275,44.1813398 1.34968391,44.2667628 1.30642481,44.3450672 C1.26371329,44.4239193 1.2067646,44.4918196 1.13831666,44.5487683 C1.06986872,44.6046218 0.993207023,44.6478809 0.908331574,44.6769029 C0.824551293,44.70702 0.735842759,44.7179716 0.641658391,44.7097579 C0.547474022,44.7020917 0.458765489,44.6763553 0.376080374,44.6330962 C0.293942844,44.5898371 0.223852151,44.5350787 0.165808296,44.467726 C0.107216857,44.4003732 0.0639577573,44.3248067 0.0349358298,44.2393836 C0.00536631868,44.1550558 -0.00503776856,44.0668948 0.00262840099,43.9721629 C0.00974698699,43.8785261 0.0360309969,43.78927 0.0792900964,43.7071324 C0.122549196,43.6244473 0.17730755,43.5543566 0.246303076,43.4968603 C0.314751018,43.4388165 0.393055464,43.3944622 0.481763997,43.3627024 C0.569924947,43.3314901 0.662466565,43.3216336 0.75610335,43.3287522 Z M8.55807361,39.7809584 L3.25472704,38.2340349 L3.41790693,37.673857 C3.45678536,37.5413418 3.5454939,37.4783697 3.68348495,37.4849407 L4.28089859,37.5785775 C4.09307744,37.2746686 3.96220497,36.9565226 3.88882878,36.6241393 C3.81545258,36.2923037 3.83297526,35.9391123 3.94194438,35.5662079 C4.02681983,35.2759887 4.14838337,35.0334092 4.30882535,34.8395646 C4.46981491,34.6462676 4.6598264,34.5006104 4.8794074,34.4042357 C5.0989884,34.3073134 5.34430582,34.2574833 5.61426451,34.252555 C5.88477078,34.2481744 6.1700618,34.2897907 6.47013758,34.3774041 L9.84653768,35.3625069 L9.57329349,36.2988747 L6.19689339,35.3148671 C5.79551466,35.1976842 5.45656045,35.1971366 5.18167351,35.3159623 C4.90678657,35.4342403 4.71513234,35.6817481 4.60616321,36.0546525 C4.52457326,36.3344677 4.51581193,36.6120925 4.57823645,36.8897174 C4.64175614,37.1667946 4.75729627,37.4400388 4.925952,37.7045217 L8.83186538,38.844043 L8.55807361,39.7809584 Z M7.21594636,27.0326661 C7.32655823,26.8202037 7.45250245,26.6334777 7.59542175,26.4741309 C7.73779347,26.3142365 7.89440236,26.1828164 8.06360568,26.078228 L8.75629885,24.7486951 L9.07554006,24.914613 C9.18231885,24.9704665 9.21462627,25.0734122 9.17355751,25.2239976 L8.96054751,25.8203161 C9.2272207,25.8203161 9.48951321,25.8871213 9.74742506,26.0212793 C9.9856239,26.1461283 10.1783733,26.3038324 10.3256733,26.4965818 C10.4729732,26.690974 10.5742762,26.9050791 10.6290346,27.1388973 C10.6837929,27.3721679 10.6892687,27.6213184 10.6460096,27.8852536 C10.602203,28.1497365 10.5113041,28.4142193 10.373313,28.6787022 C10.2528447,28.91033 10.1115681,29.1140311 9.95112613,29.2887103 C9.96207781,29.4256061 9.99109973,29.5389559 10.0376443,29.6304024 C10.0841889,29.7223964 10.1422328,29.7875589 10.2134186,29.824247 C10.3289588,29.8855763 10.441761,29.8822908 10.5507301,29.8182235 C10.6596992,29.7541563 10.7681208,29.6528533 10.874352,29.5115768 C10.9805832,29.3697526 11.0895523,29.2016445 11.199069,29.0056096 C11.3085857,28.811765 11.4246734,28.6129922 11.5473322,28.4125766 C11.6705384,28.212161 11.8019585,28.0221495 11.9404971,27.8425421 C12.0795834,27.6629347 12.2290737,27.5172775 12.3906108,27.4044753 C12.5521479,27.2922207 12.7284698,27.2243203 12.9195765,27.2029646 C13.1112307,27.1816088 13.3193125,27.2308913 13.5449169,27.3486218 C13.7546414,27.4575909 13.9309633,27.6147474 14.0727874,27.8228291 C14.2146116,28.0303633 14.3104387,28.2718476 14.3608164,28.5483773 C14.4117416,28.8254546 14.4084561,29.1288159 14.352055,29.4622942 C14.2951063,29.7957726 14.1735428,30.142393 13.9873644,30.5005126 C13.8006384,30.8580847 13.6024132,31.152137 13.3915935,31.3826697 C13.1813214,31.61375 12.9705018,31.7862388 12.7585869,31.9012313 C12.5472197,32.0167714 12.3396855,32.0770056 12.1370796,32.0841242 C11.9344737,32.0906952 11.7482953,32.0512692 11.5774492,31.9625607 C11.3354173,31.8366165 11.1700471,31.6537236 11.0813386,31.4149771 C10.99263,31.1756831 10.966346,30.899701 11.0030341,30.5870308 C10.8628527,30.6981903 10.7161003,30.7671858 10.5638721,30.794565 C10.4127391,30.8224918 10.2457261,30.7885416 10.0622856,30.6927145 C9.99109973,30.6560264 9.92319937,30.6045535 9.86132243,30.5393911 C9.79889791,30.4742286 9.74578231,30.394829 9.69923771,30.302835 C9.65324069,30.2108409 9.61600501,30.109538 9.58807825,29.9972834 C9.56069907,29.8844811 9.54810465,29.7629176 9.55029498,29.6331403 C9.28909764,29.8039864 9.00983003,29.8987183 8.71413492,29.916241 C8.41734464,29.9343113 8.12110195,29.8658633 7.82485925,29.7114448 C7.58611283,29.5871433 7.39281584,29.4272489 7.24551587,29.2334043 C7.0982159,29.0401073 6.99855569,28.8260022 6.94763042,28.5899937 C6.89615757,28.3539852 6.89341965,28.1031919 6.9383215,27.8365187 C6.98212819,27.5709407 7.07466981,27.3037199 7.21594636,27.0326661 Z M13.2722203,28.2148989 C13.1528471,28.153022 13.0384021,28.1360469 12.9288854,28.1650688 C12.8193687,28.1940908 12.7147803,28.254325 12.6129297,28.3468666 C12.5116268,28.4394082 12.4108714,28.5571387 12.3144967,28.700058 C12.2175744,28.8413345 12.1211997,28.9946579 12.0237298,29.158933 C11.9251648,29.323208 11.8260522,29.4907686 11.7258444,29.6594243 C11.625089,29.8286276 11.5221433,29.9879744 11.4153645,30.1374647 C11.4049604,30.361974 11.4334348,30.5629372 11.4991448,30.7430921 C11.5654024,30.9226995 11.6853232,31.0590478 11.8589072,31.1499467 C11.9689715,31.207443 12.0856068,31.2309891 12.2099082,31.2238705 C12.3347573,31.2172995 12.4612491,31.174588 12.5910264,31.0946408 C12.7208037,31.0146936 12.8522237,30.8964155 12.9841914,30.741997 C13.1156114,30.5870308 13.2442935,30.3915435 13.3691426,30.1533447 C13.489611,29.9206217 13.5772243,29.7026834 13.6308875,29.496792 C13.6845507,29.2909006 13.706454,29.103627 13.6955024,28.9355189 C13.6845507,28.7685059 13.6429344,28.6239438 13.5722961,28.50019 C13.5011102,28.3775312 13.4009024,28.2822517 13.2722203,28.2148989 Z M9.802731,28.3813643 C9.89417745,28.2066852 9.94948338,28.0407674 9.96974397,27.8836109 C9.99055215,27.7264544 9.98069565,27.579702 9.94072205,27.4444489 C9.90074845,27.3086482 9.83120534,27.1859895 9.73428305,27.0786631 C9.6362656,26.969694 9.5163448,26.8782475 9.37123517,26.8032286 C9.07115939,26.6466197 8.78586836,26.6126695 8.51317176,26.7024732 C8.24102274,26.7917293 8.01487074,27.0107627 7.83471576,27.3551928 C7.65346561,27.7034559 7.60418309,28.0139358 7.68632062,28.2888227 C7.76900573,28.5631621 7.9595648,28.7794576 8.25964058,28.9355189 C8.40475022,29.0110854 8.54931228,29.0559873 8.6949695,29.0724148 C8.84007913,29.0888423 8.98026052,29.0751527 9.11441849,29.0307984 C9.24802887,28.985349 9.37397308,28.9092349 9.49115596,28.8024561 C9.60833884,28.6956773 9.71183213,28.5554959 9.802731,28.3813643 Z" id="Combined-Shape" fill="#E2061D"></path>
                    <path d="M43.1507875,22.918671 C43.1715957,21.5732582 43.7974837,17.0923821 42.1213305,16.4840168 C40.5634553,15.9178154 40.3115669,18.0906269 40.1188175,19.1704616 C39.3560336,23.4591359 39.2886808,29.8023436 39.3007277,34.2016298 C39.3083939,36.7599401 39.3215359,39.0652668 39.3248214,41.3229537 C33.2515723,43.3424418 27.6185805,45.1834176 25.2081177,45.9396305 C23.6321723,46.4340984 23.5138943,47.9465242 24.4091933,48.292597 C24.8844959,48.4771326 31.7347659,46.2961074 39.3231786,43.8182919 C39.3078463,49.581061 39.1895682,52.5582727 38.7011237,62.1278427 C35.1007619,63.3204796 29.1348393,64.5749935 25.7014905,65.7161576 C24.3161041,66.1772229 23.7384035,66.2861921 24.0768101,67.6869108 C24.0932376,67.7564539 24.1211644,67.8188784 24.1584001,67.8747319 C24.1797558,67.9207289 24.2038495,67.9661784 24.2312287,68.0143657 C24.3823618,68.2618735 24.5356851,68.4201251 24.767313,68.5926139 C24.9491107,68.724034 25.1161237,68.8165756 25.3192772,68.9124027 C27.4345924,69.8257721 30.5043457,70.1439181 32.691942,70.7238091 C33.1995519,70.8700139 33.7033287,71.0463358 34.1956064,71.2352521 C35.1922084,71.6568914 36.0716276,72.0577226 36.9280482,72.7345358 C37.2122441,72.9557596 37.5353184,73.1632937 37.8321086,73.3719231 C37.9952885,73.4841777 38.2679851,73.7437323 38.5959877,74.0755679 C38.6332233,75.9702069 38.7180988,77.6485505 38.8604705,78.7004585 C39.0521248,80.1247233 39.371366,81.4613747 41.0973493,81.4854683 C43.8599082,81.5248944 43.3889864,75.8371441 42.7691218,74.131969 C42.4197635,73.1698647 42.0966892,73.4792494 41.9691023,72.247734 C41.8628711,71.2188246 41.9055826,68.3779612 42.1399483,63.9863412 C43.9918759,63.2142484 51.5414101,60.6351299 59.2601477,58.0532736 C59.2141507,63.7114543 59.2223644,69.3559454 59.1259897,75.2912034 C59.1051815,76.6366161 58.8051058,81.1903208 61.2878495,81.4854683 C63.7700457,81.7806159 63.8844907,76.4936968 63.6829799,75.4155048 C62.8621522,71.0129332 62.909792,68.3691998 62.8977451,63.9704613 C62.890079,61.4116034 62.8769369,59.1068243 62.8736514,56.8491374 C68.9469005,54.8301968 74.5798923,52.989221 76.9903551,52.2330081 C78.5663005,51.7379926 78.6845785,50.2261144 77.7892795,49.8794941 C77.3145245,49.6949584 70.4631593,51.8759837 62.8752942,54.3537992 C62.890079,48.59103 63.0094522,45.6143659 63.4973491,36.044796 C67.0977109,34.8510638 73.0723949,33.5680756 76.5046485,32.4269115 C77.8900348,31.9663938 78.4688306,31.8574246 78.1298764,30.4572535 C77.8423951,29.2662593 74.4446392,30.1084428 72.7860087,30.5804598 C70.2134612,31.312579 65.5759762,32.8146007 63.4683272,33.361089 C63.5121339,32.0551023 63.7147398,23.4487318 63.3703097,18.9382862 C63.1655135,16.2573172 62.9316953,16.1680611 62.0413245,16.2556745 C59.6018398,16.495516 60.2019914,31.5031381 60.0579769,34.1857498 C58.2065969,34.9583902 50.6570627,37.5369611 42.9383251,40.1182699 C42.9843221,34.4611844 43.0549604,28.8544765 43.1507875,22.918671 M59.2842413,55.529461 C51.5364819,58.0713438 43.9327368,60.5880378 42.2543933,60.9576566 C42.6880795,52.5221322 42.8446883,48.7876125 42.9142315,42.6431776 C50.6625385,40.1007472 58.2662836,37.5846009 59.9440795,37.2144344 C59.5103934,45.651054 59.3537845,49.3850261 59.2842413,55.529461 M28.1064774,67.825997 C27.2078928,67.0692365 35.570041,65.630187 38.7301456,64.811002 C38.6337709,66.561079 38.5751795,68.9419722 38.5713464,71.2938435 C37.4362057,70.4445415 36.3519903,69.8909345 34.9408675,69.343351 C34.0888276,69.0268477 33.3046879,68.8006957 32.4471721,68.5362128 C31.3892407,68.2082103 29.1441482,68.1676891 28.1064774,67.825997" id="Fill-5" fill="#211346"></path>
                </g>
            </g>
        </g>
    </g>
</svg>