<?xml version="1.0" encoding="UTF-8"?>
<svg width="280px" height="58px" viewBox="0 0 280 58" version="1.1" xmlns="http://www.w3.org/2000/svg" xmlns:xlink="http://www.w3.org/1999/xlink">
    <!-- Generator: Sketch 50.2 (55047) - http://www.bohemiancoding.com/sketch -->
    <title>logotype</title>
    <desc>Created with Sketch.</desc>
    <defs></defs>
    <g id="Page-1" stroke="none" stroke-width="1" fill="none" fill-rule="evenodd">
        <g id="T.-Hunter---LandingPage" transform="translate(-130.000000, -48.000000)">
            <g id="1-/-Hero_1">
                <g id="logotype" transform="translate(130.000000, 48.000000)">
                    <path d="M53.4616145,18.149629 C53.0559518,17.073687 52.6393253,16.0885275 52.178,15.1294261 C51.7141446,14.1694841 51.2013735,13.2288754 50.6025783,12.2462377 C49.6740241,10.8004406 48.7353494,9.50258551 47.6499277,8.34090435 C46.5695663,7.18426667 45.3433012,6.16128116 43.8370361,5.26270145 C42.3999277,4.48348406 41.0707711,3.90852754 39.6969157,3.47226667 C38.3230602,3.03684638 36.8994458,2.73928116 35.2751084,2.51736812 C33.5841446,2.33244058 32.0711325,2.27107826 30.5699277,2.34673043 C29.071253,2.42238261 27.5776386,2.63504928 25.9246265,2.99481739 C23.667759,3.55212174 21.6428193,4.29267246 19.8253494,5.32406377 C18.011253,6.35377391 16.3987229,7.67768696 14.9641446,9.40423768 C14.6006506,9.83965797 14.3029398,10.2061507 14.0069157,10.5692812 C13.3743855,11.3459768 12.7629398,12.0966145 12.2341446,12.6799768 C11.9398072,13.0069623 11.6699277,13.2801507 11.4388434,13.4743246 C11.1773976,13.6937159 10.9463133,13.8240058 10.7548675,13.8332522 L10.6342651,13.8399768 L10.5575181,13.7449913 C10.3939036,13.541571 10.3441446,13.2751072 10.3871566,12.961571 C10.4284819,12.6665275 10.554988,12.3218899 10.744747,11.9486725 C10.9901687,11.4670203 11.3452289,10.925687 11.7643855,10.3641797 C12.2375181,9.73038261 12.7907711,9.07136812 13.3566747,8.44513623 C15.0265542,6.59754203 16.8052289,5.11896232 18.7905301,3.93290435 C20.7741446,2.74768696 22.9618554,1.85667246 25.4506506,1.18336812 L25.458241,1.18252754 C27.2276386,0.758875362 28.8300482,0.499136232 30.4442651,0.38986087 C32.0576386,0.280585507 33.6861928,0.320092754 35.5078795,0.492411594 L35.5146265,0.492411594 C37.2924578,0.70844058 38.8552289,1.01441159 40.3716145,1.47504928 C41.8888434,1.93652754 43.3537831,2.5509913 44.9367952,3.38652754 L44.9452289,3.39073043 C46.6581205,4.38345507 48.048,5.50142609 49.2717349,6.77490435 C50.4929398,8.04502029 51.5488434,9.46728116 52.5988434,11.0727884 L52.6013735,11.0778319 C53.2516145,12.1226725 53.8090843,13.1204406 54.3125783,14.1392232 C54.8152289,15.1580058 55.2681205,16.2045275 55.7092048,17.3426725 L55.7108916,17.3460348 C56.0406506,18.2303246 56.3273976,19.0826725 56.5829398,19.9434261 C56.8376386,20.801658 57.0628193,21.6708174 57.2694458,22.5912522 L57.2711325,22.5946145 C57.7383614,24.8498899 58.0141446,26.891658 58.0773976,28.9401507 C58.1406506,30.9886435 57.9913735,33.0421797 57.6076386,35.3209913 L57.6059518,35.3293971 C57.1378795,37.6031652 56.5340241,39.5432232 55.6484819,41.3538319 C54.761253,43.1652812 53.591494,44.8447594 51.9924578,46.5940058 L51.9865542,46.5998899 C50.504747,48.1137739 49.1013735,49.4217159 47.5984819,50.6203826 C46.0972771,51.8182087 44.4999277,52.9033971 42.6318554,53.9742957 L42.6259518,53.977658 C40.8835422,54.9174261 39.2937831,55.6420058 37.638241,56.1967884 C35.9843855,56.751571 34.2689639,57.1373971 32.2752289,57.399658 L32.2684819,57.4004986 C30.2367952,57.6047594 28.454747,57.621571 26.6904096,57.4433681 C24.9260723,57.2643246 23.1828193,56.8919478 21.2278795,56.3169913 L21.2211325,56.3153101 C19.0039036,55.5949333 17.0987229,54.7829333 15.2829398,53.8120638 C13.4696867,52.8420348 11.744988,51.7139768 9.8853494,50.3614841 L9.87775904,50.3564406 C7.89077108,48.8030493 6.36004819,47.2328464 5.09920482,45.4802377 C3.83920482,43.7293101 2.84992771,41.7968174 1.94498795,39.5163246 L1.94245783,39.5079188 C1.08390361,37.0862087 0.536554217,34.8738029 0.248963855,32.6294551 C-0.0394698795,30.3859478 -0.0664578313,28.1163826 0.111493976,25.5820348 L0.113180723,25.5727884 C0.495228916,21.9431652 1.2433012,18.5589913 2.54968675,15.4169043 C3.85775904,12.2697739 5.72583133,9.36557101 8.34787952,6.69588986 C9.75293976,5.26606377 11.4683614,3.69754203 12.9670361,2.72583188 C14.1637831,1.94997681 15.2458313,1.54986087 15.9728193,1.87768696 L16.1246265,1.94493333 L16.1128193,2.10968696 C16.107759,2.19122319 15.7459518,2.58881739 15.1716145,3.21336812 C14.0457108,4.43809275 12.0426988,6.61435362 10.4200482,8.40983188 C8.00125301,11.0853971 6.29848193,13.6458029 5.10679518,16.4281217 C3.91426506,19.2129623 3.22775904,22.2256 2.8440241,25.8073101 C2.6753494,28.1441217 2.69559036,30.2354841 2.95366265,32.2999478 C3.21173494,34.3610493 3.70848193,36.3969333 4.4919759,38.6219478 C5.29571084,40.659513 6.17028916,42.3885855 7.28438554,43.9529043 C8.39679518,45.515542 9.75125301,46.9184696 11.5164337,48.3045855 C13.2411325,49.5654551 14.8426988,50.6203826 16.5243855,51.5265275 C18.2060723,52.433513 19.971253,53.1942377 22.0265542,53.8683826 C23.7866747,54.3903826 25.3536627,54.731658 26.934988,54.8964116 C28.5188434,55.0620058 30.121253,55.0519188 31.9530602,54.8728754 C33.7561928,54.6400348 35.3071566,54.2937159 36.8033012,53.7952522 C38.2994458,53.2967884 39.7441446,52.6411362 41.3339036,51.7904696 C43.0830602,50.7952232 44.5800482,49.7823246 45.9876386,48.6651942 C47.3960723,47.5472232 48.7167952,46.3233391 50.1117349,44.9061217 C51.5454699,43.3502087 52.5895663,41.8548174 53.3806506,40.2459478 C54.1717349,38.6362377 54.7131807,36.9054841 55.1416145,34.8738029 C55.5076386,32.7614261 55.6535422,30.8566725 55.6029398,28.9586435 C55.5531807,27.0631362 55.3052289,25.1651072 54.8835422,23.0644986 C54.6954699,22.2037449 54.4905301,21.3883826 54.2569157,20.5814261 C54.0266747,19.7803536 53.7643855,18.9818029 53.4616145,18.149629" id="Fill-6" fill="#EB0029"></path>
                    <path d="M25.4956024,13.5338377 C25.4829518,13.7280116 25.471988,13.895287 25.4711446,13.9986783 C25.4365663,16.1009681 25.4264458,18.0536348 25.4171687,20.0096638 L25.4011446,22.7583594 C27.5306627,22.0421855 29.6171687,21.3327362 31.2533133,20.7645043 C32.5656024,20.3080696 33.5886145,19.9407362 34.1081325,19.7339536 C34.1165663,19.4246203 34.1140361,18.9438087 34.1123494,18.3579246 C34.0996988,15.5108812 34.0769277,10.2967652 35.3377711,10.1732 C35.6734337,10.1395768 35.8876506,10.1437797 36.0630723,10.4564754 C36.1878916,10.6767072 36.2545181,11.0768232 36.3118675,11.8350261 C36.3793373,12.7294029 36.4139157,13.911258 36.428253,15.0821855 C36.4493373,16.7540986 36.4299398,18.3965913 36.4139157,19.1405043 C37.0135542,18.9749101 37.7607831,18.7454319 38.5181325,18.5125913 C39.2012651,18.303287 39.8936747,18.0897797 40.4654819,17.9275478 C40.9166867,17.7980986 41.6074096,17.6173739 42.2121084,17.5501275 C42.9137952,17.4736348 43.5125904,17.5576928 43.6272892,18.0343014 C43.8499398,18.9623014 43.5193373,19.0715768 42.7071687,19.3388812 L42.5992169,19.3741855 C41.671506,19.6835188 40.5776506,19.959229 39.471988,20.2374609 C38.4101807,20.5030841 37.3374096,20.7729101 36.4130723,21.0713159 C36.2874096,23.5754029 36.2081325,25.6096058 36.1600602,27.3949971 C36.1136747,29.097171 36.0951205,30.5749101 36.0892169,32.0173449 C37.9792169,31.3986783 39.6263253,30.8657507 40.8694578,30.4858087 C42.2078916,30.077287 43.071506,29.8620986 43.2545181,29.9335478 C43.4054819,29.9923884 43.5227108,30.0940986 43.5986145,30.2210261 C43.6829518,30.3588812 43.7192169,30.5261565 43.701506,30.6993159 C43.6846386,30.8615478 43.6205422,31.0313449 43.505,31.1843304 C43.358253,31.3776638 43.1288554,31.5483014 42.8109036,31.6483304 C42.1648795,31.8517507 41.2565663,32.1467942 40.1053614,32.5258957 C38.8588554,32.9369391 37.5406627,33.3757217 36.0883735,33.8598957 L36.1010241,37.9409101 C36.105241,40.0499246 36.1077711,41.4309971 36.5176506,43.6366783 C36.5623494,43.8762435 36.581747,44.4654899 36.5075301,45.0807942 C36.4543976,45.5263014 36.3523494,45.9928232 36.1777711,46.3694029 C35.9846386,46.787171 35.6987349,47.0973449 35.2896988,47.1738377 C35.188494,47.1914899 35.0813855,47.1956928 34.9709036,47.1822435 C33.515241,47.0082435 33.5742771,44.7193449 33.5978916,43.7787362 L33.6021084,43.607258 C33.6358434,41.5100116 33.6459639,39.4833739 33.655241,37.4777507 L33.6712651,34.6685333 C31.5442771,35.3830261 29.4603012,36.0907942 27.825,36.6598667 C26.5076506,37.1179826 25.4821084,37.4853159 24.9625904,37.6929391 C24.9060843,38.7756058 24.871506,39.6733449 24.858012,40.3701855 C24.841988,41.1401565 24.8495783,41.6739246 24.878253,41.9504754 C24.911988,42.2757797 24.9718675,42.3539536 25.0443976,42.4497797 C25.1194578,42.5498087 25.2046386,42.6607652 25.2931928,42.9070551 C25.4407831,43.3130551 25.5731928,44.1099246 25.5622289,44.8916638 C25.5554819,45.3657507 25.4964458,45.8398377 25.3581325,46.2265043 C25.2063253,46.6518377 24.9566867,46.9813449 24.5771687,47.1183594 C24.4548795,47.1629101 24.318253,47.1847652 24.1706627,47.1830841 C23.611506,47.1746783 23.2758434,46.9477217 23.0624699,46.6030841 C22.868494,46.2903884 22.7925904,45.8885913 22.7377711,45.4775478 C22.7006627,45.1976348 22.6694578,44.841229 22.6466867,44.4335478 C22.6230723,44.0267072 22.6070482,43.5593449 22.5960843,43.0575188 L22.4316265,42.8986493 C22.3700602,42.8406493 22.3203012,42.7977797 22.288253,42.7759246 L22.1313855,42.6674899 C22.0158434,42.5876348 21.8986145,42.5077797 21.7906627,42.4228812 C21.5730723,42.2514029 21.3521084,42.1135478 21.1227108,41.9916638 C20.888253,41.8680986 20.6411446,41.7596638 20.3796988,41.6487072 C20.2599398,41.6033159 20.1325904,41.5554029 19.9959639,41.5083304 C19.8694578,41.4646203 19.7387349,41.4225913 19.6054819,41.3839246 C19.1972892,41.2763304 18.7224699,41.1838667 18.2324699,41.0872 C17.3292169,40.9115188 16.3745181,40.7257507 15.6188554,40.3979246 L15.6121084,40.3945623 C15.5513855,40.3668232 15.4965663,40.3382435 15.441747,40.307142 C15.385241,40.2743594 15.3321084,40.2390551 15.2781325,40.201229 L15.274759,40.1978667 C15.2005422,40.1423884 15.1381325,40.0885913 15.0833133,40.0297507 C15.0268072,39.9683884 14.9762048,39.901142 14.9264458,39.8196058 C14.8977711,39.7708522 14.8716265,39.7170551 14.8454819,39.6674609 C14.8328313,39.6363594 14.8218675,39.6060986 14.8142771,39.5749971 C14.5933133,38.6478377 14.9230723,38.5377217 15.7335542,38.271258 L15.8440361,38.2342725 C16.7624699,37.9283014 18.0131928,37.6080406 19.2774096,37.2844174 C20.4876506,36.9742435 21.7113855,36.6607072 22.658494,36.3538957 C22.785,33.8506493 22.8634337,31.8147652 22.9123494,30.0302145 C22.9587349,28.3288812 22.9772892,26.8494609 22.9831928,25.4078667 C21.0687349,26.0340986 19.258012,26.6199826 17.8639157,27.0478377 C16.3568072,27.5101565 15.321988,27.7808232 15.1389759,27.7085333 C14.988012,27.6496928 14.8707831,27.5479826 14.7940361,27.4210551 C14.7096988,27.2823594 14.6742771,27.1150841 14.6911446,26.9427652 C14.708012,26.7813739 14.7729518,26.6124174 14.888494,26.4585913 C15.0343976,26.265258 15.2637952,26.0937797 15.581747,25.9937507 C16.2277711,25.791171 17.3030723,25.4423304 18.6221084,25.0094319 C19.9824699,24.5630841 21.4929518,24.0629391 22.9848795,23.5669971 L22.9722289,19.9054319 C22.9688554,18.7185333 22.9654819,17.3088812 23.0143976,15.9118377 C23.0641566,14.5013449 23.1662048,13.0984174 23.371988,11.9367362 L23.3930723,11.8148522 C23.4360843,11.5643594 23.4892169,11.249142 23.5912651,10.9717507 C23.7810241,10.4564754 24.1133133,10.0723304 24.7618675,10.3085333 C25.681988,10.6439246 25.5630723,12.4873159 25.4956024,13.5338377 M32.6254819,33.1554899 L33.6889759,32.8058087 C33.7083735,31.2003014 33.7378916,29.5233449 33.7901807,27.7085333 C33.8424699,25.9088522 33.9175301,23.9721565 34.0246386,21.8362435 C32.8675301,22.1539826 29.7681325,23.175287 26.4199398,24.2789681 L25.3842771,24.6194029 C25.3648795,26.2257507 25.3345181,27.9018667 25.2822289,29.7175188 C25.2299398,31.5180406 25.1557229,33.4530551 25.0486145,35.5889681 C26.2023494,35.2720696 29.2874096,34.2558087 32.6254819,33.1554899 M21.0788554,38.6318667 C19.7834337,38.9117797 18.3269277,39.2261565 17.6918675,39.4615188 C17.9103012,39.4976638 18.165,39.5270841 18.418012,39.5556638 C18.8624699,39.6060986 19.3060843,39.6565333 19.6063253,39.7498377 L19.8677711,39.8313739 C20.2321084,39.9423304 20.5795783,40.0499246 20.9557229,40.1894609 L20.958253,40.1903014 C21.3445181,40.3407652 21.6877711,40.4929101 22.0133133,40.6660696 C22.2089759,40.7694609 22.3970482,40.881258 22.5825904,41.0039826 C22.5868072,40.5240116 22.5943976,40.0490841 22.6053614,39.5985333 C22.6163253,39.1244464 22.631506,38.677258 22.6500602,38.2813449 C22.2056024,38.3880986 21.6574096,38.5074609 21.0788554,38.6318667" id="Fill-1" fill="#FFFFFF"></path>
                    <path d="M85.6218072,13.9549681 C84.8433735,19.6784754 82.1859036,44.0166203 82.6514458,52.1265333 C82.7054217,53.0780696 82.6522892,55.0475478 84.0404819,55.0475478 C86.8286747,55.0475478 86.7704819,52.845229 85.7204819,52.0845043 C85.5619277,51.9701855 85.4210843,51.6457217 85.4463855,50.525229 C85.729759,38.625142 86.6937349,24.6698377 87.3287952,13.2959536 C94.6543373,10.0118087 98.9108434,8.10957681 107.524217,5.5458087 C112.887229,3.94954783 117.657349,4.51525797 115.817952,2.88453333 C111.721687,-0.744249275 84.0624096,12.5310261 74.046506,16.0681855 C72.9593976,16.5800986 66.8187952,18.6143014 67.4749398,19.6330841 C68.3098795,20.9300986 83.3396386,14.7820986 85.6218072,13.9549681 M124.67506,34.7584754 C124.636265,37.4987652 123.97506,40.9241275 124.24494,43.5904464 C121.388434,41.5907072 111.540361,40.9569101 111.58759,40.0020116 C111.643253,38.8705913 122.770723,35.3098957 124.67506,34.7584754 M149.106747,46.4769971 C148.550964,46.7754029 148.646265,47.3654899 149.035904,47.8925333 C151.648675,51.4196058 155.730602,54.8483304 159.692771,55.0315768 C162.936386,55.1828812 166.148795,54.2422725 168.603855,51.8575478 C169.372169,51.1102725 169.941446,50.6328232 170.616988,49.7678667 C170.961928,49.3257217 170.977952,49.4459246 171.344819,49.8855478 C172.174699,50.8799536 171.791807,53.4109391 172.170482,54.5078957 C172.864578,56.5202435 176.912771,53.3319246 172.541566,46.7417797 C172.331566,46.4265623 172.016145,45.9213739 171.597831,45.9003594 C170.222289,45.8297507 169.281084,47.5756348 168.483253,48.4868232 C166.127711,51.1758377 163.474458,53.045287 160.048675,52.945258 C156.931566,52.8544754 153.181928,48.9768812 151.253133,47.1729971 C150.508434,46.4761565 150.019277,45.9886203 149.106747,46.4769971 M102.690843,55.7166493 C103.865663,55.6536058 104.52012,55.6586493 105.296024,52.2156348 C104.418916,51.7079246 102.55759,50.2184174 101.525301,51.9693449 C100.858193,53.0999246 101.574217,55.7166493 102.690843,55.7166493 M204.871446,55.0273739 C207.183976,54.6844174 205.916386,52.8704464 204.264217,52.1433449 C201.255904,50.7614319 199.322048,47.6823884 196.56759,46.4761565 C192.312771,44.615113 189.463012,45.817142 186.278434,49.0710261 C185.467108,49.9006783 184.794096,50.6529971 184.076386,51.617142 C183.756747,52.0449971 183.918675,52.1105623 183.422771,51.4742435 C182.703373,50.5521275 183.265904,48.7078957 183.026386,47.6042145 C182.737108,46.2710551 181.260361,46.3677217 180.936506,47.6454029 C180.618554,48.8953449 180.74253,50.8555768 181.272169,52.3408812 C181.703976,53.5529971 182.465542,54.9618087 183.662289,55.0072 C185.178675,55.0643594 185.705783,53.2142435 186.517952,52.3484464 C188.696386,50.0208812 192.239398,47.2360406 195.531928,48.7658957 C198.046024,49.9343014 202.256988,55.4157217 204.871446,55.0273739 M262.454458,51.8121565 C262.377711,51.8096348 262.314458,51.3994319 262.288313,51.2489681 C262.214096,50.8261565 262.071566,49.1180986 261.799157,48.0287072 C261.353012,46.2458377 259.483253,46.5299536 259.597952,49.1307072 C259.674699,50.8370841 260.082892,55.0668812 262.304337,55.0475478 C265.794217,55.0189681 263.650361,47.6916348 269.936024,47.2343594 C273.07,47.0065623 278.772048,49.7056638 279.263735,48.675113 C280.084337,46.9485623 274.028916,45.0118667 270.91012,45.1530841 C262.289157,45.5464754 263.299518,51.8466203 262.454458,51.8121565 M231.390482,50.0973739 C232.735663,48.5599536 237.130482,48.0026493 239.238916,47.7160116 C241.321205,47.4327362 246.055904,47.3789391 246.276867,48.4716928 C246.454819,49.1416348 242.856988,49.2584754 240.901205,49.2567942 C240.074699,49.2559536 239.301325,49.2601565 239.438795,50.2596058 C239.631928,51.6574899 241.802771,51.205258 242.823253,51.1254029 C244.345542,51.0043594 249.229518,50.4958087 249.49012,48.5330551 C249.652048,47.3100116 247.298193,46.2290261 246.023012,45.9524754 C242.236265,45.1354319 228.163735,45.7978087 228.481687,51.5053449 C228.863735,55.9570551 235.966627,55.0105623 239.028072,54.8634609 C241.493253,54.7440986 244.052892,54.4608232 246.539157,54.4717507 C248.781687,54.4809971 251.02,54.8348812 253.264217,54.9710551 C254.414578,55.0408232 255.211566,54.5700986 255.202289,53.8118957 C255.193012,53.0301565 253.891687,52.7376348 253.226265,52.6443304 C250.32759,52.2416928 244.881928,52.3165043 243.064458,52.497229 C240.353012,52.7670551 237.066386,53.0469681 234.348193,53.0209101 C233.135422,53.0099826 229.658193,52.0786203 231.390482,50.0973739 M218.954096,12.6344174 C218.96759,11.7165043 219.392651,8.65847536 218.254096,8.24406957 C217.194819,7.8574029 217.023614,9.34018551 216.892048,10.0773739 C216.373373,13.0025913 216.380964,17.1256348 216.389398,20.1281855 C216.409639,26.9889971 216.491446,32.8243014 215.981205,42.8448522 C213.534578,43.6593739 210.77506,44.1561565 208.442289,44.9345333 C207.500241,45.2480696 207.107229,45.3220406 207.336627,46.2777797 C207.533133,47.0906203 209.842289,46.5156638 210.96988,46.1945623 C212.719036,45.6944174 214.569398,45.0480116 216.002289,44.6756348 C215.853855,47.3688522 215.834458,52.2543014 216.09,54.1514899 C216.220723,55.1232 216.43747,56.035229 217.610602,56.0520406 C219.489639,56.0789391 219.169157,52.1979826 218.748313,51.0346203 C218.508795,50.3781275 218.290361,50.5899536 218.203494,49.7493739 C218.130964,49.0474899 218.159639,47.109113 218.31988,44.113287 C220.776627,43.0844174 226.697952,40.9770841 230.718313,39.7128522 C231.789398,39.3740986 231.870361,38.3435478 231.261446,38.1065043 C230.561446,37.8341565 220.845783,41.5058087 218.39747,42.0463014 C219.009759,30.0789681 218.80988,21.5823884 218.954096,12.6344174 M142.020723,29.7309681 C146.003976,28.3776348 153.129639,26.3400696 155.703614,25.3860116 C156.906265,24.9396638 156.697952,24.6547072 156.51747,24.4294319 C156.291446,24.1486783 155.794699,24.0074609 154.516988,24.3260406 C151.965783,24.9632 147.035422,26.2593739 142.120241,27.6143884 C142.731687,21.2335478 140.827349,12.1494029 141.781205,6.38891014 C141.993735,5.10618551 140.015181,4.5018087 139.711566,6.07201159 C139.516747,7.07734493 139.429036,8.78204058 139.416386,9.13928696 C139.203855,15.2200406 140.428434,22.3086493 140.053133,27.9934899 C136.682169,28.9685623 130.14012,30.9103014 127.000241,31.6853159 C127.745783,25.2616058 128.261928,18.841258 128.209639,12.4587362 C128.181807,8.99134493 126.333133,10.2143884 126.300241,11.7694609 C126.154337,18.5605043 125.546265,25.5457217 124.714699,32.435113 C120.237229,34.0700406 108.252048,38.0695188 107.902048,40.075142 C107.675181,41.3755188 109.514578,41.5738957 110.67506,41.8697797 C113.974337,42.7103594 118.433253,43.2676638 122.397952,44.9740406 C125.805181,46.4408522 124.357952,51.8449391 124.53253,54.8332 C124.627831,56.473171 125.015783,57.9996638 127.026386,57.9996638 C128.374096,57.9189681 128.93494,56.2033449 128.820241,53.6370551 C128.645663,49.7418087 128.478675,47.245287 126.441928,44.7849101 C126.441928,42.1833159 126.406506,39.3287072 126.840843,33.9994319 C130.368675,32.9680406 137.041446,31.1280116 140.008434,30.3420696 C139.846506,36.9490261 139.50494,42.759113 139.142289,49.3896058 C139.085783,50.4327652 138.59747,55.0206493 140.601325,55.0475478 C142.379157,55.0719246 143.28241,51.0144464 141.478434,51.263258 C141.328313,51.2834319 141.356145,51.327142 141.383133,49.977171 C141.470843,42.7154029 141.649639,36.9834899 142.020723,29.7309681" id="Fill-3" fill="#FFFFFF"></path>
                </g>
            </g>
        </g>
    </g>
</svg>
