<?xml version="1.0" encoding="UTF-8"?>
<svg width="76px" height="92px" viewBox="0 0 76 92" version="1.1" xmlns="http://www.w3.org/2000/svg" xmlns:xlink="http://www.w3.org/1999/xlink">
    <!-- Generator: Sketch 50.2 (55047) - http://www.bohemiancoding.com/sketch -->
    <title>Marker</title>
    <desc>Created with Sketch.</desc>
    <defs>
        <linearGradient x1="50%" y1="100%" x2="50%" y2="0%" id="linearGradient-1">
            <stop stop-color="#EB0029" offset="0%"></stop>
            <stop stop-color="#FF0055" offset="100%"></stop>
        </linearGradient>
    </defs>
    <g id="Page-1" stroke="none" stroke-width="1" fill="none" fill-rule="evenodd">
        <g id="T.-Hunter---LandingPage" transform="translate(-682.000000, -4544.000000)">
            <g id="Marker" transform="translate(682.000000, 4544.000000)">
                <path d="M38,92 C39.7998047,85.4837464 47.4749503,77.6024043 61.0254368,68.3559738 C70.4016122,61.9579633 76,50.4220479 76,38.0689655 C76,17.0440564 58.9868205,0 38,0 C17.0131795,0 0,17.0440564 0,38.0689655 C0,50.6434227 5.88307641,62.2123377 15.4669694,68.7259993 C28.7087706,77.7257462 36.2197808,85.4837464 38,92 Z" id="Oval-8" fill="url(#linearGradient-1)"></path>
                <circle id="Oval-9" stroke="#FFFFFF" cx="38.5" cy="38.5" r="27.5"></circle>
                <path d="M33.6246389,23.6864595 C33.6360932,22.9442946 33.980624,20.4725259 33.0579565,20.1369356 C32.2003972,19.8246041 32.0617409,21.0231839 31.9556386,21.618849 C31.5357511,23.9845942 31.4986756,27.4836738 31.505307,29.9104354 C31.5095269,31.3216664 31.5167612,32.593345 31.5185697,33.8387443 C28.1754448,34.9527469 25.0746671,35.9682774 23.7477862,36.3854243 C22.8802798,36.6581857 22.8151716,37.4924794 23.3080045,37.6833822 C23.569643,37.785177 27.3404925,36.5820663 31.5176655,35.2152383 C31.5092255,38.3941328 31.4441173,40.0364408 31.1752446,45.3152664 C29.1933632,45.9731562 25.909318,46.665179 24.0193718,47.294675 C23.2567619,47.5490107 22.9387566,47.609121 23.1250384,48.3817941 C23.1340812,48.4201559 23.149454,48.4545909 23.169951,48.4854012 C23.1817067,48.5107743 23.1949694,48.5358454 23.2100408,48.5624268 C23.2932346,48.6989586 23.3776341,48.7862544 23.5051376,48.8814037 C23.6052113,48.9538985 23.6971465,49.0049468 23.8089759,49.0578076 C24.9733877,49.5616461 26.6631865,49.7371438 27.8673866,50.0570268 C28.1468093,50.1376772 28.424122,50.234941 28.6951047,50.3391522 C29.2437015,50.5717395 29.727793,50.7928485 30.1992245,51.1661964 C30.355665,51.2882292 30.5335069,51.4027105 30.6968802,51.5177959 C30.7867054,51.5797185 30.936816,51.7228956 31.1173706,51.9059449 C31.1378677,52.9510774 31.1845888,53.8768957 31.2629598,54.4571557 C31.3684592,55.2428175 31.544191,55.9801495 32.4942884,55.9934402 C34.0149867,56.0151886 33.7557596,52.8776765 33.4145445,51.9370572 C33.2222341,51.4063352 33.0443923,51.577 32.9741599,50.8976638 C32.9156831,50.3300904 32.9391944,48.7629956 33.068205,46.3404629 C34.0876305,45.9145563 38.2434022,44.491847 42.4923147,43.0676273 C42.4669948,46.1888281 42.4715162,49.3024774 42.4184651,52.5765212 C42.4070109,53.3186862 42.241829,55.8306291 43.6084982,55.9934402 C44.974866,56.1562513 45.0378642,53.2398481 44.9269391,52.6450892 C44.4751003,50.2165153 44.5013244,48.7581627 44.494693,46.3317032 C44.4904731,44.9201701 44.4832388,43.6487935 44.4814303,42.4033942 C47.8245552,41.2896937 50.9253329,40.2741632 52.2522138,39.8570163 C53.1197202,39.5839528 53.1848284,38.7499612 52.6919955,38.5587563 C52.4306584,38.4569616 48.659206,39.6600723 44.4823345,41.0269003 C44.4904731,37.8480057 44.5561841,36.2059998 44.8247554,30.9271742 C46.8066368,30.2686802 50.0955048,29.5609503 51.9848482,28.9314543 C52.747458,28.6774206 53.0660662,28.6173104 52.879483,27.8449393 C52.7212339,27.1879557 50.8508805,27.6525262 49.9378586,27.9129031 C48.5217554,28.3167592 45.9689716,29.1453138 44.8087798,29.4467711 C44.8328939,28.7263546 44.9444219,23.978855 44.7548244,21.490775 C44.6420908,20.0118822 44.5133815,19.9626462 44.0232615,20.010976 C42.680405,20.1432789 43.0107688,28.4218766 42.9314935,29.9016756 C41.9123695,30.3278843 37.7565978,31.7502916 33.5076853,33.1742092 C33.5330052,30.0536125 33.5718893,26.9608055 33.6246389,23.6864595 M42.5055774,41.6754262 C38.2406893,43.0775953 34.0550765,44.4658697 33.1312032,44.6697611 C33.3699333,40.0165048 33.4561414,37.9564458 33.4944226,34.5670144 C37.7596121,33.1645432 41.945225,31.7765709 42.8687968,31.5723774 C42.6300667,36.2262379 42.5438586,38.2859948 42.5055774,41.6754262 M25.3432384,48.4585177 C24.848597,48.0410688 29.451686,47.2472514 31.1912202,46.7953675 C31.1381691,47.7607558 31.1059164,49.0741189 31.1038064,50.3714728 C30.4789486,49.9029755 29.8821235,49.5975914 29.1053466,49.2955299 C28.6363264,49.1209384 28.2046832,48.9961871 27.7326488,48.8502914 C27.1502922,48.6693566 25.9144422,48.647004 25.3432384,48.4585177" id="Fill-5" fill="#FFFFFF"></path>
            </g>
        </g>
    </g>
</svg>