<svg width="38" height="46" viewBox="0 0 38 46" fill="none" xmlns="http://www.w3.org/2000/svg">
<path fill-rule="evenodd" clip-rule="evenodd" d="M19 46C19 46 20.3499 41.1128 30.5127 34.178C35.2008 30.979 38 25.211 38 19.0345C38 8.52203 29.4934 0 19 0C8.50659 0 0 8.52203 0 19.0345C0 25.3217 2.94154 31.1062 7.73348 34.363C17.6648 41.1128 19 46 19 46Z" fill="url(#paint0_linear)"/>
<path fill-rule="evenodd" clip-rule="evenodd" d="M13.75 27.5C21.3439 27.5 27.5 21.3439 27.5 13.75C27.5 6.15608 21.3439 0 13.75 0C6.15608 0 0 6.15608 0 13.75C0 21.3439 6.15608 27.5 13.75 27.5Z" transform="translate(5.5 5.5)" stroke="white"/>
<path fill-rule="evenodd" clip-rule="evenodd" d="M5.31232 1.84323C5.31805 1.47215 5.49031 0.236263 5.02898 0.0684678C4.6002 -0.087698 4.53087 0.511592 4.47782 0.809425C4.26788 1.9923 4.24934 3.74184 4.25265 4.95522C4.25476 5.66083 4.25838 6.29667 4.25928 6.91937C2.58772 7.47637 1.03733 7.98414 0.373893 8.19271C-0.0598601 8.32909 -0.0924142 8.74624 0.154002 8.84169C0.284822 8.89259 2.17025 8.29103 4.25883 7.60762C4.25461 9.19707 4.22206 10.0182 4.08762 12.6576C3.09668 12.9866 1.45466 13.3326 0.509686 13.6473C0.128381 13.7745 -0.0306217 13.8046 0.0625192 14.1909C0.0670406 14.2101 0.074727 14.2273 0.0849755 14.2427C0.0908533 14.2554 0.0974847 14.2679 0.10502 14.2812C0.146617 14.3495 0.188817 14.3931 0.252569 14.4407C0.302606 14.4769 0.348573 14.5025 0.404488 14.5289C0.986694 14.7808 1.83159 14.8686 2.43369 15.0285C2.5734 15.0688 2.71206 15.1175 2.84755 15.1696C3.12185 15.2859 3.3639 15.3964 3.59961 15.5831C3.67783 15.6441 3.76675 15.7014 3.84844 15.7589C3.89335 15.7899 3.96841 15.8614 4.05869 15.953C4.06893 16.4755 4.09229 16.9384 4.13148 17.2286C4.18423 17.6214 4.2721 17.9901 4.74714 17.9967C5.50749 18.0076 5.37788 16.4388 5.20727 15.9685C5.11112 15.7032 5.0222 15.7885 4.98708 15.4488C4.95784 15.165 4.9696 14.3815 5.0341 13.1702C5.54382 12.9573 7.6217 12.2459 9.74616 11.5338C9.7335 13.0944 9.73576 14.6512 9.70923 16.2883C9.70351 16.6593 9.62091 17.9153 10.3042 17.9967C10.9874 18.0781 11.0189 16.6199 10.9635 16.3225C10.7375 15.1083 10.7507 14.3791 10.7473 13.1659C10.7452 12.4601 10.7416 11.8244 10.7407 11.2017C12.4123 10.6448 13.9627 10.1371 14.6261 9.92851C15.0599 9.79198 15.0924 9.37498 14.846 9.27938C14.7153 9.22848 12.8296 9.83004 10.7412 10.5134C10.7452 8.924 10.7781 8.103 10.9124 5.46359C11.9033 5.13434 13.5478 4.78048 14.4924 4.46573C14.8737 4.33871 15.033 4.30866 14.9397 3.92247C14.8606 3.59398 13.9254 3.82626 13.4689 3.95645C12.7609 4.15838 11.4845 4.57266 10.9044 4.72339C10.9164 4.36318 10.9722 1.98943 10.8774 0.745387C10.821 0.00594109 10.7567 -0.0186769 10.5116 0.005488C9.8402 0.0716395 10.0054 4.21094 9.96575 4.95084C9.45619 5.16394 7.3783 5.87515 5.25384 6.5871C5.2665 5.02681 5.28594 3.4804 5.31232 1.84323ZM9.75262 10.8377C7.62017 11.5387 5.52737 12.2329 5.06543 12.3348C5.18479 10.0082 5.2279 8.97817 5.24704 7.28345C7.37963 6.58222 9.47244 5.88823 9.93423 5.78613C9.81486 8.11306 9.77176 9.14294 9.75262 10.8377ZM1.1718 14.229C0.924481 14.0203 3.22603 13.6234 4.09579 13.3975C4.06927 13.8802 4.05314 14.5368 4.05209 15.1855C3.73966 14.9513 3.44124 14.7986 3.05286 14.6475C2.81835 14.5602 2.60252 14.4979 2.36651 14.4249C2.07533 14.3345 1.4574 14.3233 1.1718 14.229Z" transform="translate(11.5 10)" fill="white"/>
<defs>
<linearGradient id="paint0_linear" x2="1" gradientUnits="userSpaceOnUse" gradientTransform="translate(19 46) scale(38 46) rotate(-90)">
<stop stop-color="#EB0029"/>
<stop offset="1" stop-color="#EB0029"/>
</linearGradient>
</defs>
</svg>
