<svg width="40" height="5" viewBox="0 0 40 5" fill="none" xmlns="http://www.w3.org/2000/svg">
<path fill-rule="evenodd" clip-rule="evenodd" d="M4.902 0.229801C4.92312 0.18529 4.95744 0.150671 5.00495 0.125943C5.05247 0.101214 5.16862 0.0888502 5.3534 0.0888502C5.39564 0.0888502 5.45767 0.0876138 5.5395 0.085141C5.62133 0.0826681 5.70976 0.0801953 5.8048 0.0777225C5.89983 0.0752496 5.99486 0.0715404 6.08989 0.0665948C6.18492 0.0616491 6.26675 0.0567035 6.33538 0.0517578C6.34594 0.0764862 6.35122 0.101214 6.35122 0.125943V0.18529C6.35122 0.264421 6.32219 0.311404 6.26411 0.326241C6.15852 0.341078 6.07537 0.355915 6.01466 0.370752C5.95394 0.385589 5.90775 0.404135 5.87607 0.426391C5.84439 0.448646 5.82327 0.474611 5.81272 0.504285C5.80216 0.533959 5.79688 0.568578 5.79688 0.608143C5.79688 0.618035 5.80084 0.712001 5.80876 0.890046C5.81667 1.06809 5.82855 1.28817 5.84439 1.55029C5.86023 1.81241 5.87607 2.09678 5.89191 2.40341C5.90775 2.71005 5.92358 3.0006 5.93942 3.27509C5.95526 3.54957 5.96846 3.7882 5.97902 3.99097C5.98958 4.19374 5.9975 4.31738 6.00278 4.36189C6.00278 4.41135 6.00938 4.45215 6.02258 4.4843C6.03577 4.51644 6.05953 4.54488 6.09385 4.56961C6.12817 4.59434 6.177 4.61536 6.24035 4.63267C6.30371 4.64998 6.38554 4.66605 6.48585 4.68089C6.54392 4.69078 6.57296 4.73776 6.57296 4.82184C6.57296 4.85646 6.56768 4.89849 6.55712 4.94795C6.37234 4.93806 6.20472 4.92941 6.05425 4.92199C5.90379 4.91457 5.73352 4.91086 5.54346 4.91086C5.36924 4.91086 5.18314 4.91457 4.98516 4.92199C4.78717 4.92941 4.62219 4.93806 4.4902 4.94795C4.47964 4.89849 4.47437 4.85646 4.47437 4.82184C4.47437 4.76744 4.4836 4.73034 4.50208 4.71056C4.52056 4.69078 4.53772 4.68089 4.55356 4.68089C4.77002 4.64627 4.90992 4.60547 4.97328 4.55848C5.03663 4.5115 5.06831 4.43855 5.06831 4.33964C5.06831 4.3248 5.06435 4.24567 5.05643 4.10225C5.04851 3.95882 5.04059 3.78078 5.03267 3.56812C5.02475 3.35545 5.01419 3.12548 5.00099 2.8782C4.9878 2.63091 4.9746 2.39847 4.9614 2.18086C4.9482 1.96325 4.93764 1.77532 4.92972 1.61706C4.9218 1.45879 4.9152 1.36236 4.90992 1.32774L3.28648 4.86635C3.26008 4.91086 3.23765 4.94424 3.21917 4.9665C3.20069 4.98875 3.17561 4.99988 3.14393 4.99988H3.09642C3.0753 4.99988 3.05946 4.99741 3.0489 4.99246L1.21164 0.86779C1.20636 0.932084 1.19976 1.06191 1.19184 1.25726C1.18393 1.45261 1.17337 1.6764 1.16017 1.92863C1.14697 2.18086 1.13377 2.44669 1.12057 2.72612C1.10737 3.00555 1.09549 3.26396 1.08493 3.50135C1.07438 3.73874 1.06514 3.9378 1.05722 4.09854C1.0493 4.25927 1.04534 4.34705 1.04534 4.36189C1.04534 4.4064 1.05062 4.44473 1.06118 4.47688C1.07174 4.50903 1.09285 4.53746 1.12453 4.56219C1.15621 4.58692 1.20372 4.60794 1.26708 4.62525C1.33043 4.64256 1.41754 4.6611 1.52841 4.68089C1.58649 4.69078 1.61552 4.73776 1.61552 4.82184C1.61552 4.83667 1.6142 4.85522 1.61156 4.87748C1.60892 4.89973 1.60496 4.92322 1.59968 4.94795C1.45714 4.93806 1.32515 4.92941 1.20372 4.92199C1.08229 4.91457 0.960867 4.91086 0.839438 4.91086C0.733848 4.91086 0.601862 4.91457 0.443477 4.92199C0.285092 4.92941 0.142547 4.93806 0.0158385 4.94795C0.00527943 4.92817 0 4.90591 0 4.88119V4.82184C0 4.76744 0.00791915 4.73158 0.0237577 4.71427C0.0395962 4.69696 0.060714 4.68583 0.0871115 4.68089C0.250776 4.64627 0.369564 4.6067 0.443477 4.56219C0.51739 4.51768 0.559626 4.45091 0.570185 4.36189C0.570185 4.32233 0.575464 4.2024 0.586023 4.0021C0.596582 3.8018 0.609781 3.56441 0.625619 3.28992C0.641458 3.01544 0.657296 2.72365 0.673135 2.41454C0.688973 2.10544 0.703492 1.81859 0.71669 1.554C0.729889 1.28941 0.740448 1.06809 0.748367 0.890046C0.756287 0.712001 0.760246 0.618035 0.760246 0.608143C0.760246 0.524067 0.731209 0.463483 0.673135 0.426391C0.61506 0.389298 0.488354 0.355915 0.293012 0.326241C0.234937 0.321296 0.2059 0.274313 0.2059 0.18529V0.125943C0.2059 0.101214 0.211179 0.0764862 0.221738 0.0517578C0.290372 0.0567035 0.385402 0.0616491 0.506831 0.0665948C0.62826 0.0715404 0.752326 0.0752496 0.879035 0.0777225C1.00574 0.0801953 1.12453 0.0826681 1.2354 0.085141C1.34627 0.0876138 1.42546 0.0888502 1.47298 0.0888502C1.56801 0.0888502 1.64192 0.0925594 1.69472 0.0999779C1.74751 0.107396 1.78975 0.116051 1.82142 0.125943C1.8531 0.135834 1.87554 0.150671 1.88874 0.170453C1.90194 0.190236 1.91381 0.210019 1.92437 0.229801L3.39735 3.5607L4.902 0.229801ZM10.9682 3.27897H9.30514L8.89334 4.31013C8.87751 4.33486 8.86695 4.36206 8.86167 4.39174C8.85639 4.42141 8.85375 4.44367 8.85375 4.4585C8.85375 4.51291 8.88146 4.55742 8.9369 4.59204C8.99234 4.62666 9.10452 4.65633 9.27347 4.68106C9.34738 4.69095 9.38434 4.73793 9.38434 4.82201C9.38434 4.85663 9.37906 4.89867 9.3685 4.94812C9.22595 4.93823 9.07549 4.92958 8.9171 4.92216C8.75872 4.91474 8.60297 4.91103 8.44987 4.91103C8.34428 4.91103 8.23341 4.9135 8.11726 4.91845C8.00111 4.9234 7.87176 4.93329 7.72922 4.94812C7.71866 4.92834 7.71338 4.90609 7.71338 4.88136V4.82201C7.71338 4.72804 7.7477 4.67859 7.81633 4.67364C7.97999 4.64397 8.09746 4.61182 8.16873 4.5772C8.24001 4.54258 8.29676 4.48323 8.339 4.39916L10.2475 0.126114C10.2898 0.0420376 10.3531 0 10.4376 0C10.464 0 10.4904 0.0012364 10.5168 0.00370924C10.5432 0.00618208 10.5722 0.00989128 10.6039 0.014837L12.5124 4.42141C12.5441 4.4956 12.6048 4.55123 12.6946 4.58833C12.7843 4.62542 12.882 4.65138 12.9876 4.66622C13.0668 4.68106 13.1064 4.73051 13.1064 4.81459C13.1064 4.85416 13.1011 4.89867 13.0905 4.94812C12.9216 4.93823 12.7553 4.92958 12.5916 4.92216C12.428 4.91474 12.2749 4.91103 12.1323 4.91103C12.0584 4.91103 11.9686 4.91227 11.8631 4.91474C11.7575 4.91721 11.6492 4.92092 11.5384 4.92587C11.4275 4.93081 11.3179 4.93452 11.2097 4.937C11.1015 4.93947 11.0104 4.94318 10.9365 4.94812C10.9259 4.92834 10.9207 4.90609 10.9207 4.88136V4.82201C10.9207 4.7775 10.9299 4.74412 10.9484 4.72186C10.9669 4.6996 10.9867 4.686 11.0078 4.68106C11.145 4.65633 11.2467 4.62789 11.3127 4.59575C11.3787 4.5636 11.4117 4.51538 11.4117 4.45109C11.4117 4.42141 11.4037 4.38432 11.3879 4.33981L10.9682 3.27897ZM10.8177 2.90793L10.1445 1.23877L9.45557 2.90793H10.8177ZM16.195 0.459868V4.36199C16.195 4.41144 16.199 4.45224 16.2069 4.48439C16.2148 4.51654 16.2346 4.54498 16.2663 4.5697C16.298 4.59443 16.3428 4.61545 16.4009 4.63276C16.459 4.65007 16.5408 4.66614 16.6464 4.68098C16.7256 4.69582 16.7652 4.73786 16.7652 4.8071C16.7652 4.82193 16.7639 4.84419 16.7612 4.87386C16.7586 4.90354 16.7546 4.92826 16.7494 4.94805C16.5804 4.93815 16.3996 4.9295 16.2069 4.92208C16.0142 4.91466 15.8439 4.91095 15.6961 4.91095C15.543 4.91095 15.3727 4.91466 15.1853 4.92208C14.9979 4.9295 14.8197 4.93815 14.6508 4.94805C14.6402 4.92826 14.6336 4.90354 14.631 4.87386C14.6283 4.84419 14.627 4.82193 14.627 4.8071C14.627 4.77248 14.6336 4.74404 14.6468 4.72178C14.66 4.69953 14.6956 4.68345 14.7537 4.67356C14.949 4.64883 15.0718 4.61545 15.122 4.57341C15.1721 4.53137 15.1972 4.4609 15.1972 4.36199V0.459868H14.5003C14.3525 0.459868 14.2271 0.473469 14.1241 0.50067C14.0212 0.527871 13.9314 0.569909 13.8549 0.626784C13.7783 0.683659 13.7097 0.757843 13.649 0.849338C13.5883 0.940833 13.5262 1.05087 13.4629 1.17946C13.4418 1.22397 13.4022 1.24623 13.3441 1.24623C13.3124 1.24623 13.2755 1.24004 13.2332 1.22768C13.191 1.21532 13.1593 1.20419 13.1382 1.1943C13.1751 1.0756 13.2068 0.970507 13.2332 0.879012C13.2596 0.787517 13.2807 0.69726 13.2966 0.608238C13.3177 0.494487 13.3335 0.393102 13.3441 0.30408C13.3546 0.215058 13.3678 0.150765 13.3837 0.1112C13.4048 0.0666888 13.447 0.0444336 13.5104 0.0444336C13.5685 0.0444336 13.6833 0.051852 13.8549 0.066689C14.0265 0.081526 14.2337 0.0889445 14.4765 0.0889445H16.9157C17.1532 0.0889445 17.3578 0.081526 17.5294 0.066689C17.701 0.051852 17.8184 0.0444336 17.8818 0.0444336C17.9399 0.0444336 17.9821 0.0666888 18.0085 0.1112C18.0243 0.150765 18.0362 0.215058 18.0441 0.30408C18.0521 0.393102 18.0692 0.494487 18.0956 0.608238C18.1115 0.69726 18.1313 0.787517 18.155 0.879012C18.1788 0.970507 18.2118 1.0756 18.254 1.1943C18.2276 1.20419 18.1946 1.21532 18.155 1.22768C18.1154 1.24004 18.0798 1.24623 18.0481 1.24623C17.99 1.24623 17.9478 1.22397 17.9214 1.17946C17.858 1.05087 17.796 0.940833 17.7353 0.849338C17.6746 0.757843 17.6059 0.683659 17.5294 0.626784C17.4528 0.569909 17.3631 0.527871 17.2601 0.50067C17.1572 0.473469 17.0344 0.459868 16.8919 0.459868H16.195ZM21.0812 0.459868V2.24772H22.1978C22.2981 2.24772 22.3667 2.20939 22.4037 2.13273C22.4406 2.05608 22.4723 1.9312 22.4987 1.7581C22.504 1.71854 22.5198 1.69257 22.5462 1.68021C22.5726 1.66784 22.6069 1.66166 22.6492 1.66166C22.665 1.66166 22.6901 1.6629 22.7244 1.66537C22.7587 1.66784 22.7838 1.67155 22.7996 1.6765C22.7891 1.79025 22.7799 1.92254 22.7719 2.07339C22.764 2.22423 22.7601 2.35158 22.7601 2.45544C22.7601 2.54446 22.7627 2.64955 22.768 2.77072C22.7733 2.89189 22.7838 3.02913 22.7996 3.18245C22.7838 3.19234 22.7587 3.19852 22.7244 3.201C22.6901 3.20347 22.665 3.2047 22.6492 3.2047C22.5542 3.2047 22.504 3.17009 22.4987 3.10085C22.467 2.91291 22.4314 2.78556 22.3918 2.71879C22.3522 2.65203 22.2875 2.61864 22.1978 2.61864H21.0812V4.28038C21.0812 4.38424 21.1498 4.45348 21.2871 4.4881C21.4243 4.52272 21.6566 4.54003 21.984 4.54003H22.3166C22.475 4.54003 22.6083 4.52025 22.7165 4.48068C22.8247 4.44112 22.9211 4.38548 23.0055 4.31377C23.09 4.24205 23.1639 4.15798 23.2273 4.06154C23.2906 3.9651 23.354 3.85753 23.4173 3.73883C23.4332 3.70422 23.4701 3.68691 23.5282 3.68691C23.5546 3.68691 23.5863 3.69432 23.6232 3.70916L23.7341 3.75367C23.7236 3.79324 23.7117 3.83033 23.6985 3.86495C23.6853 3.89957 23.6734 3.93419 23.6628 3.96881C23.6364 4.02321 23.6153 4.08256 23.5995 4.14685C23.5837 4.21114 23.5678 4.26307 23.552 4.30264L23.5163 4.46955C23.5031 4.53138 23.4899 4.59072 23.4767 4.6476C23.4635 4.70447 23.4503 4.75517 23.4371 4.79968C23.4239 4.84419 23.4147 4.87386 23.4094 4.8887C23.3883 4.92826 23.3461 4.94805 23.2827 4.94805C23.2405 4.94805 23.1798 4.94557 23.1006 4.94063C23.0214 4.93568 22.9356 4.93197 22.8432 4.9295C22.7508 4.92703 22.6571 4.92332 22.5621 4.91837C22.467 4.91343 22.3852 4.91095 22.3166 4.91095H20.5189C20.3658 4.91095 20.1903 4.91466 19.9923 4.92208C19.7943 4.9295 19.6161 4.93815 19.4577 4.94805C19.4472 4.92826 19.4419 4.9023 19.4419 4.87015V4.79968C19.4419 4.72549 19.4683 4.68593 19.5211 4.68098C19.7217 4.64636 19.8656 4.60927 19.9527 4.5697C20.0398 4.53014 20.0834 4.4609 20.0834 4.36199V0.64533C20.0834 0.595873 20.0754 0.555072 20.0596 0.522925C20.0438 0.490778 20.0134 0.463578 19.9685 0.441322C19.9236 0.419067 19.8656 0.399284 19.7943 0.381974C19.723 0.364664 19.632 0.346118 19.5211 0.326336C19.4683 0.311499 19.4419 0.266988 19.4419 0.192803V0.122328C19.4419 0.100072 19.4472 0.0765804 19.4577 0.0518521C19.6848 0.0666891 19.8854 0.0765803 20.0596 0.081526C20.2338 0.0864716 20.3843 0.0889445 20.511 0.0889445H22.1344C22.372 0.0889445 22.5766 0.081526 22.7482 0.066689C22.9198 0.051852 23.0372 0.0444336 23.1006 0.0444336C23.1587 0.0444336 23.2009 0.0666888 23.2273 0.1112C23.2431 0.150765 23.2563 0.223713 23.2669 0.330045C23.2774 0.436377 23.2959 0.546417 23.3223 0.660167C23.3382 0.744244 23.3566 0.825846 23.3778 0.904977C23.3989 0.984108 23.4305 1.08055 23.4728 1.1943C23.4464 1.20419 23.4173 1.21408 23.3857 1.22397C23.354 1.23386 23.3223 1.23881 23.2906 1.23881C23.2326 1.23881 23.1903 1.21655 23.1639 1.17204C23.1006 1.04345 23.0385 0.933415 22.9778 0.84192C22.9171 0.750425 22.8485 0.676241 22.7719 0.619366C22.6954 0.56249 22.6056 0.521689 22.5027 0.496961C22.3997 0.472232 22.277 0.459868 22.1344 0.459868H21.0812ZM27.0203 2.7595H26.6798V4.30996C26.6798 4.42371 26.7313 4.50408 26.8342 4.55106C26.9372 4.59805 27.1127 4.63638 27.3609 4.66605C27.4348 4.67594 27.4717 4.7254 27.4717 4.81442C27.4717 4.85398 27.4665 4.8985 27.4559 4.94795C27.3028 4.93806 27.1114 4.92941 26.8817 4.92199C26.6521 4.91457 26.4026 4.91086 26.1334 4.91086C25.9433 4.91086 25.7599 4.91457 25.583 4.92199C25.4061 4.92941 25.2411 4.93806 25.088 4.94795C25.0775 4.92817 25.0722 4.90591 25.0722 4.88119V4.82184C25.0722 4.73776 25.1012 4.69078 25.1593 4.68089C25.2702 4.6611 25.3599 4.64256 25.4286 4.62525C25.4972 4.60794 25.55 4.58816 25.587 4.5659C25.6239 4.54364 25.649 4.51644 25.6622 4.4843C25.6754 4.45215 25.682 4.41135 25.682 4.36189V0.645236C25.682 0.546322 25.6437 0.474611 25.5672 0.4301C25.4906 0.385589 25.3441 0.35097 25.1276 0.326241C25.1012 0.31635 25.0801 0.301513 25.0643 0.281731C25.0484 0.261948 25.0405 0.227329 25.0405 0.177872V0.111106C25.0405 0.0863772 25.0458 0.0665948 25.0564 0.0517578C25.2042 0.0616492 25.3745 0.070304 25.5672 0.0777225C25.7599 0.085141 25.9328 0.0888502 26.0859 0.0888502H27.2817C27.5615 0.0888502 27.8123 0.120997 28.034 0.18529C28.2557 0.249584 28.4445 0.341078 28.6002 0.459774C28.756 0.57847 28.8748 0.71942 28.9566 0.882627C29.0384 1.04583 29.0793 1.22635 29.0793 1.42418C29.0793 1.6863 28.9935 1.92492 28.822 2.14006C28.6504 2.3552 28.4141 2.51716 28.1132 2.62597L29.3565 4.3248C29.4515 4.45339 29.5611 4.54241 29.6852 4.59186C29.8092 4.64132 29.9241 4.67841 30.0296 4.70314C30.056 4.70809 30.0772 4.71921 30.093 4.73653C30.1088 4.75383 30.1168 4.78475 30.1168 4.82926V4.89602C30.1168 4.92075 30.1115 4.94548 30.1009 4.97021C30.0428 4.96526 29.961 4.96155 29.8554 4.95908C29.7498 4.95661 29.6403 4.9529 29.5268 4.94795C29.4133 4.94301 29.2998 4.9393 29.1862 4.93682C29.0727 4.93435 28.979 4.93311 28.9051 4.93311C28.7942 4.93311 28.6834 4.88984 28.5725 4.80329C28.4616 4.71674 28.3534 4.60176 28.2478 4.45833L27.0203 2.7595ZM26.9173 2.38876C27.0809 2.38876 27.2288 2.37393 27.3607 2.34425C27.4927 2.31458 27.6062 2.26389 27.7013 2.19218C27.7963 2.12046 27.8689 2.02526 27.919 1.90656C27.9692 1.78787 27.9943 1.63703 27.9943 1.45404C27.9943 1.1474 27.9151 0.90507 27.7567 0.727026C27.5983 0.548982 27.3185 0.459961 26.9173 0.459961H26.6797V2.38876H26.9173ZM32.8966 4.36189C32.8966 4.41135 32.9006 4.45215 32.9085 4.4843C32.9164 4.51644 32.9375 4.54488 32.9719 4.56961C33.0062 4.59434 33.0563 4.61536 33.1223 4.63267C33.1883 4.64998 33.2767 4.66605 33.3876 4.68089C33.4404 4.69078 33.4668 4.73282 33.4668 4.807C33.4668 4.82184 33.4655 4.84409 33.4628 4.87377C33.4602 4.90344 33.4562 4.92817 33.451 4.94795C33.282 4.93806 33.1012 4.92941 32.9085 4.92199C32.7158 4.91457 32.5455 4.91086 32.3977 4.91086C32.2446 4.91086 32.073 4.91457 31.883 4.92199C31.6929 4.92941 31.5134 4.93806 31.3445 4.94795C31.3339 4.92817 31.3286 4.90344 31.3286 4.87377V4.807C31.3286 4.72787 31.355 4.68583 31.4078 4.68089C31.5187 4.66605 31.6071 4.64998 31.6731 4.63267C31.7391 4.61536 31.7879 4.59434 31.8196 4.56961C31.8513 4.54488 31.8724 4.51644 31.883 4.4843C31.8935 4.45215 31.8988 4.41135 31.8988 4.36189V0.645236C31.8988 0.595779 31.8935 0.554978 31.883 0.522831C31.8724 0.490684 31.8513 0.462247 31.8196 0.437519C31.7879 0.41279 31.7391 0.391771 31.6731 0.374462C31.6071 0.357152 31.5187 0.341078 31.4078 0.326241C31.355 0.311404 31.3286 0.269367 31.3286 0.200127V0.133361C31.3286 0.103687 31.3339 0.0764862 31.3445 0.0517578C31.5134 0.0616492 31.6929 0.070304 31.883 0.0777225C32.073 0.085141 32.2446 0.0888502 32.3977 0.0888502C32.5455 0.0888502 32.7158 0.085141 32.9085 0.0777225C33.1012 0.070304 33.282 0.0616492 33.451 0.0517578C33.4562 0.0764862 33.4602 0.103687 33.4628 0.133361C33.4655 0.163035 33.4668 0.18529 33.4668 0.200127C33.4668 0.269367 33.4404 0.311404 33.3876 0.326241C33.2767 0.341078 33.1883 0.357152 33.1223 0.374462C33.0563 0.391771 33.0062 0.41279 32.9719 0.437519C32.9375 0.462247 32.9164 0.490684 32.9085 0.522831C32.9006 0.554978 32.8966 0.595779 32.8966 0.645236V4.36189ZM37.8617 3.27897H36.1987L35.7869 4.31013C35.7711 4.33486 35.7605 4.36206 35.7552 4.39174C35.7499 4.42141 35.7473 4.44367 35.7473 4.4585C35.7473 4.51291 35.775 4.55742 35.8305 4.59204C35.8859 4.62666 35.9981 4.65633 36.167 4.68106C36.2409 4.69095 36.2779 4.73793 36.2779 4.82201C36.2779 4.85663 36.2726 4.89867 36.2621 4.94812C36.1195 4.93823 35.969 4.92958 35.8107 4.92216C35.6523 4.91474 35.4965 4.91103 35.3434 4.91103C35.2378 4.91103 35.127 4.9135 35.0108 4.91845C34.8947 4.9234 34.7653 4.93329 34.6228 4.94812C34.6122 4.92834 34.6069 4.90609 34.6069 4.88136V4.82201C34.6069 4.72804 34.6413 4.67859 34.7099 4.67364C34.8736 4.64397 34.991 4.61182 35.0623 4.5772C35.1336 4.54258 35.1903 4.48323 35.2326 4.39916L37.1411 0.126114C37.1833 0.0420376 37.2467 0 37.3312 0C37.3575 0 37.3839 0.0012364 37.4103 0.00370924C37.4367 0.00618208 37.4658 0.00989128 37.4975 0.014837L39.406 4.42141C39.4377 4.4956 39.4984 4.55123 39.5881 4.58833C39.6779 4.62542 39.7756 4.65138 39.8811 4.66622C39.9603 4.68106 39.9999 4.73051 39.9999 4.81459C39.9999 4.85416 39.9947 4.89867 39.9841 4.94812C39.8151 4.93823 39.6488 4.92958 39.4852 4.92216C39.3215 4.91474 39.1684 4.91103 39.0259 4.91103C38.952 4.91103 38.8622 4.91227 38.7566 4.91474C38.651 4.91721 38.5428 4.92092 38.4319 4.92587C38.3211 4.93081 38.2115 4.93452 38.1033 4.937C37.995 4.93947 37.904 4.94318 37.8301 4.94812C37.8195 4.92834 37.8142 4.90609 37.8142 4.88136V4.82201C37.8142 4.7775 37.8235 4.74412 37.8419 4.72186C37.8604 4.6996 37.8802 4.686 37.9013 4.68106C38.0386 4.65633 38.1402 4.62789 38.2062 4.59575C38.2722 4.5636 38.3052 4.51538 38.3052 4.45109C38.3052 4.42141 38.2973 4.38432 38.2815 4.33981L37.8617 3.27897ZM37.7112 2.90793L37.0381 1.23877L36.3491 2.90793H37.7112Z" fill="white"/>
</svg>
