<svg width="84" height="16" viewBox="0 0 84 16" fill="none" xmlns="http://www.w3.org/2000/svg">
<path d="M12.1406 12H10.3281V7.64062C10.3281 6.80208 10.2083 6.19531 9.96875 5.82031C9.73438 5.44531 9.33594 5.25781 8.77344 5.25781C8.29948 5.25781 7.89583 5.49479 7.5625 5.96875C7.23438 6.44271 7.07031 7.01042 7.07031 7.67188V12H5.25V7.49219C5.25 6.0026 4.72396 5.25781 3.67188 5.25781C3.18229 5.25781 2.77865 5.48177 2.46094 5.92969C2.14844 6.3776 1.99219 6.95833 1.99219 7.67188V12H0.179688V4H1.99219V5.26562H2.02344C2.60156 4.29688 3.44271 3.8125 4.54688 3.8125C5.09896 3.8125 5.58073 3.96615 5.99219 4.27344C6.40885 4.57552 6.69271 4.97396 6.84375 5.46875C7.4375 4.36458 8.32292 3.8125 9.5 3.8125C11.2604 3.8125 12.1406 4.89844 12.1406 7.07031V12ZM22.405 8.49219H16.9519C16.9727 9.23177 17.1993 9.80208 17.6316 10.2031C18.0691 10.6042 18.668 10.8047 19.4284 10.8047C20.2826 10.8047 21.0665 10.5495 21.78 10.0391V11.5C21.0508 11.9583 20.0873 12.1875 18.8894 12.1875C17.7123 12.1875 16.7878 11.8255 16.1159 11.1016C15.4493 10.3724 15.1159 9.34896 15.1159 8.03125C15.1159 6.78646 15.4831 5.77344 16.2175 4.99219C16.9571 4.20573 17.8737 3.8125 18.9675 3.8125C20.0612 3.8125 20.9076 4.16406 21.5066 4.86719C22.1055 5.57031 22.405 6.54688 22.405 7.79688V8.49219ZM20.655 7.21094C20.6498 6.5599 20.4961 6.05469 20.1941 5.69531C19.892 5.33073 19.4753 5.14844 18.9441 5.14844C18.4232 5.14844 17.9805 5.33854 17.6159 5.71875C17.2566 6.09896 17.0352 6.59635 16.9519 7.21094H20.655ZM32.685 12H30.8725V10.6406H30.8412C30.2579 11.6719 29.3595 12.1875 28.1459 12.1875C27.1616 12.1875 26.3725 11.8307 25.7787 11.1172C25.1902 10.3984 24.8959 9.42188 24.8959 8.1875C24.8959 6.86458 25.2215 5.80469 25.8725 5.00781C26.5287 4.21094 27.4011 3.8125 28.4897 3.8125C29.5678 3.8125 30.3517 4.24479 30.8412 5.10938H30.8725V0.15625H32.685V12ZM30.8959 8.34375V7.29688C30.8959 6.72917 30.711 6.2474 30.3412 5.85156C29.9715 5.45573 29.5001 5.25781 28.9272 5.25781C28.2501 5.25781 27.7162 5.51042 27.3256 6.01562C26.9402 6.52083 26.7475 7.22135 26.7475 8.11719C26.7475 8.92969 26.9324 9.57292 27.3022 10.0469C27.6772 10.5156 28.1798 10.75 28.81 10.75C29.4298 10.75 29.9324 10.5234 30.3178 10.0703C30.7032 9.61198 30.8959 9.03646 30.8959 8.34375ZM37.2463 2.32031C36.9494 2.32031 36.6942 2.22396 36.4806 2.03125C36.2723 1.83854 36.1681 1.59375 36.1681 1.29688C36.1681 1 36.2723 0.752604 36.4806 0.554688C36.6942 0.356771 36.9494 0.257812 37.2463 0.257812C37.5535 0.257812 37.814 0.356771 38.0275 0.554688C38.241 0.752604 38.3478 1 38.3478 1.29688C38.3478 1.57812 38.241 1.82031 38.0275 2.02344C37.814 2.22135 37.5535 2.32031 37.2463 2.32031ZM38.1447 12H36.3322V4H38.1447V12ZM47.9403 12H46.1825V10.75H46.1512C45.5992 11.7083 44.7893 12.1875 43.7216 12.1875C42.9351 12.1875 42.3179 11.974 41.87 11.5469C41.4273 11.1198 41.2059 10.5547 41.2059 9.85156C41.2059 8.34115 42.0757 7.46094 43.8153 7.21094L46.1903 6.875C46.1903 5.73438 45.6486 5.16406 44.5653 5.16406C43.6122 5.16406 42.7528 5.49219 41.9872 6.14844V4.5625C42.8309 4.0625 43.8049 3.8125 44.9091 3.8125C46.9299 3.8125 47.9403 4.80729 47.9403 6.79688V12ZM46.1903 8.07031L44.5106 8.30469C43.9898 8.3724 43.5966 8.5 43.3309 8.6875C43.0705 8.86979 42.9403 9.19271 42.9403 9.65625C42.9403 9.99479 43.0601 10.2734 43.2997 10.4922C43.5445 10.7057 43.87 10.8125 44.2762 10.8125C44.8283 10.8125 45.2841 10.6198 45.6434 10.2344C46.008 9.84375 46.1903 9.35417 46.1903 8.76562V8.07031ZM57.6891 10.8438H57.6578V12H55.8453V0.15625H57.6578V5.40625H57.6891C58.3089 4.34375 59.2151 3.8125 60.4078 3.8125C61.4182 3.8125 62.2073 4.17188 62.775 4.89062C63.3479 5.60417 63.6344 6.5625 63.6344 7.76562C63.6344 9.10417 63.3141 10.1771 62.6734 10.9844C62.0328 11.7865 61.1578 12.1875 60.0484 12.1875C59.0068 12.1875 58.2203 11.7396 57.6891 10.8438ZM57.6422 7.66406V8.65625C57.6422 9.23958 57.8271 9.73438 58.1969 10.1406C58.5719 10.5469 59.0458 10.75 59.6187 10.75C60.2906 10.75 60.8167 10.4896 61.1969 9.96875C61.5823 9.44271 61.775 8.71094 61.775 7.77344C61.775 6.98698 61.5953 6.3724 61.2359 5.92969C60.8818 5.48177 60.4 5.25781 59.7906 5.25781C59.1448 5.25781 58.624 5.48698 58.2281 5.94531C57.8375 6.40365 57.6422 6.97656 57.6422 7.66406ZM72.7191 12H70.9613V10.75H70.93C70.3779 11.7083 69.568 12.1875 68.5003 12.1875C67.7139 12.1875 67.0967 11.974 66.6488 11.5469C66.206 11.1198 65.9847 10.5547 65.9847 9.85156C65.9847 8.34115 66.8545 7.46094 68.5941 7.21094L70.9691 6.875C70.9691 5.73438 70.4274 5.16406 69.3441 5.16406C68.3909 5.16406 67.5316 5.49219 66.7659 6.14844V4.5625C67.6097 4.0625 68.5836 3.8125 69.6878 3.8125C71.7086 3.8125 72.7191 4.80729 72.7191 6.79688V12ZM70.9691 8.07031L69.2894 8.30469C68.7685 8.3724 68.3753 8.5 68.1097 8.6875C67.8493 8.86979 67.7191 9.19271 67.7191 9.65625C67.7191 9.99479 67.8389 10.2734 68.0784 10.4922C68.3232 10.7057 68.6488 10.8125 69.055 10.8125C69.6071 10.8125 70.0628 10.6198 70.4222 10.2344C70.7868 9.84375 70.9691 9.35417 70.9691 8.76562V8.07031ZM83.1475 4L79.5381 13.2812C78.7881 14.9375 77.736 15.7656 76.3819 15.7656C76.0017 15.7656 75.684 15.7318 75.4287 15.6641V14.1562C75.7152 14.25 75.9756 14.2969 76.21 14.2969C76.8871 14.2969 77.3923 13.9635 77.7256 13.2969L78.2647 11.9844L75.085 4H77.0928L78.9991 9.8125C79.0199 9.88542 79.0668 10.0781 79.1397 10.3906H79.1787C79.2048 10.2708 79.2517 10.0833 79.3194 9.82812L81.3194 4H83.1475Z" fill="white"/>
</svg>
