<?xml version="1.0" encoding="UTF-8"?>
<svg width="96px" height="103px" viewBox="0 0 96 103" version="1.1" xmlns="http://www.w3.org/2000/svg" xmlns:xlink="http://www.w3.org/1999/xlink">
    <!-- Generator: Sketch 50.2 (55047) - http://www.bohemiancoding.com/sketch -->
    <title>Group 20</title>
    <desc>Created with Sketch.</desc>
    <defs>
        <linearGradient x1="50%" y1="100%" x2="50%" y2="0%" id="linearGradient-1">
            <stop stop-color="#EB0029" offset="0%"></stop>
            <stop stop-color="#FF0055" offset="100%"></stop>
        </linearGradient>
    </defs>
    <g id="Page-1" stroke="none" stroke-width="1" fill="none" fill-rule="evenodd">
        <g id="T.-Hunter---LandingPage" transform="translate(-962.000000, -1152.000000)">
            <g id="2-/-Services" transform="translate(130.000000, 1112.000000)">
                <g id="3" transform="translate(800.000000, 0.000000)">
                    <g id="Group-20" transform="translate(32.000000, 40.000000)">
                        <rect id="Rectangle-14" fill="url(#linearGradient-1)" x="16" y="20" width="63" height="63" rx="2"></rect>
                        <circle id="Oval-10" fill="#FFFFFF" cx="48" cy="58" r="6"></circle>
                        <rect id="Rectangle-8" fill="#FFFFFF" x="36" y="29" width="32" height="17"></rect>
                        <path d="M34.3511389,41.0622025 L61.6801791,41.0622025 L61.6801791,27.4654666 L34.3511389,27.4654666 L34.3511389,41.0622025 Z M65.1912285,44.5035371 L30.7843178,44.5035371 L30.7843178,27.477908 L24.054163,27.477908 L24.054163,49.780622 L30.7841032,49.780622 L30.7841032,53.1880645 L24.0644593,53.1880645 L24.0644593,75.4099093 L71.9638556,75.4099093 L71.9638556,53.1164192 L65.2184708,53.1164192 L65.2184708,49.7081186 L71.9522722,49.7081186 L71.9522722,27.4697568 L65.1912285,27.4697568 L65.1912285,44.5035371 Z M5.17755364,20.5997435 L8.51120575,20.5997435 L8.51120575,49.643123 L20.537751,49.643123 L20.537751,24.0329268 L75.4178461,24.0329268 L75.4178461,49.7033995 L90.8518338,49.7033995 L90.8518338,82.245387 L87.49716,82.245387 L87.49716,53.2138053 L75.5128726,53.2138053 L75.5128726,78.8257176 L20.5570566,78.8257176 L20.5570566,53.1794842 L5.17755364,53.1794842 L5.17755364,20.5997435 Z M82.3798828,17.0717481 L82.3798828,0.0409708226 L95.9811234,0.0409708226 L95.9811234,17.0717481 L82.3798828,17.0717481 Z M85.8134952,13.6181866 L92.5464385,13.6181866 L92.5464385,3.43747347 L85.8134952,3.43747347 L85.8134952,13.6181866 Z M82.3989739,102.837623 L82.3989739,85.80706 L96,85.80706 L96,102.837623 L82.3989739,102.837623 Z M85.8338733,99.4001493 L92.5633846,99.4001493 L92.5633846,89.2376692 L85.8338733,89.2376692 L85.8338733,99.4001493 Z M54.9137727,17.0436477 L54.9137727,0.0135139362 L68.5135117,0.0135139362 L68.5135117,17.0436477 L54.9137727,17.0436477 Z M58.3797756,13.6351327 L65.1058547,13.6351327 L65.1058547,3.43447037 L58.3797756,3.43447037 L58.3797756,13.6351327 Z M27.4899204,17.069603 L27.4899204,0 L41.0827952,0 L41.0827952,17.069603 L27.4899204,17.069603 Z M30.9185991,13.6014551 L37.6880086,13.6014551 L37.6880086,3.45677909 L30.9185991,3.45677909 L30.9185991,13.6014551 Z M54.9427311,102.836765 L54.9427311,85.8057729 L68.5416121,85.8057729 L68.5416121,102.836765 L54.9427311,102.836765 Z M58.3570378,99.4415491 L65.0908392,99.4415491 L65.0908392,89.279069 L58.3570378,89.279069 L58.3570378,99.4415491 Z M0,17.0434332 L0,0.0135139362 L13.599739,0.0135139362 L13.599739,17.0434332 L0,17.0434332 Z M3.43597192,13.6241928 L10.1832872,13.6241928 L10.1832872,3.47029303 L3.43597192,3.47029303 L3.43597192,13.6241928 Z M27.4961411,102.866152 L27.4961411,85.7980507 L41.07636,85.7980507 L41.07636,102.866152 L27.4961411,102.866152 Z M30.9179556,99.4048684 L37.6506844,99.4048684 L37.6506844,89.2432464 L30.9179556,89.2432464 L30.9179556,99.4048684 Z M0.0377532187,102.866152 L0.0377532187,85.8343023 L13.6372777,85.8343023 L13.6372777,102.866152 L0.0377532187,102.866152 Z M3.46149824,89.2406723 L3.46149824,99.4018653 L10.2519294,99.4018653 L10.2519294,94.2869477 L10.2519294,89.2406723 L3.46149824,89.2406723 Z M72.1020624,85.7810617 L78.8101229,85.7810617 L78.8101229,102.847447 L75.5032842,102.847447 L75.5032842,89.2481371 L72.1020624,89.2481371 L72.1020624,85.7810617 Z M44.6498523,85.8248855 L51.3857987,85.8248855 L51.3857987,102.843221 L47.9828609,102.843221 L47.9828609,89.2220316 L44.6498523,89.2220316 L44.6498523,85.8248855 Z M17.1383739,85.8463147 L23.9067109,85.8463147 L23.9067109,102.857786 L20.5706992,102.857786 L20.5706992,89.2310195 L17.1383739,89.2310195 L17.1383739,85.8463147 Z M17.1988005,0.0279931537 L23.9223056,0.0279931537 L23.9223056,17.0326006 L20.5777136,17.0326006 L20.5777136,3.3968244 L17.1988005,3.3968244 L17.1988005,0.0279931537 Z M44.645219,0.0175681171 L51.3903892,0.0175681171 L51.3903892,17.0451278 L48.0494438,17.0451278 L48.0494438,3.44817736 L44.645219,3.44817736 L44.645219,0.0175681171 Z M72.1119083,0.0260625913 L78.8742391,0.0260625913 L78.8742391,17.0347457 L75.4854587,17.0347457 L75.4854587,3.4277134 L72.1119083,3.4277134 L72.1119083,0.0260625913 Z M58.3003651,58.3654894 C58.3207433,52.6694725 53.7300806,48.0228235 48.0679558,48.0084516 C42.3633586,47.9938651 37.7325832,52.5673672 37.7092019,58.2391448 C37.6856061,63.928512 42.2777704,68.5773061 47.9431128,68.5994003 C53.6352685,68.6219235 58.279987,64.0321188 58.3003651,58.3654894 Z M54.8684688,58.259952 C54.8811247,62.070453 51.8248301,65.1539901 48.0218368,65.167504 C44.231714,65.1812324 41.1376661,62.0904022 41.1410982,58.2944876 C41.1445303,54.5487677 44.1986799,51.4671612 47.934318,51.4401334 C51.7405288,51.4126765 54.8558129,54.4766934 54.8684688,58.259952 Z M58.35086,71.9550822 L68.5461597,71.9550822 L68.5461597,61.7992519 L65.1247742,61.7992519 L65.1247742,68.6246477 L58.35086,68.6246477 L58.35086,71.9550822 Z M48.0892349,37.6573341 L54.8228217,37.6573341 L54.8228217,34.3522114 L48.0892349,34.3522114 L48.0892349,37.6573341 Z M48.0044617,61.7370878 C49.9125008,61.7349427 51.4646729,60.1583168 51.4380741,58.2489907 C51.4123333,56.3872851 49.871101,54.8724372 48.0031747,54.8728662 C46.0835522,54.8735097 44.5466101,56.4346911 44.5738525,58.3566732 C44.6004514,60.2228834 46.1391095,61.7392329 48.0044617,61.7370878 Z" id="Combined-Shape" fill="#291956"></path>
                    </g>
                </g>
            </g>
        </g>
    </g>
</svg>