<?xml version="1.0" encoding="UTF-8"?>
<svg width="96px" height="97px" viewBox="0 0 96 97" version="1.1" xmlns="http://www.w3.org/2000/svg" xmlns:xlink="http://www.w3.org/1999/xlink">
    <!-- Generator: Sketch 50.2 (55047) - http://www.bohemiancoding.com/sketch -->
    <title>icon</title>
    <desc>Created with Sketch.</desc>
    <defs>
        <linearGradient x1="50%" y1="100%" x2="50%" y2="0%" id="linearGradient-1">
            <stop stop-color="#EB0029" offset="0%"></stop>
            <stop stop-color="#FF0055" offset="100%"></stop>
        </linearGradient>
    </defs>
    <g id="Page-1" stroke="none" stroke-width="1" fill="none" fill-rule="evenodd">
        <g id="T.-Hunter---LandingPage" transform="translate(-162.000000, -1753.000000)">
            <g id="2-/-Services" transform="translate(130.000000, 1112.000000)">
                <g id="4" transform="translate(0.000000, 596.000000)">
                    <g id="icon" transform="translate(32.000000, 45.000000)">
                        <circle id="Oval-2" fill="url(#linearGradient-1)" cx="48" cy="48" r="41"></circle>
                        <path d="M65.5,65.3189941 L72.5,62.754834 L72.5,87.4189941 C72.5,89.3519908 70.9329966,90.9189941 69,90.9189941 L69,90.9189941 C67.0670034,90.9189941 65.5,89.3519908 65.5,87.4189941 L65.5,65.3189941 Z" id="Rectangle-6" fill="#FFFFFF"></path>
                        <circle id="Oval-3" fill="#FFFFFF" cx="37" cy="37" r="14"></circle>
                        <path d="M61.1075817,48.131482 L77.0365532,48.131482 L77.0365532,45.0362115 L61.1075817,45.0362115 L61.1075817,48.131482 Z M73.8078053,51.4593846 L64.3118421,51.4593846 L64.3118421,58.6523107 C66.5534594,57.8145143 68.7049544,57.01927 70.8492236,56.2043554 C71.8395657,55.8278086 73.2201033,55.6734566 73.6887796,54.9452521 C74.1951908,54.1588394 73.8437338,52.8198504 73.8632034,51.7219236 C73.8644077,51.6586974 73.8373108,51.5946684 73.8078053,51.4593846 Z M43.6047814,32.6370648 C39.9043464,36.3270624 36.2767721,39.943798 32.6216993,43.5884334 C35.8070922,45.6805159 39.9721891,45.208026 42.6015934,42.5804282 C45.2484601,39.9353679 45.7111149,35.796565 43.6047814,32.6370648 Z M30.2122818,41.1262271 C33.8799998,37.4665379 37.5302553,33.8243111 41.1650554,30.1975396 C38.2955926,28.1458014 33.9863803,28.5753377 31.2853197,31.2667638 C28.5796426,33.9630072 28.1513106,38.2641907 30.2122818,41.1262271 Z M73.8708307,58.6778019 C73.7014248,58.6778019 73.5942414,58.6501028 73.5091371,58.6818163 C70.6059535,59.7685029 67.6987557,60.8455551 64.8130346,61.9774032 C64.5500942,62.0807729 64.2815337,62.5323882 64.2642719,62.8364758 C64.2004436,63.9699297 64.2409887,65.1090037 64.2409887,66.2458698 C64.2403865,73.5363449 64.2259348,80.8266192 64.2446016,88.1168935 C64.2532325,91.4817282 67.1576203,93.7622848 70.321737,92.9423522 C72.4523574,92.3901773 73.8597912,90.4958019 73.8646084,88.0586854 C73.8800637,80.3003369 73.87063,72.5417877 73.8708307,64.7832386 L73.8708307,58.6778019 Z M14.045259,66.1063709 C10.3488384,71.4942411 6.88966635,76.8054371 4.58161138,82.7685648 C3.79700516,84.7958154 3.14948926,86.8638118 3.20890175,89.0815437 C3.26610635,91.2147734 4.30321567,92.3695034 6.40794342,92.5816622 C8.73004865,92.8161007 10.9100456,92.1701905 13.0549169,91.4102726 C18.4464001,89.5000405 23.3039736,86.5723694 28.0615897,83.4610415 C28.691041,83.0493691 29.3048363,82.6144134 30.040668,82.1118158 C23.1337649,78.3080112 17.8683326,73.0443853 14.045259,66.1063709 Z M82.1749311,30.0227143 C85.7790214,24.6585288 89.2058779,19.3545587 91.3092006,13.3555025 C92.0281721,11.3051693 92.517723,9.10811132 92.6780966,6.94577754 C92.8633592,4.44262478 91.4250148,3.16264682 88.9210592,3.22085501 C87.7338129,3.24835336 86.5198711,3.419365 85.3747756,3.73228418 C80.7580635,4.99359538 76.6206657,7.30486183 72.581419,9.79456649 C70.4407627,11.1142866 68.3575118,12.5269391 66.1102743,13.986961 C73.0878302,17.8160561 78.3496496,23.0863056 82.1749311,30.0227143 Z M59.4044905,14.7535026 C45.6663548,10.0310122 29.6215691,14.3617013 20.1093478,26.7811205 C11.639053,37.8396724 11.6133611,51.6667261 14.8770339,59.2771455 C19.2177589,54.1359576 23.5873873,48.9604469 27.9652451,43.7753017 C24.2878927,38.4442347 25.697133,32.6386705 28.884533,29.2585813 C31.7925338,26.1751532 37.7470306,23.8576645 43.8050978,27.9199938 C48.9982717,23.5367166 54.1733809,19.1688946 59.4044905,14.7535026 Z M60.9584484,81.0181041 L60.9584484,51.3867247 C60.3890117,51.3867247 59.8892242,51.4045886 59.3910424,51.3829111 C58.4320123,51.3411617 57.8370845,50.7665064 57.8262457,49.7960354 C57.8023603,47.6555799 57.8019589,45.5147229 57.826045,43.3742674 C57.8376867,42.3540184 58.4330159,41.7653128 59.4671145,41.7633056 C65.8553626,41.750259 72.2438115,41.7510619 78.6322604,41.7621013 C79.6721797,41.7639078 80.2757384,42.3441832 80.2877815,43.3576078 C80.3134734,45.4978626 80.3160827,47.6389203 80.2934016,49.7793759 C80.2829643,50.7813596 79.6603374,51.3570184 78.6388841,51.3907391 C78.1491324,51.4069972 77.6581765,51.3933484 77.1620019,51.3933484 L77.1620019,68.1884175 C77.3972432,67.8704804 77.5447709,67.6924436 77.6690152,67.4997544 C82.4962804,60.0035435 84.4193585,51.7965906 83.0279821,43.0143802 C81.1295923,31.0337303 74.6395802,22.2143871 63.871467,16.5687951 C63.3221022,16.280765 62.9519784,16.288593 62.4586138,16.6946453 C58.3298469,20.0946055 54.1635458,23.4490028 50.0412018,26.8563897 C48.6849511,27.9773991 47.4240413,29.2136205 46.1356332,30.3828022 C49.5675076,35.8086081 48.1558587,41.430114 44.8865658,44.7588194 C41.6778896,48.025503 36.000785,49.6679774 30.422032,46.1638446 C30.3094293,46.2634007 30.1717368,46.3573366 30.0687686,46.480176 C25.5664656,51.8650354 21.0603491,57.2466834 16.5913654,62.6590412 C16.3982748,62.8930782 16.4111207,63.4805795 16.5620606,63.7886814 C19.5017747,69.7899455 23.8007504,74.5953324 29.478658,78.1159242 C36.3504355,82.3765627 43.8446392,84.0983207 51.8886092,83.274976 C55.0125824,82.9552324 58.0576735,82.2264257 60.9584484,81.0181041 Z M61.0295025,84.6484885 C59.2989129,85.0910714 57.6704887,85.5764073 56.0123582,85.9196348 C48.6648793,87.4410764 41.4687416,86.8616039 34.4576659,84.193461 C33.6782783,83.8970007 33.1411572,83.9632376 32.4603222,84.4381361 C27.1388896,88.1504134 21.6570834,91.5973417 15.6156757,94.0422863 C12.5366634,95.2883429 9.37495521,96.2469715 5.98623514,95.962755 C2.56941457,95.6763306 0.110419746,92.9971482 0.0070500342,89.5684853 C-0.103746239,85.89033 1.10678333,82.5411514 2.55315642,79.2640305 C5.04667472,73.6136212 8.39605408,68.4625981 11.9802734,63.4587012 C12.3475871,62.9456663 12.4130211,62.5418219 12.1753712,61.9290302 C3.62318347,39.8530735 17.1794688,15.1443003 40.4031304,10.4236163 C47.7987816,8.9204401 55.0137867,9.51275858 62.0497515,12.2226508 C62.6037329,12.4360139 62.9590035,12.333447 63.4015865,12.0163128 C68.3235905,8.49010095 73.3868999,5.18929531 78.9265128,2.70039353 C82.2530103,1.20584815 85.6513649,-0.0671046863 89.3983664,0.00274513809 C93.1301133,0.0721935267 95.755704,2.59160443 95.9742857,6.30749466 C96.1928675,10.0294064 94.9861516,13.4151157 93.5624596,16.7410111 C91.1588629,22.3558932 87.9118497,27.4908589 84.4249786,32.479702 C83.9829978,33.1117626 83.8976927,33.6256004 84.167859,34.3887298 C89.142451,48.4389818 86.9443895,61.2979732 77.701933,72.9811592 C77.3639241,73.408889 77.1160375,74.0395446 77.1108188,74.5784721 C77.0648544,79.16046 77.080109,83.7432508 77.0863312,88.3258409 C77.0923528,92.6886448 73.5378397,96.3493376 69.2804126,96.3523484 C64.6066966,96.3555599 61.0278967,92.8943807 61.0295025,88.3726081 C61.0299039,87.1414046 61.0295025,85.9100004 61.0295025,84.6484885 Z M69.0538824,28.1530874 C69.0536817,27.3179003 69.0763628,26.482111 69.0476602,25.6479275 C69.0155453,24.7107757 68.3565885,24.0931668 67.4487415,24.0941704 C66.5414966,24.0951739 65.8725039,24.7115786 65.8560451,25.6543505 C65.8275431,27.290402 65.8267402,28.9280592 65.8564465,30.5643114 C65.8737082,31.513707 66.5366794,32.1188714 67.4529566,32.1178678 C68.3604021,32.1168643 69.0133374,31.5004596 69.0480616,30.5576877 C69.0771657,29.7572248 69.0538824,28.954554 69.0538824,28.1530874 Z M75.4770555,35.3657843 C75.4770555,34.7979534 75.5017438,34.2289182 75.4714354,33.6628938 C75.4210552,32.7259427 74.7578833,32.108133 73.8582657,32.1171653 C72.9592503,32.1261976 72.2972827,32.7528389 72.2723937,33.694005 C72.2434903,34.7951434 72.2463004,35.8986903 72.278616,37.0000293 C72.3061143,37.9321632 72.980125,38.547765 73.8885741,38.5407398 C74.7952168,38.5339154 75.4308904,37.9161058 75.4728404,36.9685166 C75.4967258,36.4352092 75.4772562,35.9000953 75.4770555,35.3657843 Z" id="Fill-1" fill="#291956"></path>
                    </g>
                </g>
            </g>
        </g>
    </g>
</svg>