<svg width="96" height="97" xmlns="http://www.w3.org/2000/svg"><defs><linearGradient x1="50%" y1="100%" x2="50%" y2="0%" id="a"><stop stop-color="#EB0029" offset="0%"/><stop stop-color="#F05" offset="100%"/></linearGradient></defs><g fill="none" fill-rule="evenodd"><circle fill="url(#a)" cx="62.5" cy="33.5" r="26.5"/><circle fill="#FFF" cx="70.5" cy="41.5" r="4.5"/><path d="M9.732 82.566l-5.425 5.427 3.743 3.853 5.472-5.474-3.79-3.806m6.203 1.253l24.538-24.502-3.946-3.964L11.91 79.88l4.025 3.94m46.48-80.565C45.616 3.302 32.034 16.92 32.04 33.708c.006 16.705 13.787 30.385 30.527 30.304 16.615-.081 30.247-13.748 30.231-30.31-.016-16.8-13.682-30.495-30.383-30.448m-19.03 58.14c-.25.239-.515.481-.77.736L9.685 95.046c-1.351 1.352-1.966 1.344-3.326-.023-1.831-1.842-3.666-3.682-5.5-5.521-1.15-1.155-1.15-1.864.027-3.039 10.93-10.924 21.862-21.847 32.797-32.767.328-.327.688-.623 1.062-.959-5.868-9.052-7.492-18.694-4.42-28.957 2.33-7.781 7.03-13.897 13.827-18.34 13.68-8.942 31.75-6.66 42.966 5.376 11.001 11.806 11.843 30.142 2.188 43.037-9.5 12.688-29.252 18.621-45.92 7.542zm43.217-27.788c-.01-13.379-10.802-24.16-24.185-24.16-13.387-.001-24.14 10.782-24.2 24.155-.059 13.36 11.102 24.584 24.85 24.228 12.98-.335 23.635-11.112 23.535-24.223zm-3.205.035c-.084 11.654-9.573 21.043-21.192 20.97-11.4-.07-20.834-9.651-20.77-21.09C41.499 22 51.11 12.537 62.628 12.65c11.397.111 20.85 9.666 20.769 20.991zm-36.97-.693v.3c0 1.301.527 1.964 1.569 1.98 1.047.014 1.526-.62 1.646-1.925.1-1.087.235-2.192.544-3.233 1.614-5.458 6.283-9.003 12.056-9.233 1.137-.045 1.762-.604 1.77-1.582.01-1.028-.645-1.662-1.833-1.597-1.19.064-2.399.152-3.55.432-6.96 1.691-12.13 8.02-12.202 14.858z" fill="#291956"/></g></svg>