<svg width="91" height="107" xmlns="http://www.w3.org/2000/svg"><defs><linearGradient x1="50%" y1="100%" x2="50%" y2="0%" id="a"><stop stop-color="#EB0029" offset="0%"/><stop stop-color="#F05" offset="100%"/></linearGradient></defs><g transform="translate(-1)" fill="none" fill-rule="evenodd"><path fill="#FFF" d="M21 28h45v31H21z"/><circle fill="url(#a)" cx="23.5" cy="85.5" r="11.5"/><circle fill="url(#a)" cx="84" cy="37" r="2"/><path d="M44.083 39.964c-.484.188-1.16.231-1.632.048-12.692-4.933-25.37-9.902-38.05-14.867-.565-.32-.385-1.02.01-1.174 12.603-4.94 25.204-9.885 37.819-14.794.518-.202 1.243-.247 1.75-.05 12.773 4.957 25.53 9.957 38.288 14.953.288.112.388.793.045.928a16138.43 16138.43 0 0 1-38.23 14.956z" fill="url(#a)"/><path d="M20.493 100.002l.27.178c.592-.65 1.159-1.325 1.783-1.942.993-.982 1.883-.981 2.879-.015.645.626 1.25 1.294 2.05 2.127v-6.957c-2.337.887-4.657.85-6.982.016v6.593zm3.462-9.523c2.827.025 5.298-2.403 5.339-5.246.041-2.826-2.373-5.307-5.216-5.362-2.883-.055-5.376 2.395-5.392 5.3-.016 2.823 2.426 5.283 5.27 5.308zM73.426 72.8c-2.864.032-5.255 2.459-5.235 5.311.02 2.922 2.47 5.34 5.365 5.295 2.833-.043 5.26-2.505 5.251-5.327-.008-2.902-2.465-5.313-5.381-5.28zm-7.117.003h-1.225l-34.357-.005c-5.708 0-11.416-.016-17.123.008-2.15.009-3.86.907-4.88 2.848-.995 1.892-.86 3.783.381 5.517 1.543 2.153 3.775 2.442 6.177 2.168 1.202-4.16 4.357-6.894 8.027-7 4.735-.137 7.707 2.065 9.437 7.007h33.519c-2.23-3.518-2.232-6.973.044-10.543zM32.883 86.95c-.557 1.145-1.075 2.15-1.532 3.18a3.22 3.22 0 0 0-.277 1.252c-.02 4.272-.026 8.544-.002 12.816.006.926-.182 1.7-1.109 2.069-.911.363-1.616-.016-2.257-.684-1.193-1.242-2.422-2.449-3.71-3.744-1.293 1.3-2.523 2.506-3.714 3.749-.64.667-1.35 1.058-2.257.703-.921-.36-1.129-1.138-1.123-2.066.025-4.051-.002-8.102.028-12.153.007-.943-.132-1.776-.657-2.6-.465-.73-.714-1.597-1.072-2.435-1.195-.091-2.503-.046-3.743-.313-4.523-.974-7.397-5.11-6.894-9.762.466-4.301 4.347-7.696 8.82-7.697 20.034-.005 40.068-.006 60.102-.008 4.924 0 8.862 3.909 8.86 8.798-.001 4.996-3.872 8.889-8.877 8.892-13.22.008-26.441.003-39.662.003h-.924zm54.754-49.477c.034-1.867-1.603-3.544-3.488-3.574-1.862-.028-3.545 1.617-3.574 3.495-.029 1.87 1.613 3.546 3.494 3.567 1.889.022 3.533-1.586 3.568-3.488zM79.088 18.01c-.482-.224-.725-.352-.98-.452C66.79 13.125 55.474 8.69 44.144 4.293c-.45-.175-1.092-.135-1.552.044-11.19 4.355-22.367 8.741-33.546 13.123-.35.137-.697.285-1.244.51.402.185.557.266.718.329 11.42 4.471 22.838 8.948 34.268 13.39.42.163 1.019.125 1.448-.042 9.583-3.724 19.155-7.478 28.728-11.228 1.965-.77 3.928-1.545 6.124-2.41zM18.715 62.116h49.439V26.21c-.509.182-.955.33-1.391.5-7.348 2.876-14.685 5.778-22.055 8.594-.738.282-1.77.285-2.507.004-7.371-2.813-14.709-5.713-22.056-8.587-.453-.177-.912-.34-1.43-.534v35.928zm67.161-31.621c4.83 1.792 5.73 5.583 5.206 8.286-.64 3.306-3.461 5.68-6.64 5.742-3.607.07-6.434-2.081-7.258-5.524-.85-3.555.861-6.408 5.132-8.529v-9.85l-5.458 2.128c-1.402.547-2.79 1.137-4.213 1.623-.71.242-.935.585-.933 1.342.03 12.042.023 24.084.025 36.125 0 .627 0 1.253-.008 1.878-.018 1.391-.625 2.002-2.03 2.005-4.972.009-9.944.009-14.915.009-12.41-.001-24.82-.004-37.23-.007-1.92 0-2.403-.485-2.404-2.406-.002-12.521-.014-25.042.017-37.562.002-.818-.281-1.129-.997-1.402-3.91-1.493-7.795-3.05-11.697-4.561-.864-.335-1.478-.812-1.474-1.82.004-1.009.637-1.477 1.492-1.81C15.826 10.951 29.152 5.72 42.505.556c.655-.254 1.605-.112 2.298.156C56.269 5.156 67.717 9.648 79.168 14.13c1.71.669 3.403 1.38 5.13 1.997 1.13.404 1.612 1.084 1.597 2.306-.05 4.012-.019 8.024-.019 12.062z" fill="#291956"/></g></svg>