<svg width="162" height="162" xmlns="http://www.w3.org/2000/svg"><g transform="translate(1 1)" fill="none" fill-rule="evenodd"><circle stroke="#E6E6E6" fill="#FFF" cx="80" cy="80" r="80"/><path d="M45.62 47.537a1.297 1.297 0 0 1-.41-.95 1.298 1.298 0 0 1 .379-.958c.259-.269.575-.408.948-.414.374-.007.695.119.963.377.269.26.407.578.412.952a1.3 1.3 0 0 1-.379.965 1.295 1.295 0 0 1-.948.408 1.302 1.302 0 0 1-.965-.38zm14.79-6.234c-.39.197-.743.238-1.062.126-.319-.112-.582-.372-.788-.781l-1.52-3.02-.594.298a.216.216 0 0 1-.156.019c-.05-.012-.092-.05-.125-.116l-.174-.345.757-.51-.567-1.625a.238.238 0 0 1 .006-.154.21.21 0 0 1 .11-.112l.439-.22.855 1.699 1.427-.718.316.628-1.427.718 1.49 2.963c.105.208.234.336.385.386.151.05.306.035.466-.045a.82.82 0 0 0 .218-.156c.054-.058.098-.114.132-.167.034-.054.062-.103.084-.144a.181.181 0 0 1 .071-.08c.046-.023.1-.017.164.021l.461.286a1.792 1.792 0 0 1-.375.6 2.057 2.057 0 0 1-.592.449zm4.537-2.104l-2.52-7.627.926-.306 1.02 3.086c.146-.312.331-.586.557-.82a2.11 2.11 0 0 1 .871-.525c.287-.095.556-.131.806-.109.251.023.478.096.683.222.204.126.384.3.541.52.157.22.285.478.383.776l1.104 3.34-.927.305-1.104-3.34c-.131-.396-.323-.676-.577-.835-.253-.16-.565-.177-.935-.055a1.65 1.65 0 0 0-.703.45 2.58 2.58 0 0 0-.474.75l1.276 3.862-.927.306zm10.169-8.034c.328-.04.64-.021.932.055.293.076.554.206.783.39a2.2 2.2 0 0 1 .57.71c.153.292.252.633.3 1.023.017.151.013.254-.013.31-.027.054-.085.087-.175.097l-3.666.44c.05.345.132.641.25.888.117.245.261.444.433.597.173.153.369.26.588.32.22.059.46.074.72.043a2.1 2.1 0 0 0 .616-.16 3.054 3.054 0 0 0 .725-.454.417.417 0 0 1 .209-.11.213.213 0 0 1 .195.07l.312.32c-.101.158-.229.3-.382.426s-.32.237-.501.327a3.581 3.581 0 0 1-1.165.348 2.8 2.8 0 0 1-1.07-.067 2.313 2.313 0 0 1-.896-.463 2.592 2.592 0 0 1-.654-.852 3.74 3.74 0 0 1-.346-1.233 3.212 3.212 0 0 1 .048-1.093 2.53 2.53 0 0 1 .402-.925 2.35 2.35 0 0 1 .737-.67c.301-.178.65-.29 1.048-.337zm.106.707c-.466.055-.816.233-1.05.534-.236.301-.357.695-.364 1.179l3-.36a1.934 1.934 0 0 0-.168-.604 1.392 1.392 0 0 0-.334-.449 1.26 1.26 0 0 0-.48-.261 1.506 1.506 0 0 0-.604-.039zm13.388 5.359l1.547-5.304.56.163c.133.039.196.128.19.265l-.09.566c.265-.184.542-.317.831-.4.29-.082.595-.077.916.017.356.104.616.288.78.551.164.264.244.58.243.946.133-.17.281-.307.442-.41a1.747 1.747 0 0 1 1.043-.287 2.26 2.26 0 0 1 1.242.438c.191.152.34.337.44.552.103.215.157.459.164.731a2.88 2.88 0 0 1-.129.892l-.985 3.377-.937-.273.985-3.376c.12-.416.122-.758.003-1.026-.118-.268-.35-.45-.691-.55a1.223 1.223 0 0 0-.46-.047c-.154.014-.3.058-.435.132a1.17 1.17 0 0 0-.362.323 1.624 1.624 0 0 0-.255.526l-.984 3.376-.938-.272.986-3.377c.124-.426.131-.768.02-1.028-.11-.26-.328-.436-.656-.532a1.215 1.215 0 0 0-.692-.002 2.208 2.208 0 0 0-.687.349l-1.153 3.953-.938-.273zm15.919.255c.347.204.628.445.839.724.212.28.354.584.427.913.073.329.075.675.003 1.04a3.561 3.561 0 0 1-.437 1.107c-.22.376-.47.685-.75.925-.282.24-.585.408-.907.506a2.294 2.294 0 0 1-1.003.073 2.854 2.854 0 0 1-1.043-.377 2.873 2.873 0 0 1-.846-.727 2.3 2.3 0 0 1-.432-.911 2.514 2.514 0 0 1-.002-1.037 3.54 3.54 0 0 1 .435-1.11 3.55 3.55 0 0 1 .752-.922c.282-.243.583-.412.906-.51a2.34 2.34 0 0 1 1.008-.074c.348.049.698.174 1.05.38zm-2.488 4.256c.47.276.915.323 1.332.143.416-.18.79-.551 1.119-1.116.332-.569.475-1.08.428-1.532-.048-.453-.306-.816-.777-1.092a1.7 1.7 0 0 0-.694-.242 1.346 1.346 0 0 0-.65.095 1.806 1.806 0 0 0-.594.412 3.47 3.47 0 0 0-.533.71c-.33.565-.47 1.074-.42 1.525.05.453.312.818.789 1.097zm8.165 6.937c-.104-.091-.124-.2-.063-.324l.377-.561c-.367.06-.72.053-1.063-.017a2.077 2.077 0 0 1-.956-.495 1.991 1.991 0 0 1-.526-.707 1.79 1.79 0 0 1-.142-.838c.02-.298.109-.61.268-.941.159-.33.39-.666.692-1.01.269-.306.56-.555.874-.747.314-.192.631-.317.955-.376.323-.06.646-.047.966.038.32.085.617.25.896.494.254.224.435.458.54.704.108.245.161.508.167.789l2.023-2.302.729.64-5.302 6.035-.435-.382zm-.95-1.778c.241.211.5.341.774.39.275.047.575.037.9-.03l1.76-2.004c.022-.3-.014-.557-.107-.77a1.658 1.658 0 0 0-.435-.578c-.385-.338-.803-.461-1.253-.367-.45.093-.9.395-1.348.906-.237.27-.418.522-.54.754a1.77 1.77 0 0 0-.213.656c-.02.204.011.391.092.564.08.173.205.333.37.479zm10.093 3.748c.203.261.348.537.433.828.084.29.107.582.067.872-.038.29-.145.575-.316.855-.172.28-.414.541-.724.781-.121.094-.211.143-.272.148-.06.006-.118-.027-.174-.1l-2.26-2.918c-.272.22-.483.443-.634.67-.15.227-.246.453-.29.68-.042.226-.033.448.029.667.06.22.172.433.332.64.149.193.3.342.453.446a2.916 2.916 0 0 0 .764.389.427.427 0 0 1 .2.122.21.21 0 0 1 .04.204l-.113.433a1.825 1.825 0 0 1-.563-.11 2.67 2.67 0 0 1-.538-.261 3.551 3.551 0 0 1-.897-.82 2.812 2.812 0 0 1-.492-.953 2.306 2.306 0 0 1-.063-1.007c.054-.337.184-.671.395-1 .21-.328.503-.637.88-.929a3.22 3.22 0 0 1 .962-.52c.337-.112.67-.156 1-.132.33.026.649.122.955.289.307.167.582.41.826.726zm-.551.455c-.287-.372-.62-.58-.998-.628-.38-.046-.78.052-1.199.294l1.85 2.389c.178-.138.323-.29.432-.454.11-.166.181-.339.214-.518.033-.18.025-.362-.022-.546a1.511 1.511 0 0 0-.277-.537zm-.5 8.274l4.935-2.484.25.498c.047.094.062.168.044.22-.018.055-.067.11-.148.167l-.723.431c.416-.013.777.046 1.083.18.305.133.54.363.704.691.052.104.092.21.117.318a.92.92 0 0 1 .022.309l-.68.262c-.091.021-.156-.006-.196-.084a1.162 1.162 0 0 1-.071-.215 1.527 1.527 0 0 0-.12-.311 1.297 1.297 0 0 0-.28-.384 1.099 1.099 0 0 0-.37-.225 1.57 1.57 0 0 0-.46-.091 3.21 3.21 0 0 0-.55.021l-3.118 1.569-.44-.872zm2.819 6.153l5.324-1.471.155.562c.037.133-.005.234-.126.302l-.558.233c.32.16.599.362.836.606.236.244.407.554.51.928.082.291.105.562.07.811-.035.25-.12.473-.255.67a1.88 1.88 0 0 1-.547.515 2.91 2.91 0 0 1-.793.344l-3.39.937-.26-.94 3.39-.938c.403-.11.691-.289.863-.534.171-.246.204-.557.1-.932a1.63 1.63 0 0 0-.414-.724 2.583 2.583 0 0 0-.725-.511l-3.92 1.083-.26-.94zm2.217 16.881c.015-.435.146-.766.398-.992.25-.227.605-.333 1.063-.319l3.38.11.02-.665a.215.215 0 0 1 .059-.146c.035-.039.089-.057.161-.054l.387.012.086.909 1.698.278c.054.013.099.04.132.079a.21.21 0 0 1 .046.15l-.015.492-1.903-.062-.051 1.597-.703-.022.051-1.598-3.314-.107c-.233-.007-.407.043-.523.152a.59.59 0 0 0-.183.43.767.767 0 0 0 .033.267c.024.076.052.14.083.195.03.056.06.104.086.144a.177.177 0 0 1 .037.1c-.002.052-.034.096-.097.134l-.472.268a1.796 1.796 0 0 1-.348-.616 2.066 2.066 0 0 1-.111-.736zm4.541 8.495c-.076.322-.2.608-.373.856a2.09 2.09 0 0 1-.636.6 2.19 2.19 0 0 1-.866.29c-.325.041-.68.017-1.062-.075-.148-.035-.244-.074-.286-.118-.042-.044-.052-.11-.03-.198l.854-3.592a3.07 3.07 0 0 0-.918-.073 1.866 1.866 0 0 0-.712.2c-.203.11-.37.256-.502.441-.132.186-.23.406-.29.66a2.08 2.08 0 0 0-.064.634 3.053 3.053 0 0 0 .177.838.413.413 0 0 1 .03.233.212.212 0 0 1-.133.159l-.408.183a1.838 1.838 0 0 1-.268-.507 2.664 2.664 0 0 1-.134-.583 3.602 3.602 0 0 1 .076-1.213c.088-.371.233-.698.433-.98.2-.284.45-.51.746-.681a2.61 2.61 0 0 1 1.025-.32 3.77 3.77 0 0 1 1.276.102c.375.09.711.231 1.01.424.298.192.541.424.728.697.188.272.313.58.374.924.063.344.046.71-.047 1.099zm-.699-.145c.108-.456.063-.846-.138-1.17-.2-.325-.529-.575-.98-.75l-.7 2.94c.219.052.428.07.624.051.198-.019.376-.07.538-.158.16-.087.297-.207.41-.36.113-.153.194-.337.246-.553zm-3.984 10.282a.414.414 0 0 1-.048-.118.197.197 0 0 1 .02-.123.325.325 0 0 1 .138-.134c.069-.04.147-.093.237-.157a1.693 1.693 0 0 0 .562-.699c.114-.248.171-.486.17-.715a1.385 1.385 0 0 0-.161-.647 1.9 1.9 0 0 0-.467-.563 3.302 3.302 0 0 0-.744-.46 3.128 3.128 0 0 0-.856-.269 1.912 1.912 0 0 0-.731.022 1.41 1.41 0 0 0-.579.291 1.56 1.56 0 0 0-.406.548 1.72 1.72 0 0 0-.167.566c-.012.162-.009.303.012.424.02.119.044.221.067.306a.308.308 0 0 1-.007.215.213.213 0 0 1-.162.13l-.436.1a1.926 1.926 0 0 1-.176-.532 2.653 2.653 0 0 1 .057-1.126c.05-.19.118-.375.202-.556.144-.314.336-.578.575-.794a2.2 2.2 0 0 1 .827-.47 2.6 2.6 0 0 1 1.024-.092 3.61 3.61 0 0 1 1.172.335c.373.172.694.384.963.633.27.25.473.53.61.835.138.304.203.633.198.984a2.73 2.73 0 0 1-.272 1.097c-.162.353-.362.64-.6.856-.238.216-.509.38-.813.492l-.21-.379zm-6.048 1.796l6.513 4.701-.571.792-2.635-1.902c.065.338.075.668.03.99a2.12 2.12 0 0 1-.399.936 2.008 2.008 0 0 1-.588.562 1.553 1.553 0 0 1-.684.22 1.883 1.883 0 0 1-.743-.104 2.894 2.894 0 0 1-.765-.404l-2.852-2.059.571-.792 2.853 2.06c.339.244.658.357.957.338.298-.02.561-.189.789-.504a1.64 1.64 0 0 0 .306-.777 2.587 2.587 0 0 0-.055-.884l-3.298-2.382.571-.791zm-5.43 7.026l3.784 4.025-.425.4c-.1.094-.209.104-.325.028l-.467-.385c.007.358-.042.699-.147 1.022-.105.323-.3.619-.583.885a1.99 1.99 0 0 1-.685.44 1.556 1.556 0 0 1-.713.085 1.886 1.886 0 0 1-.71-.243 2.892 2.892 0 0 1-.674-.542l-2.408-2.563.71-.669 2.41 2.563c.286.305.578.477.875.515.297.037.588-.078.871-.344.212-.2.361-.434.448-.706.086-.271.125-.565.115-.878l-2.787-2.964.712-.67zm-5.7 11.775a2.815 2.815 0 0 1-1.03.412 2.338 2.338 0 0 1-1.006-.042 2.505 2.505 0 0 1-.925-.476 3.59 3.59 0 0 1-.782-.898 3.571 3.571 0 0 1-.474-1.094 2.505 2.505 0 0 1-.032-1.037c.062-.331.195-.639.397-.924.203-.285.475-.536.816-.75a2.875 2.875 0 0 1 1.035-.418 2.31 2.31 0 0 1 1.008.037c.326.087.632.246.922.476.29.23.55.53.784.898.23.366.388.731.472 1.093.085.362.096.706.034 1.038a2.322 2.322 0 0 1-.398.929c-.204.287-.477.54-.821.756zm-2.63-4.169c-.463.292-.708.664-.741 1.117-.033.452.125.954.474 1.508.351.556.74.918 1.162 1.085.424.167.867.105 1.328-.186.233-.148.41-.316.534-.505.123-.19.195-.397.215-.62.02-.223-.01-.462-.092-.717a3.515 3.515 0 0 0-.384-.801c-.35-.553-.736-.91-1.16-1.076-.424-.163-.87-.1-1.337.195zm-3.907 10.254l-3.258-7.342.887-.394 3.258 7.343-.887.393zm-8.42.114a2.813 2.813 0 0 1-1.108.041 2.333 2.333 0 0 1-.934-.378 2.49 2.49 0 0 1-.71-.76 3.565 3.565 0 0 1-.434-1.108 3.56 3.56 0 0 1-.08-1.19c.043-.366.15-.696.32-.987a2.32 2.32 0 0 1 .685-.736c.287-.2.626-.345 1.02-.433a2.884 2.884 0 0 1 1.116-.044c.346.058.659.183.936.373.278.192.514.445.707.759.196.314.342.684.437 1.11.094.422.12.818.078 1.187-.043.37-.149.699-.318.99-.17.29-.4.537-.688.74a2.82 2.82 0 0 1-1.027.436zm-1.075-4.811c-.533.12-.89.386-1.073.802-.183.415-.203.941-.06 1.58.144.643.387 1.113.73 1.413.342.3.78.39 1.31.271.271-.06.495-.159.675-.296.18-.136.317-.307.41-.511.095-.203.147-.438.156-.706a3.525 3.525 0 0 0-.093-.884c-.143-.638-.386-1.105-.73-1.402-.345-.298-.786-.387-1.325-.267zm-8.533 6.046a2.723 2.723 0 0 1-.672-.066 2.12 2.12 0 0 1-.572-.222l-1.5.028-.006-.36c-.002-.12.073-.198.225-.234l.625-.099a1.67 1.67 0 0 1-.199-.786 1.694 1.694 0 0 1 .14-.736c.1-.222.24-.413.42-.573.178-.16.394-.284.647-.372.253-.088.528-.135.827-.14a2.79 2.79 0 0 1 .738.079.901.901 0 0 0 .258-.24.421.421 0 0 0 .087-.247.326.326 0 0 0-.167-.293 1.13 1.13 0 0 0-.424-.138 4.623 4.623 0 0 0-.599-.043 20.66 20.66 0 0 1-.688-.022 6.374 6.374 0 0 1-.689-.073 2.05 2.05 0 0 1-.6-.186 1.122 1.122 0 0 1-.43-.368c-.11-.158-.167-.364-.17-.618a1.424 1.424 0 0 1 .163-.69c.114-.224.281-.424.5-.601a2.61 2.61 0 0 1 .806-.429c.32-.11.683-.17 1.086-.176.404-.007.757.026 1.06.1.303.075.556.177.759.308a1.4 1.4 0 0 1 .457.46c.103.174.157.356.161.549a.997.997 0 0 1-.244.697 1.777 1.777 0 0 1-.69.466.979.979 0 0 1 .393.285c.096.12.147.283.151.49a.788.788 0 0 1-.04.25.953.953 0 0 1-.13.255 1.446 1.446 0 0 1-.516.451c.275.148.491.347.65.598.157.252.238.546.244.88.005.27-.043.515-.143.737-.1.222-.24.412-.422.57-.183.158-.402.28-.658.368a2.66 2.66 0 0 1-.838.14zm-1.858-5.884a.468.468 0 0 0 .12.325c.078.082.18.146.31.191.13.045.282.076.453.093.171.017.351.028.542.036l.583.022c.196.007.386.022.568.044.201-.098.365-.22.491-.363a.728.728 0 0 0 .083-.855.81.81 0 0 0-.296-.272 1.7 1.7 0 0 0-.498-.177 3.16 3.16 0 0 0-.7-.056 3.192 3.192 0 0 0-.703.084 1.78 1.78 0 0 0-.524.212.983.983 0 0 0-.323.316.721.721 0 0 0-.106.4zm1.804 2.967a1.514 1.514 0 0 0-.516.091 1.063 1.063 0 0 0-.372.236c-.1.1-.174.22-.223.357a1.274 1.274 0 0 0-.068.45c.006.339.113.605.322.801.21.197.51.291.898.284.393-.007.689-.112.89-.316.202-.204.3-.475.295-.813a1.25 1.25 0 0 0-.088-.447.965.965 0 0 0-.238-.349 1.052 1.052 0 0 0-.38-.222 1.508 1.508 0 0 0-.52-.072zm-8.326 2.354l.735-5.475.962.129-.735 5.475-.962-.129zm-.436 1.691a.613.613 0 0 1 .09-.253.741.741 0 0 1 .423-.316.676.676 0 0 1 .724.25.72.72 0 0 1 .117.235.684.684 0 0 1-.071.53.709.709 0 0 1-.41.32.681.681 0 0 1-.53-.072.685.685 0 0 1-.202-.176.74.74 0 0 1-.121-.241.663.663 0 0 1-.02-.277zm-8.101-4.687a.445.445 0 0 1 .11-.065.199.199 0 0 1 .124.002.325.325 0 0 1 .154.117c.05.062.112.132.19.21.077.08.177.162.298.245.122.082.282.152.477.209.261.076.505.098.73.064a1.38 1.38 0 0 0 .617-.256c.186-.136.348-.317.489-.545a3.26 3.26 0 0 0 .345-.803c.094-.32.14-.616.14-.887 0-.27-.044-.51-.13-.719a1.407 1.407 0 0 0-.373-.53 1.547 1.547 0 0 0-.602-.32 1.698 1.698 0 0 0-.584-.082 1.707 1.707 0 0 0-.417.073 3.78 3.78 0 0 0-.294.111.305.305 0 0 1-.213.026.215.215 0 0 1-.153-.141l-.162-.417a1.91 1.91 0 0 1 .5-.252 2.5 2.5 0 0 1 .546-.115 2.67 2.67 0 0 1 .576.006c.194.022.387.06.58.116.331.097.62.248.87.454.248.205.444.455.586.748a2.6 2.6 0 0 1 .243.999 3.63 3.63 0 0 1-.16 1.208 3.625 3.625 0 0 1-.485 1.046 2.568 2.568 0 0 1-.735.727 2.271 2.271 0 0 1-.945.34 2.72 2.72 0 0 1-1.124-.107 2.61 2.61 0 0 1-.935-.467 2.454 2.454 0 0 1-.606-.732l.343-.263zm-5.709-7.523c.084.043.14.091.171.143.032.05.039.122.023.216l-.142.51c.188-.05.368-.086.54-.114.172-.027.342-.037.508-.03.167.006.336.034.506.079.171.046.351.117.538.214.19.1.355.22.495.362a1.268 1.268 0 0 1 .396 1.024 1.58 1.58 0 0 1-.19.634 1.238 1.238 0 0 1-.451.476c-.2.124-.455.192-.766.206-.31.014-.681-.033-1.112-.145-.43-.111-.926-.306-1.49-.584l-.2.382c-.198.38-.266.712-.204.993.063.28.253.503.57.666.212.112.403.178.574.2.172.022.326.027.466.015.139-.011.26-.024.363-.038a.441.441 0 0 1 .269.038c.057.03.1.072.125.124a.461.461 0 0 1 .048.169l.01.356c-.406.12-.8.162-1.18.129-.38-.034-.76-.15-1.14-.35a2.092 2.092 0 0 1-.66-.514 1.687 1.687 0 0 1-.364-1.414 2.74 2.74 0 0 1 .282-.813l1.633-3.133.382.199zm1.573 1.49a1.857 1.857 0 0 0-1.292-.183c-.145.028-.291.07-.441.121l-.53 1.017c.404.193.757.338 1.061.433.305.096.567.148.784.16.218.01.395-.018.532-.087a.693.693 0 0 0 .31-.305.906.906 0 0 0 .111-.367.702.702 0 0 0-.053-.319.777.777 0 0 0-.188-.264 1.33 1.33 0 0 0-.294-.206zm-11.05 1.91l4.701-6.514.787.568-4.702 6.513-.787-.567zm-3.231-14.008l-6.58 4.61-.56-.8 2.663-1.865a3.006 3.006 0 0 1-.945-.296 2.12 2.12 0 0 1-.754-.684 2.01 2.01 0 0 1-.337-.741 1.553 1.553 0 0 1 .017-.718c.061-.231.176-.455.342-.668.165-.214.376-.41.632-.589l2.881-2.018.56.8-2.88 2.018c-.343.24-.556.503-.635.793-.08.288-.006.592.217.91.166.239.378.42.633.544.257.125.541.205.854.24l3.332-2.335.56.8zm-10.248-6.048l3.22-1.428c.383-.17.64-.39.772-.656.132-.268.118-.58-.04-.94a1.672 1.672 0 0 0-.51-.65 2.49 2.49 0 0 0-.795-.405l-3.723 1.65-.394-.886 5.05-2.24.234.529c.057.126.03.233-.078.32l-.513.311c.34.112.644.272.913.479.268.206.482.486.638.838.122.276.184.54.186.79.002.252-.047.487-.15.703a1.805 1.805 0 0 1-.46.589 2.94 2.94 0 0 1-.736.455l-3.22 1.428-.394-.887zm2.204-9.666l-5.392 1.205-.127-.57c-.03-.135.017-.233.141-.295l.57-.204a3.074 3.074 0 0 1-.804-.648 2.104 2.104 0 0 1-.465-.952 1.997 1.997 0 0 1-.029-.814c.048-.247.144-.466.29-.657a1.88 1.88 0 0 1 .57-.486 2.88 2.88 0 0 1 .81-.304l3.433-.766.213.952-3.433.766c-.408.091-.706.255-.889.492-.184.236-.232.545-.147.924.063.285.19.532.378.744.19.214.422.397.698.548l3.97-.888.213.953zm-1.42-10.368c.009.436-.107.772-.347 1.011-.239.24-.587.364-1.045.372l-3.38.063.011.665a.216.216 0 0 1-.05.147c-.033.04-.086.061-.158.063l-.388.007-.131-.902-1.71-.193a.243.243 0 0 1-.136-.072.216.216 0 0 1-.054-.148l-.009-.491 1.903-.034-.03-1.598.704-.013.03 1.597 3.314-.06c.233-.005.405-.064.515-.179a.59.59 0 0 0 .161-.44.763.763 0 0 0-.046-.263 1.182 1.182 0 0 0-.186-.33.18.18 0 0 1-.042-.099c-.002-.051.03-.096.09-.139l.458-.29a1.8 1.8 0 0 1 .379.598c.093.235.142.477.147.728zm-5.367-6.48l5.505.459-.08.967-5.506-.457.081-.968zm-1.711-.35a.61.61 0 0 1 .258.08.755.755 0 0 1 .205.169.695.695 0 0 1 .087.768.694.694 0 0 1-.398.332.688.688 0 0 1-.532-.044.711.711 0 0 1-.341-.394.676.676 0 0 1 .044-.532.678.678 0 0 1 .167-.21.75.75 0 0 1 .235-.135.665.665 0 0 1 .275-.034zm7.802-3.547l-5.304-1.547.164-.56c.038-.133.127-.196.265-.19l.598.094a3.063 3.063 0 0 1-.392-.954 2.108 2.108 0 0 1 .053-1.058c.085-.29.206-.533.367-.727.16-.193.35-.339.57-.435a1.89 1.89 0 0 1 .735-.152c.27-.004.556.037.856.125l3.376.985-.273.937-3.376-.984c-.402-.118-.74-.118-1.016 0-.275.119-.466.366-.575.74a1.64 1.64 0 0 0-.028.834c.063.277.179.55.348.815l3.906 1.14-.274.937zm-1.342-12.749c.11-.212.236-.399.38-.558.141-.16.298-.292.467-.396l.693-1.33.32.166c.106.056.138.16.097.31l-.213.596c.267 0 .53.067.787.201.238.125.431.283.578.475.148.195.249.409.304.643a1.9 1.9 0 0 1 .017.746 2.65 2.65 0 0 1-.273.793 2.82 2.82 0 0 1-.422.61.91.91 0 0 0 .086.342.42.42 0 0 0 .176.194.326.326 0 0 0 .337-.006c.11-.064.218-.165.324-.307.106-.142.215-.31.325-.506.11-.194.225-.392.348-.593.123-.2.255-.39.393-.57.14-.18.289-.325.45-.438.162-.112.338-.18.53-.201.19-.022.399.028.625.145.21.11.386.266.527.475.142.207.238.449.289.725.05.277.047.58-.01.914a3.54 3.54 0 0 1-.364 1.038 4.147 4.147 0 0 1-.596.882c-.21.231-.42.404-.633.519a1.394 1.394 0 0 1-.621.183 1.113 1.113 0 0 1-.56-.122.996.996 0 0 1-.496-.547 1.77 1.77 0 0 1-.078-.828.986.986 0 0 1-.44.207c-.15.028-.318-.006-.501-.102a.758.758 0 0 1-.201-.153.974.974 0 0 1-.162-.236 1.438 1.438 0 0 1-.149-.67c-.261.17-.54.265-.836.283a1.68 1.68 0 0 1-.89-.205 1.701 1.701 0 0 1-.579-.478 1.61 1.61 0 0 1-.298-.643 1.973 1.973 0 0 1-.009-.754c.044-.265.136-.533.278-.804zm6.056 1.183a.469.469 0 0 0-.343-.05.761.761 0 0 0-.316.182 1.94 1.94 0 0 0-.299.353 8.3 8.3 0 0 0-.29.459c-.1.164-.198.331-.298.5-.101.17-.204.329-.31.478-.011.225.017.426.083.606s.186.316.36.407a.66.66 0 0 0 .35.074.806.806 0 0 0 .382-.13c.13-.08.26-.198.393-.352.131-.155.26-.35.385-.589.12-.233.208-.45.262-.657.053-.205.075-.393.064-.56a.997.997 0 0 0-.123-.436.732.732 0 0 0-.3-.285zm-3.47.166a1.47 1.47 0 0 0 .167-.498 1.05 1.05 0 0 0-.029-.439.937.937 0 0 0-.206-.366 1.256 1.256 0 0 0-.363-.275c-.3-.157-.585-.19-.858-.1-.272.088-.498.307-.679.652-.18.348-.23.659-.148.934.083.274.273.49.573.646.145.076.29.12.436.137a.973.973 0 0 0 .796-.27 1.51 1.51 0 0 0 .311-.421z" fill="#E2061D"/><path d="M71.967 54.063c.021-1.345.647-5.826-1.029-6.434-1.558-.567-1.81 1.606-2.002 2.686-.763 4.289-.83 10.632-.819 15.031.008 2.559.021 4.864.025 7.122-6.074 2.02-11.707 3.86-14.117 4.616-1.576.495-1.694 2.007-.8 2.353.476.185 7.326-1.996 14.915-4.474-.015 5.763-.134 8.74-.622 18.31-3.6 1.192-9.566 2.447-13 3.588-1.385.46-1.963.57-1.624 1.97.016.07.044.133.081.188a1.886 1.886 0 0 0 .609.718c.182.132.349.224.552.32 2.115.913 5.185 1.232 7.373 1.811a18.54 18.54 0 0 1 1.503.512c.997.422 1.876.822 2.733 1.5.284.22.607.428.904.637.163.112.436.371.764.703.037 1.895.122 3.573.264 4.625.192 1.424.511 2.761 2.237 2.785 2.763.04 2.292-5.648 1.672-7.353-.35-.962-.673-.653-.8-1.885-.106-1.028-.064-3.87.17-8.261 1.853-.772 9.402-3.351 17.12-5.933-.045 5.658-.037 11.303-.133 17.238-.021 1.345-.321 5.899 2.162 6.194 2.482.295 2.596-4.992 2.395-6.07-.821-4.402-.774-7.046-.786-11.445-.007-2.559-.02-4.863-.024-7.121 6.074-2.02 11.707-3.86 14.117-4.616 1.576-.495 1.694-2.007.799-2.354-.475-.184-7.326 1.997-14.914 4.474.015-5.762.134-8.739.622-18.309 3.6-1.193 9.575-2.476 13.007-3.617 1.386-.46 1.965-.57 1.626-1.97-.288-1.191-3.686-.349-5.344.123-2.573.732-7.21 2.234-9.318 2.78.044-1.305.246-9.912-.098-14.422-.205-2.681-.439-2.77-1.329-2.683-2.44.24-1.84 15.248-1.983 17.93-1.852.773-9.401 3.352-17.12 5.933.046-5.657.117-11.264.212-17.2m16.134 32.611c-7.748 2.542-15.352 5.059-17.03 5.428.434-8.435.59-12.17.66-18.314 7.748-2.543 15.352-5.059 17.03-5.429-.434 8.437-.59 12.17-.66 18.315M56.923 98.971c-.898-.757 7.464-2.196 10.624-3.015a130.09 130.09 0 0 0-.159 6.483c-1.135-.85-2.22-1.403-3.63-1.951-.852-.316-1.637-.543-2.494-.807-1.058-.328-3.303-.369-4.34-.71" fill="#211346"/></g></svg>