<svg width="280" height="58" xmlns="http://www.w3.org/2000/svg"><g fill="none" fill-rule="evenodd"><path d="M53.462 18.15a37.039 37.039 0 0 0-1.284-3.02 33.47 33.47 0 0 0-1.575-2.884c-.929-1.446-1.868-2.743-2.953-3.905a17.168 17.168 0 0 0-3.813-3.078c-1.437-.78-2.766-1.354-4.14-1.79-1.374-.436-2.798-.734-4.422-.956-1.69-.185-3.204-.246-4.705-.17-1.499.075-2.992.288-4.645.648-2.257.557-4.282 1.298-6.1 2.33a17.403 17.403 0 0 0-4.86 4.08c-.364.435-.662.801-.958 1.164-.633.777-1.244 1.528-1.773 2.111-.294.327-.564.6-.795.794-.262.22-.493.35-.684.36l-.12.006-.077-.095c-.164-.203-.214-.47-.17-.783.04-.295.167-.64.357-1.013.245-.482.6-1.023 1.02-1.585a27.199 27.199 0 0 1 1.592-1.919c1.67-1.847 3.448-3.326 5.434-4.512 1.983-1.185 4.17-2.076 6.66-2.75h.007C27.228.759 28.83.499 30.444.39c1.614-.11 3.242-.07 5.064.102h.007c1.777.216 3.34.522 4.857.983 1.517.462 2.982 1.076 4.565 1.912l.008.004a19.33 19.33 0 0 1 4.327 3.384c1.22 1.27 2.277 2.692 3.327 4.298l.002.005a35.543 35.543 0 0 1 1.712 3.061 39.098 39.098 0 0 1 1.396 3.204l.002.003c.33.884.616 1.737.872 2.597.255.859.48 1.728.686 2.648l.002.004c.467 2.255.743 4.297.806 6.345.064 2.049-.086 4.102-.47 6.381l-.001.008c-.468 2.274-1.072 4.214-1.958 6.025-.887 1.811-2.057 3.49-3.656 5.24l-.005.006c-1.482 1.514-2.886 2.822-4.389 4.02a38.583 38.583 0 0 1-4.966 3.354l-.006.004c-1.742.94-3.332 1.664-4.988 2.219-1.654.555-3.369.94-5.363 1.203h-.007c-2.031.205-3.813.222-5.578.043-1.764-.179-3.507-.551-5.462-1.126l-.007-.002c-2.217-.72-4.122-1.532-5.938-2.503-1.813-.97-3.538-2.098-5.398-3.45l-.007-.006C7.89 48.803 6.36 47.233 5.099 45.48c-1.26-1.75-2.25-3.683-3.154-5.964l-.003-.008C1.084 37.086.537 34.874.25 32.629c-.288-2.243-.315-4.513-.138-7.047l.002-.01c.382-3.629 1.13-7.013 2.437-10.155 1.308-3.147 3.176-6.051 5.798-8.721 1.405-1.43 3.12-2.998 4.619-3.97 1.197-.776 2.279-1.176 3.006-.848l.152.067-.012.165c-.005.081-.367.479-.941 1.103-1.126 1.225-3.13 3.401-4.752 5.197-2.419 2.675-4.122 5.236-5.313 8.018-1.193 2.785-1.88 5.798-2.263 9.38-.169 2.336-.148 4.427.11 6.492.258 2.061.754 4.097 1.538 6.322.804 2.038 1.678 3.767 2.792 5.33 1.113 1.564 2.467 2.966 4.232 4.353 1.725 1.26 3.327 2.315 5.008 3.222a33.093 33.093 0 0 0 5.503 2.341c1.76.522 3.327.864 4.908 1.028 1.584.166 3.186.156 5.018-.023 1.803-.233 3.354-.58 4.85-1.078 1.496-.498 2.941-1.154 4.53-2.005a35.946 35.946 0 0 0 4.655-3.125c1.408-1.118 2.729-2.342 4.124-3.759 1.433-1.556 2.478-3.051 3.269-4.66.79-1.61 1.332-3.34 1.76-5.372.367-2.113.513-4.017.462-5.915-.05-1.896-.298-3.794-.72-5.895a36.818 36.818 0 0 0-1.422-4.915" fill="#EB0029"/><path d="M25.496 13.534a9.895 9.895 0 0 0-.025.465 501.984 501.984 0 0 0-.054 6.01l-.016 2.75c2.13-.717 4.216-1.426 5.852-1.994a85.618 85.618 0 0 0 2.855-1.031c.009-.31.006-.79.004-1.376-.012-2.847-.035-8.061 1.226-8.185.335-.033.55-.03.725.283.125.22.192.62.249 1.379.067.894.102 2.076.116 3.247.021 1.672.002 3.315-.014 4.059.6-.166 1.347-.396 2.104-.628.683-.21 1.376-.423 1.947-.585.452-.13 1.142-.31 1.747-.378.702-.076 1.3.008 1.415.484.223.928-.108 1.038-.92 1.305l-.108.035c-.927.31-2.021.585-3.127.863-1.062.266-2.135.536-3.059.834a271.618 271.618 0 0 0-.253 6.324c-.046 1.702-.065 3.18-.07 4.622a280.62 280.62 0 0 1 4.78-1.531c1.338-.409 2.202-.624 2.385-.552.15.058.268.16.344.287a.77.77 0 0 1 .103.478.978.978 0 0 1-.197.485 1.37 1.37 0 0 1-.694.464c-.646.204-1.554.499-2.706.878-1.246.41-2.564.85-4.017 1.334l.013 4.08c.004 2.11.007 3.491.417 5.697.044.24.064.828-.01 1.444-.054.445-.156.912-.33 1.288-.193.418-.48.728-.888.805a1.087 1.087 0 0 1-.32.008c-1.455-.174-1.396-2.463-1.372-3.403l.004-.172c.034-2.097.044-4.124.053-6.13l.016-2.808a606.639 606.639 0 0 0-5.846 1.99c-1.317.459-2.343.826-2.862 1.034a84.704 84.704 0 0 0-.105 2.677c-.016.77-.008 1.304.02 1.58.034.326.094.404.166.5.075.1.16.21.25.457.147.406.28 1.203.268 1.985-.007.474-.066.948-.204 1.335-.152.425-.401.754-.78.891a1.146 1.146 0 0 1-.407.065c-.56-.008-.895-.235-1.109-.58-.194-.313-.27-.714-.324-1.125-.037-.28-.069-.637-.091-1.044a36.22 36.22 0 0 1-.05-1.376l-.165-.16a1.39 1.39 0 0 0-.144-.122l-.157-.109c-.115-.08-.232-.16-.34-.244a4.391 4.391 0 0 0-.668-.431 9.81 9.81 0 0 0-.743-.343 13.19 13.19 0 0 0-.384-.14 8.17 8.17 0 0 0-.39-.125c-.409-.108-.884-.2-1.374-.297-.903-.175-1.857-.361-2.613-.69l-.007-.002a2.15 2.15 0 0 1-.334-.194l-.003-.003a1.413 1.413 0 0 1-.192-.168 1.313 1.313 0 0 1-.157-.21c-.028-.05-.054-.103-.08-.153a.663.663 0 0 1-.032-.092c-.22-.927.11-1.037.92-1.304l.11-.037c.918-.306 2.17-.626 3.433-.95 1.21-.31 2.434-.623 3.381-.93.127-2.503.205-4.54.254-6.324.047-1.701.065-3.18.071-4.622a317.371 317.371 0 0 1-5.12 1.64c-1.506.462-2.541.733-2.724.66a.692.692 0 0 1-.345-.287.772.772 0 0 1-.103-.478.983.983 0 0 1 .197-.484c.146-.194.376-.365.694-.465.646-.203 1.721-.552 3.04-.985 1.36-.446 2.871-.946 4.363-1.442l-.013-3.662c-.003-1.186-.007-2.596.042-3.993.05-1.41.152-2.814.358-3.975l.021-.122c.043-.25.096-.566.198-.843.19-.516.522-.9 1.17-.663.921.335.802 2.178.735 3.225m7.13 19.621l1.063-.35c.02-1.605.049-3.282.101-5.096.052-1.8.128-3.737.235-5.873-1.157.318-4.257 1.34-7.605 2.443l-1.036.34a277.22 277.22 0 0 1-.336 10.97c1.154-.317 4.24-1.333 7.577-2.434M21.08 38.632c-1.296.28-2.752.594-3.387.83.218.036.473.065.726.094.444.05.888.1 1.188.194l.262.081c.364.111.712.219 1.088.358l.002.001c.387.15.73.303 1.055.476.196.103.384.215.57.338.004-.48.011-.955.022-1.405.011-.475.027-.922.045-1.318a71.89 71.89 0 0 1-1.571.35m64.542-24.676c-.779 5.723-3.436 30.062-2.97 38.172.053.951 0 2.92 1.388 2.92 2.789 0 2.73-2.202 1.68-2.962-.158-.115-.299-.44-.274-1.56.284-11.9 1.248-25.855 1.883-37.229 7.325-3.284 11.582-5.186 20.195-7.75 5.363-1.596 10.133-1.03 8.294-2.661-4.096-3.63-31.756 9.646-41.771 13.183-1.088.512-7.228 2.546-6.572 3.565.835 1.297 15.865-4.85 18.147-5.678m39.053 20.803c-.039 2.74-.7 6.166-.43 8.832-2.857-2-12.705-2.633-12.657-3.588.055-1.131 11.183-4.692 13.087-5.244m24.432 11.719c-.556.298-.46.888-.071 1.416 2.613 3.527 6.695 6.955 10.657 7.139 3.243.15 6.456-.79 8.91-3.174.77-.748 1.338-1.225 2.014-2.09.345-.442.361-.322.728.118.83.994.447 3.525.825 4.622.695 2.012 4.743-1.176.372-7.766-.21-.315-.526-.82-.944-.842-1.376-.07-2.317 1.676-3.115 2.587-2.355 2.689-5.009 4.558-8.434 4.458-3.117-.09-6.867-3.968-8.796-5.772-.745-.697-1.234-1.184-2.146-.696m-46.416 9.24c1.175-.063 1.83-.058 2.605-3.501-.877-.508-2.738-1.998-3.77-.247-.668 1.13.048 3.748 1.165 3.748m102.18-.69c2.313-.343 1.045-2.157-.607-2.884-3.008-1.382-4.942-4.46-7.696-5.667-4.255-1.86-7.105-.659-10.29 2.595-.81.83-1.484 1.582-2.202 2.546-.32.428-.157.494-.653-.143-.72-.922-.157-2.766-.397-3.87-.289-1.333-1.766-1.236-2.09.041-.317 1.25-.193 3.21.336 4.696.432 1.212 1.194 2.62 2.39 2.666 1.517.057 2.044-1.793 2.856-2.659 2.178-2.327 5.721-5.112 9.014-3.582 2.514 1.168 6.725 6.65 9.34 6.261m57.582-3.215c-.076-.002-.14-.413-.166-.563-.074-.423-.216-2.13-.489-3.22-.446-1.783-2.316-1.499-2.201 1.102.077 1.706.485 5.936 2.706 5.917 3.49-.029 1.346-7.356 7.632-7.814 3.134-.227 8.836 2.472 9.328 1.441.82-1.726-5.235-3.663-8.354-3.522-8.62.393-7.61 6.694-8.456 6.66m-31.064-1.716c1.346-1.537 5.74-2.094 7.849-2.381 2.082-.283 6.817-.337 7.038.756.178.67-3.42.786-5.376.785-.826-.001-1.6.003-1.462 1.003.193 1.397 2.364.945 3.384.865 1.523-.12 6.407-.63 6.667-2.592.162-1.223-2.192-2.304-3.467-2.58-3.787-.818-17.86-.155-17.541 5.552.382 4.452 7.485 3.506 10.546 3.358 2.465-.119 5.025-.402 7.511-.391 2.243.009 4.481.363 6.725.5 1.15.069 1.948-.402 1.938-1.16-.009-.782-1.31-1.074-1.976-1.168-2.898-.402-8.344-.327-10.162-.147-2.711.27-5.998.55-8.716.524-1.213-.011-4.69-.942-2.958-2.924m-12.436-37.463c.014-.917.439-3.976-.7-4.39-1.06-.387-1.23 1.096-1.362 1.833-.519 2.926-.511 7.049-.503 10.051.02 6.861.102 12.696-.408 22.717-2.446.814-5.206 1.311-7.539 2.09-.942.313-1.335.387-1.105 1.343.196.813 2.505.238 3.633-.083 1.749-.5 3.6-1.147 5.032-1.52-.148 2.694-.168 7.58.088 9.476.13.972.347 1.884 1.52 1.901 1.88.027 1.56-3.854 1.138-5.017-.24-.657-.458-.445-.545-1.286-.072-.702-.043-2.64.117-5.636 2.457-1.029 8.378-3.136 12.398-4.4 1.071-.339 1.152-1.37.543-1.606-.7-.273-10.415 3.399-12.864 3.94.613-11.968.413-20.465.557-29.413m-76.933 17.097c3.983-1.353 11.109-3.39 13.683-4.345 1.202-.446.994-.731.813-.957-.226-.28-.722-.422-2-.103-2.551.637-7.482 1.933-12.397 3.288.612-6.38-1.293-15.465-.339-21.225.213-1.283-1.766-1.887-2.07-.317-.194 1.005-.282 2.71-.295 3.067-.212 6.081 1.012 13.17.637 18.854-3.37.976-9.913 2.917-13.053 3.692.746-6.423 1.262-12.844 1.21-19.226-.028-3.468-1.877-2.245-1.91-.69-.146 6.792-.754 13.777-1.585 20.666-4.478 1.635-16.463 5.635-16.813 7.64-.227 1.3 1.613 1.499 2.773 1.795 3.3.84 7.758 1.398 11.723 3.104 3.407 1.467 1.96 6.87 2.135 9.86.095 1.64.483 3.166 2.493 3.166 1.348-.081 1.909-1.797 1.794-4.363-.174-3.895-.341-6.392-2.378-8.852 0-2.602-.035-5.456.399-10.786 3.528-1.031 10.2-2.871 13.167-3.657-.161 6.607-.503 12.417-.866 19.048-.056 1.043-.545 5.63 1.46 5.658 1.777.024 2.68-4.034.876-3.785-.15.02-.122.064-.095-1.286.088-7.262.267-12.994.638-20.246" fill="#FFF"/></g></svg>