<svg width="76" height="92" xmlns="http://www.w3.org/2000/svg"><defs><linearGradient x1="50%" y1="100%" x2="50%" y2="0%" id="a"><stop stop-color="#EB0029" offset="0%"/><stop stop-color="#F05" offset="100%"/></linearGradient></defs><g fill="none" fill-rule="evenodd"><path d="M38 92c1.8-6.516 9.475-14.398 23.025-23.644C70.402 61.958 76 50.422 76 38.069 76 17.044 58.987 0 38 0S0 17.044 0 38.069c0 12.574 5.883 24.143 15.467 30.657C28.709 77.726 36.22 85.484 38 92z" fill="url(#a)"/><circle stroke="#FFF" cx="38.5" cy="38.5" r="27.5"/><path d="M33.625 23.686c.011-.742.356-3.213-.567-3.55-.858-.311-.996.887-1.102 1.483-.42 2.366-.457 5.865-.45 8.291.004 1.412.01 2.683.013 3.929a625.22 625.22 0 0 1-7.771 2.546c-.868.273-.933 1.107-.44 1.298.262.102 4.032-1.1 8.21-2.468-.009 3.18-.074 4.821-.343 10.1-1.982.658-5.266 1.35-7.156 1.98-.762.254-1.08.314-.894 1.087a.317.317 0 0 0 .045.103 1.05 1.05 0 0 0 .335.396c.1.073.192.124.304.177 1.164.504 2.854.68 4.058.999.28.08.557.178.828.282.549.233 1.033.454 1.504.827.157.122.335.237.498.352.09.062.24.205.42.388.02 1.045.068 1.97.146 2.551.105.786.281 1.523 1.231 1.536 1.521.022 1.262-3.115.92-4.056-.192-.53-.37-.36-.44-1.04-.058-.567-.035-2.134.094-4.557 1.02-.425 5.175-1.848 9.424-3.272-.025 3.12-.02 6.234-.074 9.509-.011.742-.176 3.254 1.19 3.416 1.367.163 1.43-2.753 1.319-3.348-.452-2.428-.426-3.887-.432-6.313-.005-1.412-.012-2.683-.014-3.929a629.1 629.1 0 0 1 7.771-2.546c.868-.273.933-1.107.44-1.298-.261-.102-4.033 1.101-8.21 2.468.008-3.179.074-4.821.343-10.1 1.982-.658 5.27-1.366 7.16-1.996.762-.254 1.081-.314.894-1.086-.158-.657-2.028-.192-2.941.068-1.416.404-3.969 1.232-5.13 1.534.025-.72.136-5.468-.053-7.956-.113-1.48-.242-1.528-.732-1.48-1.343.132-1.012 8.41-1.092 9.89-1.019.427-5.174 1.85-9.423 3.273.025-3.12.064-6.213.117-9.488m8.88 17.99c-4.264 1.402-8.45 2.79-9.374 2.994.239-4.653.325-6.714.363-10.103 4.266-1.402 8.451-2.79 9.375-2.995-.239 4.654-.325 6.714-.363 10.103M25.343 48.46c-.494-.418 4.109-1.212 5.848-1.664a71.912 71.912 0 0 0-.087 3.576c-.625-.468-1.222-.773-1.999-1.075-.469-.175-.9-.3-1.372-.446-.583-.18-1.819-.203-2.39-.391" fill="#FFF"/></g></svg>