<svg width="38" height="46" fill="none" xmlns="http://www.w3.org/2000/svg"><path fill-rule="evenodd" clip-rule="evenodd" d="M19 46s1.35-4.887 11.513-11.822C35.2 30.979 38 25.211 38 19.035 38 8.522 29.493 0 19 0S0 8.522 0 19.035c0 6.287 2.942 12.071 7.733 15.328C17.665 41.113 19 46 19 46z" fill="url(#paint0_linear)"/><path clip-rule="evenodd" d="M19.25 33C26.844 33 33 26.844 33 19.25S26.844 5.5 19.25 5.5 5.5 11.656 5.5 19.25 11.656 33 19.25 33z" stroke="#fff"/><path fill-rule="evenodd" clip-rule="evenodd" d="M16.812 11.843c.006-.37.178-1.607-.283-1.775-.429-.156-.498.444-.551.741-.21 1.183-.229 2.933-.225 4.146l.006 1.964a312.585 312.585 0 0 1-3.885 1.274c-.434.136-.466.553-.22.649.13.05 2.016-.551 4.105-1.234-.004 1.59-.037 2.41-.171 5.05-.991.329-2.633.675-3.578.99-.382.127-.54.157-.447.543a.526.526 0 0 0 .043.09.525.525 0 0 0 .147.16c.05.036.096.062.151.088.583.252 1.428.34 2.03.5.14.04.278.089.414.14.274.117.516.227.752.414.078.061.167.118.248.176.045.03.12.102.21.194.01.523.034.985.073 1.276.053.392.141.761.616.768.76.01.63-1.558.46-2.028-.096-.266-.185-.18-.22-.52-.03-.284-.017-1.067.047-2.279.51-.213 2.588-.924 4.712-1.636-.013 1.56-.01 3.117-.037 4.754-.005.371-.088 1.627.595 1.709.683.081.715-1.377.66-1.674-.227-1.215-.213-1.944-.217-3.157l-.006-1.964a314.408 314.408 0 0 1 3.885-1.273c.434-.137.466-.554.22-.65-.13-.05-2.016.551-4.105 1.234.004-1.589.037-2.41.171-5.05.991-.329 2.636-.683 3.58-.997.382-.127.541-.157.448-.544-.08-.328-1.015-.096-1.471.034-.708.202-1.985.617-2.565.767.012-.36.068-2.734-.027-3.978-.056-.74-.12-.764-.365-.74-.672.067-.507 4.206-.546 4.946-.51.213-2.588.924-4.712 1.636.012-1.56.032-3.107.058-4.744zm4.44 8.995c-2.132.7-4.225 1.395-4.687 1.497.12-2.327.163-3.357.182-5.052 2.133-.7 4.225-1.395 4.687-1.497-.12 2.327-.162 3.357-.181 5.052zm-8.58 3.391c-.248-.209 2.054-.606 2.924-.831a35.246 35.246 0 0 0-.044 1.787 3.951 3.951 0 0 0-1-.537c-.234-.088-.45-.15-.685-.223-.292-.09-.91-.102-1.195-.196z" fill="#fff"/><defs><linearGradient id="paint0_linear" x2="1" gradientUnits="userSpaceOnUse" gradientTransform="matrix(0 -46 38 0 19 46)"><stop stop-color="#EB0029"/><stop offset="1" stop-color="#EB0029"/></linearGradient></defs></svg>