<svg width="40" height="5" fill="none" xmlns="http://www.w3.org/2000/svg"><path fill-rule="evenodd" clip-rule="evenodd" d="M4.902.23a.224.224 0 0 1 .103-.104c.047-.025.164-.037.348-.037a63.483 63.483 0 0 1 .451-.011 10.982 10.982 0 0 0 .531-.026c.01.024.016.05.016.074v.06c0 .078-.029.125-.087.14a2.67 2.67 0 0 0-.25.045.417.417 0 0 0-.138.055.163.163 0 0 0-.063.078.31.31 0 0 0-.016.104l.012.282c.008.178.02.398.035.66.016.262.032.547.048.853l.047.872c.016.275.03.513.04.716.01.203.018.326.024.37 0 .05.006.091.02.123a.2.2 0 0 0 .07.086.461.461 0 0 0 .147.063c.064.017.146.033.246.048.058.01.087.057.087.14a.62.62 0 0 1-.016.127l-.503-.026c-.15-.007-.32-.011-.51-.011a14.952 14.952 0 0 0-1.054.037.62.62 0 0 1-.016-.126c0-.055.01-.092.028-.111.019-.02.036-.03.052-.03.216-.035.356-.076.42-.123.063-.046.094-.12.094-.218l-.012-.238a30.68 30.68 0 0 1-.023-.534 95.996 95.996 0 0 0-.071-1.387 54.39 54.39 0 0 1-.032-.564 4.335 4.335 0 0 0-.02-.29l-1.624 3.54a.816.816 0 0 1-.067.1.093.093 0 0 1-.075.033h-.048a.117.117 0 0 1-.047-.008L1.212.868a9.988 9.988 0 0 0-.02.39c-.008.195-.019.418-.032.67a157.44 157.44 0 0 0-.075 1.573 127.518 127.518 0 0 1-.04.86.37.37 0 0 0 .016.116.18.18 0 0 0 .064.085.41.41 0 0 0 .142.063c.063.018.15.036.261.056.058.01.088.057.088.14a.777.777 0 0 1-.016.126l-.396-.025a5.971 5.971 0 0 0-.76 0c-.159.007-.301.016-.428.026A.14.14 0 0 1 0 4.88v-.06c0-.054.008-.09.024-.107a.11.11 0 0 1 .063-.033 1.22 1.22 0 0 0 .356-.119.257.257 0 0 0 .127-.2c0-.04.005-.16.016-.36.01-.2.024-.438.04-.712a136.368 136.368 0 0 0 .09-1.736A126.886 126.886 0 0 0 .76.608C.76.524.731.463.673.426.615.39.488.356.293.326.235.321.206.274.206.186v-.06A.16.16 0 0 1 .222.052a17.577 17.577 0 0 0 .657.026 128.321 128.321 0 0 1 .594.01c.095 0 .169.005.222.012a.827.827 0 0 1 .126.026.12.12 0 0 1 .068.044c.013.02.025.04.035.06l1.473 3.33L4.902.23zm6.066 3.049H9.305L8.893 4.31a.222.222 0 0 0-.031.082.42.42 0 0 0-.008.066c0 .055.027.1.083.134.055.035.168.064.336.09.074.009.111.056.111.14a.62.62 0 0 1-.016.126 23.65 23.65 0 0 0-.45-.026 9.985 9.985 0 0 0-.8-.004 6.424 6.424 0 0 0-.389.03.14.14 0 0 1-.016-.067v-.059c0-.094.035-.143.103-.148.164-.03.281-.062.353-.097a.376.376 0 0 0 .17-.178L10.248.126c.042-.084.105-.126.19-.126a.849.849 0 0 1 .166.015l1.908 4.406c.032.075.093.13.183.167.09.037.187.063.293.078.079.015.118.065.118.149 0 .04-.005.084-.015.133-.17-.01-.336-.018-.5-.026a10.173 10.173 0 0 0-1.053.004c-.11.005-.22.009-.328.011-.109.002-.2.006-.274.011a.139.139 0 0 1-.015-.067v-.059c0-.045.009-.078.027-.1a.112.112 0 0 1 .06-.04c.137-.026.239-.054.305-.086.066-.032.099-.08.099-.145a.347.347 0 0 0-.024-.111l-.42-1.061zm-.15-.371l-.673-1.67-.69 1.67h1.363zM16.195.46v3.902c0 .05.004.09.012.122a.155.155 0 0 0 .06.086.41.41 0 0 0 .134.063c.058.017.14.033.245.048.08.015.12.057.12.126a.802.802 0 0 1-.017.141c-.169-.01-.35-.019-.542-.026a13.011 13.011 0 0 0-1.022 0c-.187.008-.365.016-.534.026a.192.192 0 0 1-.02-.074.802.802 0 0 1-.004-.067c0-.035.007-.063.02-.085.013-.022.049-.039.107-.048.195-.025.318-.059.368-.1.05-.043.075-.113.075-.212V.46H14.5c-.148 0-.273.013-.376.04a.78.78 0 0 0-.475.35 2.99 2.99 0 0 0-.186.33c-.021.044-.06.066-.119.066a.708.708 0 0 1-.206-.052c.037-.118.069-.223.095-.315a2.67 2.67 0 0 0 .064-.27c.02-.115.037-.216.047-.305a.824.824 0 0 1 .04-.193c.02-.044.063-.067.126-.067.059 0 .173.008.345.023.171.015.379.022.621.022h2.44c.237 0 .442-.007.613-.022.172-.015.29-.023.353-.023.058 0 .1.023.127.067.015.04.027.104.035.193.008.09.025.19.052.304a3.614 3.614 0 0 0 .158.586c-.026.01-.06.021-.099.034a.363.363 0 0 1-.107.018c-.058 0-.1-.022-.127-.067a3.007 3.007 0 0 0-.186-.33A.78.78 0 0 0 17.26.5a1.455 1.455 0 0 0-.368-.04h-.697zm4.886 0v1.788h1.117c.1 0 .169-.039.206-.115a1.43 1.43 0 0 0 .095-.375c.005-.04.02-.065.047-.078a.244.244 0 0 1 .103-.018.798.798 0 0 1 .151.015 10.343 10.343 0 0 0-.04.778 7.337 7.337 0 0 0 .04.727.17.17 0 0 1-.076.019l-.075.004c-.095 0-.145-.035-.15-.104-.032-.188-.068-.315-.107-.382-.04-.067-.104-.1-.194-.1H21.08V4.28c0 .104.069.173.206.208.137.035.37.052.697.052h.333c.158 0 .291-.02.4-.06a.942.942 0 0 0 .289-.166 1.19 1.19 0 0 0 .221-.252c.064-.097.127-.204.19-.323.016-.035.053-.052.111-.052.027 0 .058.007.095.022l.111.045a.788.788 0 0 1-.036.11c-.013.036-.025.07-.035.105a.897.897 0 0 0-.064.178 1.213 1.213 0 0 1-.047.156l-.036.167-.04.178a2.635 2.635 0 0 1-.067.24c-.02.04-.063.06-.126.06-.043 0-.103-.002-.182-.007a7.25 7.25 0 0 0-.258-.011 11.106 11.106 0 0 1-.28-.012 4.83 4.83 0 0 0-.246-.007h-1.798a21.644 21.644 0 0 0-1.061.037.166.166 0 0 1-.016-.078V4.8c0-.075.026-.114.08-.119.2-.035.344-.072.43-.111a.21.21 0 0 0 .131-.208V.645c0-.05-.008-.09-.023-.122a.19.19 0 0 0-.091-.082.85.85 0 0 0-.175-.059 4.676 4.676 0 0 0-.273-.056c-.053-.015-.08-.059-.08-.133v-.07a.18.18 0 0 1 .017-.071 16.57 16.57 0 0 0 1.053.037h1.623c.238 0 .443-.007.614-.022.172-.015.29-.023.353-.023.058 0 .1.023.126.067a.89.89 0 0 1 .04.219c.01.106.029.216.055.33a3.28 3.28 0 0 0 .15.534 1.68 1.68 0 0 1-.086.03.318.318 0 0 1-.095.015c-.058 0-.1-.022-.127-.067a2.99 2.99 0 0 0-.186-.33.876.876 0 0 0-.206-.223.732.732 0 0 0-.27-.122 1.595 1.595 0 0 0-.368-.037H21.08zm5.94 2.3h-.341v1.55c0 .114.051.194.154.241.103.047.279.085.527.115.074.01.11.06.11.148 0 .04-.005.085-.015.134a23.278 23.278 0 0 0-1.322-.037c-.19 0-.374.004-.551.011a22.03 22.03 0 0 0-.495.026.14.14 0 0 1-.016-.067v-.06c0-.083.03-.13.087-.14.111-.02.2-.038.27-.056a.6.6 0 0 0 .158-.06.174.174 0 0 0 .075-.08.325.325 0 0 0 .02-.123V.645c0-.099-.038-.17-.115-.215-.076-.044-.223-.079-.44-.104a.143.143 0 0 1-.063-.044c-.016-.02-.023-.055-.023-.104V.11a.1.1 0 0 1 .015-.06 18.283 18.283 0 0 0 1.03.038h1.196c.28 0 .53.032.752.096.222.065.41.156.566.275.156.118.275.26.357.423.081.163.122.343.122.541 0 .262-.085.5-.257.716a1.559 1.559 0 0 1-.709.486l1.244 1.699a.763.763 0 0 0 .328.267c.124.05.24.086.345.111a.11.11 0 0 1 .063.034c.016.017.024.048.024.092v.067c0 .025-.006.05-.016.074a4.26 4.26 0 0 0-.246-.01 16.291 16.291 0 0 1-.328-.012 15.724 15.724 0 0 0-.622-.015.54.54 0 0 1-.332-.13 1.748 1.748 0 0 1-.325-.345L27.02 2.76zm-.104-.371c.164 0 .312-.015.444-.045a.877.877 0 0 0 .34-.152.682.682 0 0 0 .218-.285c.05-.12.075-.27.075-.453 0-.307-.079-.549-.237-.727-.159-.178-.439-.267-.84-.267h-.237v1.929h.237zm5.98 1.973c0 .05.004.09.011.122a.15.15 0 0 0 .064.086.461.461 0 0 0 .15.063c.066.017.155.033.266.048.052.01.079.052.079.126a.802.802 0 0 1-.016.14 31.72 31.72 0 0 0-.543-.025 13.307 13.307 0 0 0-1.025 0c-.19.007-.37.016-.539.026a.156.156 0 0 1-.015-.074v-.067c0-.08.026-.121.079-.126.11-.015.2-.031.265-.048a.413.413 0 0 0 .147-.063.18.18 0 0 0 .063-.086.4.4 0 0 0 .016-.122V.645a.4.4 0 0 0-.016-.122.18.18 0 0 0-.063-.085.413.413 0 0 0-.147-.064 2.284 2.284 0 0 0-.265-.048c-.053-.015-.08-.057-.08-.126V.133c0-.03.006-.057.017-.081.168.01.348.018.538.026a13.31 13.31 0 0 0 1.568-.026.69.69 0 0 1 .016.148c0 .07-.027.111-.08.126-.11.015-.199.031-.265.048a.461.461 0 0 0-.15.064.15.15 0 0 0-.064.085.525.525 0 0 0-.011.122v3.717zm4.965-1.083h-1.663l-.412 1.031a.223.223 0 0 0-.032.082.416.416 0 0 0-.008.066c0 .055.028.1.084.134.055.035.167.064.336.09.074.009.11.056.11.14a.624.624 0 0 1-.015.126 23.3 23.3 0 0 0-.451-.026 9.989 9.989 0 0 0-.8-.004 6.423 6.423 0 0 0-.388.03.14.14 0 0 1-.016-.067v-.059c0-.094.034-.143.103-.148.164-.03.281-.062.352-.097a.377.377 0 0 0 .17-.178l1.91-4.273c.041-.084.105-.126.19-.126a.848.848 0 0 1 .166.015l1.908 4.406c.032.075.092.13.182.167.09.037.188.063.293.078.08.015.119.065.119.149 0 .04-.005.084-.016.133-.169-.01-.335-.018-.499-.026a10.18 10.18 0 0 0-1.053.004 15.2 15.2 0 0 1-.329.011 5.65 5.65 0 0 0-.273.011.14.14 0 0 1-.016-.067v-.059c0-.045.01-.078.028-.1a.112.112 0 0 1 .06-.04c.137-.026.238-.054.304-.086.066-.032.1-.08.1-.145a.347.347 0 0 0-.024-.111l-.42-1.061zm-.15-.371l-.674-1.67-.689 1.67h1.362z" fill="#fff"/></svg>