<svg width="84" height="16" fill="none" xmlns="http://www.w3.org/2000/svg"><path d="M12.14 12h-1.812V7.64c0-.838-.12-1.445-.36-1.82-.234-.375-.632-.562-1.195-.562-.474 0-.877.237-1.21.71-.329.475-.493 1.042-.493 1.704V12H5.25V7.492c0-1.49-.526-2.234-1.578-2.234-.49 0-.893.224-1.211.672-.313.448-.469 1.028-.469 1.742V12H.18V4h1.812v1.266h.031c.579-.97 1.42-1.454 2.524-1.454.552 0 1.034.154 1.445.461.417.303.7.701.852 1.196.593-1.104 1.479-1.657 2.656-1.657 1.76 0 2.64 1.086 2.64 3.258V12zm10.265-3.508h-5.453c.02.74.247 1.31.68 1.711.437.401 1.036.602 1.796.602.855 0 1.639-.255 2.352-.766V11.5c-.73.458-1.693.688-2.89.688-1.178 0-2.102-.363-2.774-1.086-.667-.73-1-1.753-1-3.07 0-1.246.367-2.259 1.102-3.04.74-.786 1.656-1.18 2.75-1.18 1.093 0 1.94.352 2.539 1.055.598.703.898 1.68.898 2.93v.695zm-1.75-1.281c-.005-.651-.159-1.156-.46-1.516-.303-.364-.72-.547-1.25-.547-.522 0-.965.19-1.33.57-.358.381-.58.878-.663 1.493h3.703zM32.685 12h-1.813v-1.36h-.03c-.584 1.032-1.482 1.547-2.696 1.547-.984 0-1.774-.356-2.367-1.07-.589-.719-.883-1.695-.883-2.93 0-1.322.325-2.382.976-3.18.657-.796 1.53-1.194 2.618-1.194 1.078 0 1.862.432 2.351 1.296h.031V.156h1.813V12zm-1.79-3.656V7.297c0-.568-.184-1.05-.554-1.445-.37-.396-.84-.594-1.414-.594-.677 0-1.21.252-1.601.758-.386.505-.579 1.205-.579 2.101 0 .813.185 1.456.555 1.93.375.469.878.703 1.508.703.62 0 1.122-.227 1.508-.68.385-.458.578-1.034.578-1.726zm6.351-6.024a1.1 1.1 0 0 1-.765-.289.957.957 0 0 1-.313-.734c0-.297.104-.544.313-.742.213-.198.468-.297.765-.297.307 0 .568.099.782.297a.97.97 0 0 1 .32.742.969.969 0 0 1-.32.726 1.107 1.107 0 0 1-.782.297zm.899 9.68h-1.813V4h1.813v8zm9.795 0h-1.758v-1.25h-.03c-.553.958-1.363 1.438-2.43 1.438-.787 0-1.404-.214-1.852-.641-.443-.427-.664-.992-.664-1.695 0-1.51.87-2.391 2.61-2.641l2.374-.336c0-1.14-.541-1.71-1.625-1.71-.953 0-1.812.327-2.578.983V4.563c.844-.5 1.818-.75 2.922-.75 2.02 0 3.031.994 3.031 2.984V12zm-1.75-3.93l-1.68.235c-.52.067-.913.195-1.18.383-.26.182-.39.505-.39.968 0 .339.12.617.36.836.245.214.57.32.976.32.552 0 1.008-.192 1.367-.578.365-.39.547-.88.547-1.468V8.07zm11.5 2.774h-.032V12h-1.813V.156h1.813v5.25h.031c.62-1.062 1.526-1.593 2.719-1.593 1.01 0 1.8.359 2.367 1.078.573.713.86 1.671.86 2.875 0 1.338-.32 2.411-.962 3.218-.64.803-1.515 1.204-2.625 1.204-1.041 0-1.828-.448-2.359-1.344zm-.048-3.18v.992c0 .584.185 1.078.555 1.485.375.406.849.609 1.422.609.672 0 1.198-.26 1.578-.781.385-.526.578-1.258.578-2.196 0-.786-.18-1.4-.54-1.843-.353-.448-.835-.672-1.444-.672-.646 0-1.167.229-1.563.687-.39.459-.586 1.032-.586 1.72zM72.72 12h-1.758v-1.25h-.031c-.552.958-1.362 1.438-2.43 1.438-.786 0-1.403-.214-1.851-.641-.443-.427-.664-.992-.664-1.695 0-1.51.87-2.391 2.61-2.641l2.374-.336c0-1.14-.542-1.71-1.625-1.71-.953 0-1.812.327-2.578.983V4.563c.844-.5 1.818-.75 2.922-.75 2.02 0 3.031.994 3.031 2.984V12zm-1.75-3.93l-1.68.235c-.52.067-.914.195-1.18.383-.26.182-.39.505-.39.968 0 .339.12.617.36.836.244.214.57.32.976.32.552 0 1.008-.192 1.367-.578.365-.39.547-.88.547-1.468V8.07zM83.147 4l-3.609 9.281c-.75 1.656-1.802 2.485-3.156 2.485-.38 0-.698-.034-.953-.102v-1.508c.286.094.547.14.781.14.677 0 1.182-.332 1.516-1l.539-1.312L75.085 4h2.008l1.906 5.813c.02.072.068.265.14.578h.04c.026-.12.073-.308.14-.563l2-5.828h1.828z" fill="#fff"/></svg>