<svg width="274" height="300" fill="none" xmlns="http://www.w3.org/2000/svg"><path fill-rule="evenodd" clip-rule="evenodd" d="M275.556 201.652h-2.112v59.123h2.112v-59.123z" fill="url(#paint0_linear)"/><path fill-rule="evenodd" clip-rule="evenodd" d="M275.556 347.348h-2.112v-59.123h2.112v59.123z" fill="url(#paint1_linear)"/><path fill-rule="evenodd" clip-rule="evenodd" d="M201.651 275.556v-2.112h59.123v2.112h-59.123z" fill="url(#paint2_linear)"/><path fill-rule="evenodd" clip-rule="evenodd" d="M325.083 274.5L274.5 244.774 246.104 274.5l28.396 27.558 50.583-27.558z" fill="url(#paint3_linear)"/><path fill-rule="evenodd" clip-rule="evenodd" d="M274.5 358.961c-46.647 0-84.462-37.814-84.462-84.461s37.815-84.462 84.462-84.462c46.647 0 84.461 37.815 84.461 84.462 0 46.647-37.814 84.461-84.461 84.461z" fill="url(#paint4_radial)"/><path fill-rule="evenodd" clip-rule="evenodd" d="M274.5 0C426.102 0 549 122.898 549 274.5S426.102 549 274.5 549 0 426.102 0 274.5 122.898 0 274.5 0zm0 190.038c46.646 0 84.461 37.815 84.461 84.462 0 46.647-37.815 84.461-84.461 84.461-46.647 0-84.461-37.814-84.461-84.461s37.814-84.462 84.461-84.462z" fill="url(#paint5_radial)"/><path d="M274.5 360.461c-47.475 0-85.962-38.486-85.962-85.961s38.487-85.962 85.962-85.962 85.961 38.487 85.961 85.962-38.486 85.961-85.961 85.961z" stroke="#372B81" stroke-opacity=".53" stroke-width="3"/><path opacity=".5" d="M274.501 391.634c-64.692 0-117.135-52.443-117.135-117.134 0-64.692 52.443-117.135 117.135-117.135 64.691 0 117.134 52.443 117.134 117.135 0 64.691-52.443 117.134-117.134 117.134z" stroke="#423782" stroke-width="2"/><path opacity=".2" d="M274.5 423.308c-82.184 0-148.808-66.623-148.808-148.808 0-82.184 66.624-148.807 148.808-148.807S423.308 192.316 423.308 274.5c0 82.185-66.624 148.808-148.808 148.808z" stroke="#182175" stroke-width="2"/><path opacity=".05" d="M274.5 454.981c-99.677 0-180.481-80.804-180.481-180.481 0-99.677 80.804-180.481 180.481-180.481 99.676 0 180.48 80.804 180.48 180.481 0 99.677-80.804 180.481-180.48 180.481z" stroke="#2B1665" stroke-width="2"/><defs><linearGradient id="paint0_linear" x1="272.621" y1="247.757" x2="272.621" y2="201.652" gradientUnits="userSpaceOnUse"><stop stop-color="#27066E" stop-opacity=".5"/><stop offset="1" stop-color="#330497" stop-opacity=".01"/></linearGradient><linearGradient id="paint1_linear" x1="272.621" y1="301.243" x2="272.621" y2="347.348" gradientUnits="userSpaceOnUse"><stop stop-color="#26146C" stop-opacity=".5"/><stop offset="1" stop-color="#2B0E9F" stop-opacity=".01"/></linearGradient><linearGradient id="paint2_linear" x1="247.756" y1="272.621" x2="201.651" y2="272.621" gradientUnits="userSpaceOnUse"><stop stop-color="#201748" stop-opacity=".5"/><stop offset="1" stop-color="#1E1153" stop-opacity=".01"/></linearGradient><linearGradient id="paint3_linear" x1="246.104" y1="302.058" x2="246.104" y2="244.774" gradientUnits="userSpaceOnUse"><stop stop-color="#150162" stop-opacity=".86"/><stop offset="1" stop-color="#8A9DFF"/></linearGradient><radialGradient id="paint4_radial" cx="0" cy="0" r="1" gradientUnits="userSpaceOnUse" gradientTransform="rotate(90 -.486 274.986) scale(83.4889)"><stop stop-color="#312A82" stop-opacity=".75"/><stop offset="1" stop-color="#2D2775" stop-opacity=".01"/></radialGradient><radialGradient id="paint5_radial" cx="0" cy="0" r="1" gradientUnits="userSpaceOnUse" gradientTransform="rotate(90 0 274.5) scale(252.044)"><stop stop-color="#0D1175"/><stop offset=".698" stop-color="#180F84" stop-opacity=".19"/><stop offset="1" stop-color="#C8B6FD" stop-opacity=".01"/></radialGradient></defs></svg>