<svg width="96" height="103" xmlns="http://www.w3.org/2000/svg"><defs><linearGradient x1="50%" y1="100%" x2="50%" y2="0%" id="a"><stop stop-color="#EB0029" offset="0%"/><stop stop-color="#F05" offset="100%"/></linearGradient></defs><g fill="none" fill-rule="evenodd"><rect fill="url(#a)" x="16" y="20" width="63" height="63" rx="2"/><circle fill="#FFF" cx="48" cy="58" r="6"/><path fill="#FFF" d="M36 29h32v17H36z"/><path d="M34.351 41.062h27.33V27.465H34.35v13.597zm30.84 3.442H30.784V27.478h-6.73V49.78h6.73v3.407h-6.72V75.41h47.9V53.116h-6.746v-3.408h6.734V27.47h-6.76v17.034zM5.178 20.6H8.51v29.043h12.027v-25.61h54.88v25.67h15.434v32.542h-3.355V53.214H75.513v25.612H20.557V53.179H5.177V20.6zm77.202-3.528V.04h13.6v17.03h-13.6zm3.433-3.454h6.733V3.438h-6.733v10.18zm-3.414 89.22v-17.03H96v17.03H82.399zm3.435-3.438h6.73V89.238h-6.73V99.4zm-30.92-82.356V.014h13.6v17.03h-13.6zm3.466-3.409h6.726v-10.2H58.38v10.2zM27.49 17.07V0h13.593v17.07H27.49zm3.429-3.469h6.769V3.457h-6.77V13.6zm24.024 89.236V85.806h13.599v17.03h-13.6zm3.414-3.395h6.734V89.279h-6.734v10.163zM0 17.043V.013h13.6v17.03H0zm3.436-3.419h6.747V3.47H3.436v10.154zm24.06 89.242V85.798h13.58v17.068h-13.58zm3.422-3.461h6.733V89.243h-6.733v10.162zm-30.88 3.461V85.834h13.6v17.032H.037zM3.46 89.241V99.4h6.79V89.24H3.46zm68.641-3.46h6.708v17.066h-3.307V89.248h-3.4v-3.467zm-27.452.044h6.736v17.018h-3.403V89.222H44.65v-3.397zm-27.512.021h6.769v17.012H20.57V89.23h-3.433v-3.385zm.06-85.818h6.724v17.005h-3.344V3.397h-3.38V.028zm27.447-.01h6.745v17.027h-3.34V3.448h-3.405V.018zm27.467.008h6.762v17.009h-3.389V3.428h-3.373V.026zM58.3 58.366c.02-5.697-4.57-10.343-10.232-10.358-5.705-.014-10.335 4.56-10.359 10.231-.023 5.69 4.569 10.338 10.234 10.36 5.692.023 10.337-4.567 10.357-10.234zm-3.432-.106a6.867 6.867 0 0 1-6.846 6.908c-3.79.013-6.884-3.078-6.88-6.874.003-3.745 3.057-6.827 6.792-6.854 3.807-.027 6.922 3.037 6.934 6.82zm3.483 13.695h10.195V61.8h-3.421v6.826H58.35v3.33zM48.089 37.657h6.734v-3.305h-6.734v3.305zm-.085 24.08a3.449 3.449 0 0 0 3.434-3.488c-.026-1.862-1.567-3.377-3.435-3.376a3.425 3.425 0 0 0-3.43 3.484 3.441 3.441 0 0 0 3.431 3.38z" fill="#291956"/></g></svg>