<svg width="96" height="97" xmlns="http://www.w3.org/2000/svg"><defs><linearGradient x1="50%" y1="100%" x2="50%" y2="0%" id="a"><stop stop-color="#EB0029" offset="0%"/><stop stop-color="#F05" offset="100%"/></linearGradient></defs><g fill="none" fill-rule="evenodd"><circle fill="url(#a)" cx="48" cy="48" r="41"/><path d="M65.5 65.319l7-2.564v24.664a3.5 3.5 0 1 1-7 0v-22.1z" fill="#FFF"/><circle fill="#FFF" cx="37" cy="37" r="14"/><path d="M61.108 48.131h15.929v-3.095h-15.93v3.095zm12.7 3.328h-9.496v7.193c2.241-.837 4.393-1.633 6.537-2.448.99-.376 2.371-.53 2.84-1.259.506-.786.155-2.125.174-3.223.001-.063-.026-.127-.055-.263zM43.605 32.637L32.622 43.588a7.949 7.949 0 0 0 9.98-1.008c2.646-2.645 3.11-6.783 1.003-9.943zm-13.393 8.49l10.953-10.93c-2.87-2.051-7.179-1.622-9.88 1.07-2.705 2.696-3.134 6.997-1.073 9.86zm43.659 17.55c-.17 0-.277-.027-.362.005-2.903 1.087-5.81 2.164-8.696 3.295-.263.104-.531.555-.549.86-.064 1.133-.023 2.272-.023 3.409 0 7.29-.015 14.58.004 21.87.008 3.366 2.913 5.646 6.077 4.826 2.13-.552 3.538-2.446 3.543-4.883.015-7.759.006-15.517.006-23.276v-6.105zm-59.826 7.43C10.35 71.493 6.89 76.804 4.582 82.768c-.785 2.027-1.433 4.095-1.373 6.313.057 2.133 1.094 3.288 3.199 3.5 2.322.234 4.502-.412 6.647-1.172 5.391-1.91 10.249-4.838 15.007-7.949.629-.412 1.243-.847 1.979-1.35-6.907-3.803-12.173-9.067-15.996-16.005zm68.13-36.084c3.604-5.364 7.03-10.668 9.134-16.667.72-2.05 1.209-4.248 1.37-6.41.184-2.503-1.254-3.783-3.758-3.725a14.886 14.886 0 0 0-3.546.511C80.758 4.994 76.62 7.305 72.58 9.795c-2.14 1.32-4.223 2.732-6.47 4.192 6.977 3.83 12.239 9.1 16.064 16.036zm-22.77-15.27c-13.739-4.722-29.783-.391-39.296 12.028-8.47 11.059-8.496 24.886-5.232 32.496l13.088-15.502c-3.677-5.33-2.268-11.136.92-14.516 2.908-3.084 8.862-5.401 14.92-1.339l15.6-13.166zm1.553 66.265V51.387c-.569 0-1.069.018-1.567-.004-.959-.042-1.554-.616-1.565-1.587-.024-2.14-.024-4.281 0-6.422.012-1.02.607-1.609 1.641-1.61 6.388-.014 12.777-.013 19.165-.002 1.04.002 1.644.582 1.656 1.596.025 2.14.028 4.28.005 6.421-.01 1.002-.633 1.578-1.654 1.612-.49.016-.98.002-1.477.002v16.795c.235-.318.383-.496.507-.688 4.827-7.496 6.75-15.703 5.359-24.486-1.898-11.98-8.388-20.8-19.157-26.445-.549-.288-.919-.28-1.412.126-4.13 3.4-8.295 6.754-12.418 10.161-1.356 1.121-2.617 2.358-3.905 3.527 3.432 5.426 2.02 11.047-1.25 14.376-3.208 3.267-8.885 4.909-14.464 1.405-.113.1-.25.193-.353.316-4.503 5.385-9.009 10.767-13.478 16.179-.193.234-.18.822-.029 1.13 2.94 6 7.239 10.806 12.917 14.327 6.871 4.26 14.366 5.982 22.41 5.159 3.124-.32 6.169-1.049 9.07-2.257zm.072 3.63c-1.731.443-3.36.928-5.018 1.272-7.347 1.521-14.543.942-21.554-1.727-.78-.296-1.317-.23-1.998.245-5.321 3.712-10.803 7.16-16.844 9.604-3.08 1.246-6.241 2.205-9.63 1.92C2.57 95.677.11 92.998.007 89.569c-.11-3.678 1.1-7.027 2.546-10.304 2.494-5.65 5.843-10.801 9.427-15.805.368-.513.433-.917.195-1.53-8.552-22.076 5.004-46.785 28.228-51.505 7.396-1.504 14.61-.911 21.647 1.799.554.213.909.11 1.352-.207C68.324 8.49 73.387 5.19 78.927 2.7 82.253 1.206 85.65-.067 89.398.003c3.732.07 6.358 2.589 6.576 6.304.219 3.722-.988 7.108-2.412 10.434-2.403 5.615-5.65 10.75-9.137 15.739-.442.632-.527 1.146-.257 1.909 4.974 14.05 2.776 26.909-6.466 38.592-.338.428-.586 1.059-.591 1.597-.046 4.582-.03 9.165-.025 13.748.006 4.363-3.548 8.023-7.806 8.026-4.673.004-8.252-3.458-8.25-7.98v-3.724zm8.024-56.495c0-.835.022-1.67-.006-2.505-.032-.937-.691-1.555-1.6-1.554-.907.001-1.575.618-1.592 1.56-.028 1.636-.03 3.274 0 4.91.018.95.68 1.555 1.597 1.554.907-.001 1.56-.618 1.595-1.56.03-.8.006-1.603.006-2.405zm6.423 7.213c0-.568.025-1.137-.006-1.703-.05-.937-.713-1.555-1.613-1.546-.899.01-1.56.636-1.586 1.577A59.524 59.524 0 0 0 72.28 37c.027.932.701 1.548 1.61 1.54.906-.006 1.542-.624 1.584-1.571.024-.534.004-1.069.004-1.603z" fill="#291956"/></g></svg>